Giphurs-Italic.ufo
<glyph name="exclam" format="2">
  <advance width="532"/>
  <unicode hex="0021"/>
  <outline>
    <contour>
      <point x="26" y="108" type="curve" smooth="yes"/>
      <point x="26" y="180"/>
      <point x="82" y="236"/>
      <point x="154" y="236" type="curve" smooth="yes"/>
      <point x="226" y="236"/>
      <point x="282" y="180"/>
      <point x="282" y="108" type="curve" smooth="yes"/>
      <point x="282" y="36"/>
      <point x="226" y="-20"/>
      <point x="154" y="-20" type="curve" smooth="yes"/>
      <point x="82" y="-20"/>
      <point x="26" y="36"/>
    </contour>
    <contour>
      <point x="290" y="1480" type="line"/>
      <point x="502" y="1480" type="line"/>
      <point x="305" y="452" type="line"/>
      <point x="125" y="452" type="line"/>
    </contour>
  </outline>
</glyph>
<glyph name="quotedbl" format="2">
  <advance width="808"/>
  <unicode hex="0022"/>
  <outline>
    <contour>
      <point x="451" y="968" type="line"/>
      <point x="529" y="1480" type="line"/>
      <point x="713" y="1480" type="line"/>
      <point x="611" y="968" type="line"/>
    </contour>
    <contour>
      <point x="107" y="968" type="line"/>
      <point x="185" y="1480" type="line"/>
      <point x="369" y="1480" type="line"/>
      <point x="267" y="968" type="line"/>
    </contour>
  </outline>
</glyph>
<glyph name="numbersign" format="2">
  <advance width="1498"/>
  <unicode hex="0023"/>
  <outline>
    <contour>
      <point x="87" y="440" type="line"/>
      <point x="115" y="600" type="line"/>
      <point x="1295" y="600" type="line"/>
      <point x="1267" y="440" type="line"/>
    </contour>
    <contour>
      <point x="203" y="880" type="line"/>
      <point x="231" y="1040" type="line"/>
      <point x="1411" y="1040" type="line"/>
      <point x="1383" y="880" type="line"/>
    </contour>
    <contour>
      <point x="1116" y="1480" type="line"/>
      <point x="1300" y="1480" type="line"/>
      <point x="846" y="0" type="line"/>
      <point x="789" y="0"/>
      <point x="719" y="0"/>
      <point x="662" y="0" type="curve"/>
    </contour>
    <contour>
      <point x="652" y="1480" type="line"/>
      <point x="836" y="1480" type="line"/>
      <point x="382" y="0" type="line"/>
      <point x="325" y="0"/>
      <point x="255" y="0"/>
      <point x="198" y="0" type="curve"/>
    </contour>
  </outline>
</glyph>
<glyph name="dollar" format="2">
  <advance width="1220"/>
  <unicode hex="0024"/>
  <outline>
    <contour>
      <point x="714" y="1332" type="curve" smooth="yes"/>
      <point x="504" y="1332"/>
      <point x="419" y="1212"/>
      <point x="396" y="1084" type="curve" smooth="yes"/>
      <point x="373" y="956"/>
      <point x="489" y="876"/>
      <point x="627" y="837" type="curve" smooth="yes"/>
      <point x="903" y="759"/>
      <point x="1105" y="656"/>
      <point x="1059" y="396" type="curve" smooth="yes"/>
      <point x="1013" y="136"/>
      <point x="782" y="-20"/>
      <point x="476" y="-20" type="curve" smooth="yes"/>
      <point x="195" y="-20"/>
      <point x="24" y="158"/>
      <point x="39" y="396" type="curve"/>
      <point x="234" y="446" type="line"/>
      <point x="206" y="289"/>
      <point x="305" y="148"/>
      <point x="506" y="148" type="curve" smooth="yes"/>
      <point x="726" y="148"/>
      <point x="844" y="255"/>
      <point x="869" y="396" type="curve" smooth="yes"/>
      <point x="894" y="537"/>
      <point x="779" y="601"/>
      <point x="595" y="653" type="curve" smooth="yes"/>
      <point x="319" y="731"/>
      <point x="165" y="854"/>
      <point x="206" y="1084" type="curve" smooth="yes"/>
      <point x="247" y="1314"/>
      <point x="453" y="1500"/>
      <point x="744" y="1500" type="curve" smooth="yes"/>
      <point x="1025" y="1500"/>
      <point x="1177" y="1332"/>
      <point x="1162" y="1094" type="curve"/>
      <point x="967" y="1044" type="line"/>
      <point x="995" y="1201"/>
      <point x="915" y="1332"/>
    </contour>
    <contour>
      <point x="848" y="1660" type="line"/>
      <point x="524" y="-180" type="line"/>
      <point x="372" y="-180" type="line"/>
      <point x="696" y="1660" type="line"/>
    </contour>
  </outline>
</glyph>
<glyph name="percent" format="2">
  <advance width="1634"/>
  <unicode hex="0025"/>
  <outline>
    <contour>
      <point x="656" y="1340" type="curve" smooth="yes"/>
      <point x="543" y="1340"/>
      <point x="485" y="1232"/>
      <point x="485" y="1141" type="curve" smooth="yes"/>
      <point x="485" y="1070"/>
      <point x="523" y="1020"/>
      <point x="600" y="1020" type="curve" smooth="yes"/>
      <point x="713" y="1020"/>
      <point x="772" y="1128"/>
      <point x="772" y="1219" type="curve" smooth="yes"/>
      <point x="772" y="1290"/>
      <point x="733" y="1340"/>
    </contour>
    <contour>
      <point x="303" y="1123" type="curve" smooth="yes"/>
      <point x="303" y="1320"/>
      <point x="482" y="1500"/>
      <point x="684" y="1500" type="curve" smooth="yes"/>
      <point x="843" y="1500"/>
      <point x="953" y="1387"/>
      <point x="953" y="1237" type="curve" smooth="yes"/>
      <point x="953" y="1040"/>
      <point x="774" y="860"/>
      <point x="572" y="860" type="curve" smooth="yes"/>
      <point x="413" y="860"/>
      <point x="303" y="973"/>
    </contour>
    <contour>
      <point x="1295" y="460" type="curve" smooth="yes"/>
      <point x="1182" y="460"/>
      <point x="1123" y="352"/>
      <point x="1123" y="261" type="curve" smooth="yes"/>
      <point x="1123" y="190"/>
      <point x="1162" y="140"/>
      <point x="1239" y="140" type="curve" smooth="yes"/>
      <point x="1352" y="140"/>
      <point x="1410" y="248"/>
      <point x="1410" y="339" type="curve" smooth="yes"/>
      <point x="1410" y="410"/>
      <point x="1372" y="460"/>
    </contour>
    <contour>
      <point x="942" y="243" type="curve" smooth="yes"/>
      <point x="942" y="440"/>
      <point x="1121" y="620"/>
      <point x="1323" y="620" type="curve" smooth="yes"/>
      <point x="1482" y="620"/>
      <point x="1592" y="507"/>
      <point x="1592" y="357" type="curve" smooth="yes"/>
      <point x="1592" y="160"/>
      <point x="1412" y="-20"/>
      <point x="1210" y="-20" type="curve" smooth="yes"/>
      <point x="1051" y="-20"/>
      <point x="942" y="93"/>
    </contour>
    <contour>
      <point x="1581" y="1395" type="line"/>
      <point x="438" y="0" type="line"/>
      <point x="306" y="85" type="line"/>
      <point x="1449" y="1480" type="line"/>
    </contour>
  </outline>
</glyph>
<glyph name="ampersand" format="2">
  <advance width="1355"/>
  <unicode hex="0026"/>
  <outline>
    <contour>
      <point x="342" y="885" type="line"/>
      <point x="299" y="960"/>
      <point x="278" y="1026"/>
      <point x="296" y="1128" type="curve" smooth="yes"/>
      <point x="335" y="1347"/>
      <point x="534" y="1500"/>
      <point x="734" y="1500" type="curve" smooth="yes"/>
      <point x="934" y="1500"/>
      <point x="1083" y="1372"/>
      <point x="1048" y="1172" type="curve"/>
      <point x="865" y="1152" type="line"/>
      <point x="883" y="1252"/>
      <point x="826" y="1340"/>
      <point x="706" y="1340" type="curve" smooth="yes"/>
      <point x="598" y="1340"/>
      <point x="501" y="1268"/>
      <point x="476" y="1128" type="curve" smooth="yes"/>
      <point x="465" y="1068"/>
      <point x="472" y="1023"/>
      <point x="501" y="976" type="curve"/>
      <point x="1125" y="0" type="line"/>
      <point x="1054" y="0"/>
      <point x="982" y="0"/>
      <point x="911" y="0" type="curve"/>
    </contour>
    <contour>
      <point x="224" y="418" type="curve"/>
      <point x="196" y="262"/>
      <point x="294" y="140"/>
      <point x="494" y="140" type="curve" smooth="yes"/>
      <point x="794" y="140"/>
      <point x="964" y="420"/>
      <point x="999" y="620" type="curve"/>
      <point x="1162" y="573" type="line"/>
      <point x="1092" y="288"/>
      <point x="886" y="-20"/>
      <point x="466" y="-20" type="curve" smooth="yes"/>
      <point x="166" y="-20"/>
      <point x="0" y="175"/>
      <point x="43" y="418" type="curve" smooth="yes"/>
      <point x="86" y="661"/>
      <point x="347" y="776"/>
      <point x="633" y="926" type="curve" smooth="yes"/>
      <point x="776" y="1001"/>
      <point x="847" y="1052"/>
      <point x="865" y="1152" type="curve"/>
      <point x="1048" y="1172" type="line"/>
      <point x="1013" y="972"/>
      <point x="819" y="855"/>
      <point x="600" y="740" type="curve" smooth="yes"/>
      <point x="409" y="640"/>
      <point x="249" y="561"/>
    </contour>
  </outline>
</glyph>
<glyph name="quotesingle" format="2">
  <advance width="464"/>
  <unicode hex="0027"/>
  <outline>
    <contour>
      <point x="107" y="968" type="line"/>
      <point x="185" y="1480" type="line"/>
      <point x="369" y="1480" type="line"/>
      <point x="267" y="968" type="line"/>
    </contour>
  </outline>
</glyph>
<glyph name="parenleft" format="2">
  <advance width="818"/>
  <unicode hex="0028"/>
  <outline>
    <contour>
      <point x="905" y="1515" type="line"/>
      <point x="709" y="1448"/>
      <point x="249" y="1057"/>
      <point x="249" y="470" type="curve" smooth="yes"/>
      <point x="249" y="55"/>
      <point x="511" y="-159"/>
      <point x="604" y="-195" type="curve"/>
      <point x="494" y="-340" type="line"/>
      <point x="371" y="-292"/>
      <point x="68" y="-19"/>
      <point x="68" y="453" type="curve" smooth="yes"/>
      <point x="68" y="1124"/>
      <point x="625" y="1584"/>
      <point x="847" y="1660" type="curve"/>
    </contour>
  </outline>
</glyph>
<glyph name="parenright" format="2">
  <advance width="818"/>
  <unicode hex="0029"/>
  <outline>
    <contour>
      <point x="-114" y="-195" type="line"/>
      <point x="82" y="-128"/>
      <point x="542" y="263"/>
      <point x="542" y="850" type="curve" smooth="yes"/>
      <point x="542" y="1265"/>
      <point x="280" y="1479"/>
      <point x="187" y="1515" type="curve"/>
      <point x="297" y="1660" type="line"/>
      <point x="420" y="1612"/>
      <point x="723" y="1339"/>
      <point x="723" y="867" type="curve" smooth="yes"/>
      <point x="723" y="196"/>
      <point x="166" y="-264"/>
      <point x="-56" y="-340" type="curve"/>
    </contour>
  </outline>
</glyph>
<glyph name="asterisk" format="2">
  <advance width="1036"/>
  <unicode hex="002A"/>
  <outline>
    <contour>
      <point x="105" y="1109" type="line"/>
      <point x="192" y="1284" type="line"/>
      <point x="554" y="1146" type="line"/>
      <point x="516" y="1070" type="line"/>
      <point x="477" y="994" type="line"/>
    </contour>
    <contour>
      <point x="281" y="684" type="line"/>
      <point x="152" y="792" type="line"/>
      <point x="459" y="1117" type="line"/>
      <point x="516" y="1070" type="line"/>
      <point x="573" y="1023" type="line"/>
    </contour>
    <contour>
      <point x="782" y="792" type="line"/>
      <point x="615" y="684" type="line"/>
      <point x="443" y="1023" type="line"/>
      <point x="516" y="1070" type="line"/>
      <point x="589" y="1117" type="line"/>
    </contour>
    <contour>
      <point x="916" y="1284" type="line"/>
      <point x="941" y="1109" type="line"/>
      <point x="527" y="994" type="line"/>
      <point x="516" y="1070" type="line"/>
      <point x="504" y="1146" type="line"/>
    </contour>
    <contour>
      <point x="496" y="1480" type="line"/>
      <point x="680" y="1480" type="line"/>
      <point x="596" y="1070" type="line"/>
      <point x="516" y="1070" type="line"/>
      <point x="436" y="1070" type="line"/>
    </contour>
  </outline>
</glyph>
<glyph name="plus" format="2">
  <advance width="1232"/>
  <unicode hex="002B"/>
  <outline>
    <contour>
      <point x="610" y="1136" type="line"/>
      <point x="790" y="1136" type="line"/>
      <point x="622" y="184" type="line"/>
      <point x="442" y="184" type="line"/>
    </contour>
    <contour>
      <point x="126" y="580" type="line"/>
      <point x="154" y="740" type="line"/>
      <point x="1106" y="740" type="line"/>
      <point x="1078" y="580" type="line"/>
    </contour>
  </outline>
</glyph>
<glyph name="comma" format="2">
  <advance width="500"/>
  <unicode hex="002C"/>
  <outline>
    <contour>
      <point x="123" y="108" type="curve" smooth="yes"/>
      <point x="123" y="180"/>
      <point x="179" y="236"/>
      <point x="251" y="236" type="curve" smooth="yes"/>
      <point x="321" y="236"/>
      <point x="379" y="160"/>
      <point x="379" y="108" type="curve" smooth="yes"/>
      <point x="379" y="36"/>
      <point x="323" y="-20"/>
      <point x="251" y="-20" type="curve" smooth="yes"/>
      <point x="179" y="-20"/>
      <point x="123" y="36"/>
    </contour>
    <contour>
      <point x="71" y="-161" type="line"/>
      <point x="204" y="-132"/>
      <point x="251" y="-16"/>
      <point x="251" y="28" type="curve" smooth="yes"/>
      <point x="251" y="58"/>
      <point x="229" y="108"/>
      <point x="229" y="108" type="curve"/>
      <point x="251" y="236" type="line"/>
      <point x="311" y="236"/>
      <point x="383" y="192"/>
      <point x="383" y="85" type="curve" smooth="yes"/>
      <point x="383" y="-151"/>
      <point x="156" y="-257"/>
      <point x="80" y="-276" type="curve"/>
    </contour>
  </outline>
</glyph>
<glyph name="hyphen" format="2">
  <advance width="1028"/>
  <unicode hex="002D"/>
  <outline>
    <contour>
      <point x="126" y="580" type="line"/>
      <point x="154" y="740" type="line"/>
      <point x="902" y="740" type="line"/>
      <point x="874" y="580" type="line"/>
    </contour>
  </outline>
</glyph>
<glyph name="period" format="2">
  <advance width="500"/>
  <unicode hex="002E"/>
  <outline>
    <contour>
      <point x="141" y="108" type="curve" smooth="yes"/>
      <point x="141" y="180"/>
      <point x="197" y="236"/>
      <point x="269" y="236" type="curve" smooth="yes"/>
      <point x="341" y="236"/>
      <point x="397" y="180"/>
      <point x="397" y="108" type="curve" smooth="yes"/>
      <point x="397" y="36"/>
      <point x="341" y="-20"/>
      <point x="269" y="-20" type="curve" smooth="yes"/>
      <point x="197" y="-20"/>
      <point x="141" y="36"/>
    </contour>
  </outline>
</glyph>
<glyph name="slash" format="2">
  <advance width="964"/>
  <unicode hex="002F"/>
  <outline>
    <contour>
      <point x="1183" y="1640" type="line"/>
      <point x="225" y="-200" type="line"/>
      <point x="35" y="-200" type="line"/>
      <point x="993" y="1640" type="line"/>
    </contour>
  </outline>
</glyph>
<glyph name="zero" format="2">
  <advance width="1232"/>
  <unicode hex="0030"/>
  <outline>
    <contour>
      <point x="851" y="1332" type="curve" smooth="yes"/>
      <point x="510" y="1332"/>
      <point x="402" y="750"/>
      <point x="402" y="504" type="curve" smooth="yes"/>
      <point x="402" y="264"/>
      <point x="493" y="148"/>
      <point x="642" y="148" type="curve" smooth="yes"/>
      <point x="983" y="148"/>
      <point x="1091" y="730"/>
      <point x="1091" y="976" type="curve" smooth="yes"/>
      <point x="1091" y="1216"/>
      <point x="1000" y="1332"/>
    </contour>
    <contour>
      <point x="212" y="491" type="curve" smooth="yes"/>
      <point x="212" y="876"/>
      <point x="401" y="1500"/>
      <point x="880" y="1500" type="curve" smooth="yes"/>
      <point x="1125" y="1500"/>
      <point x="1281" y="1326"/>
      <point x="1281" y="989" type="curve" smooth="yes"/>
      <point x="1281" y="604"/>
      <point x="1091" y="-20"/>
      <point x="612" y="-20" type="curve" smooth="yes"/>
      <point x="367" y="-20"/>
      <point x="212" y="154"/>
    </contour>
  </outline>
</glyph>
<glyph name="one" format="2">
  <advance width="1232"/>
  <unicode hex="0031"/>
  <outline>
    <contour>
      <point x="631" y="1026" type="line"/>
      <point x="315" y="1026" type="line"/>
      <point x="343" y="1184" type="line"/>
      <point x="423" y="1184" type="line" smooth="yes"/>
      <point x="551" y="1184"/>
      <point x="688" y="1280"/>
      <point x="711" y="1408" type="curve" smooth="yes"/>
      <point x="723" y="1480" type="line"/>
      <point x="901" y="1480" type="line"/>
      <point x="824" y="1040" type="line"/>
      <point x="641" y="0" type="line"/>
      <point x="451" y="0" type="line"/>
    </contour>
  </outline>
</glyph>
<glyph name="two" format="2">
  <advance width="1232"/>
  <unicode hex="0032"/>
  <outline>
    <contour>
      <point x="356" y="949" type="curve"/>
      <point x="172" y="1000" type="line"/>
      <point x="225" y="1300"/>
      <point x="468" y="1500"/>
      <point x="748" y="1500" type="curve" smooth="yes"/>
      <point x="1028" y="1500"/>
      <point x="1204" y="1320"/>
      <point x="1155" y="1040" type="curve"/>
      <point x="965" y="1040" type="line"/>
      <point x="997" y="1220"/>
      <point x="899" y="1332"/>
      <point x="719" y="1332" type="curve" smooth="yes"/>
      <point x="539" y="1332"/>
      <point x="394" y="1180"/>
      <point x="362" y="1000" type="curve" smooth="yes"/>
      <point x="359" y="982"/>
      <point x="357" y="966"/>
    </contour>
    <contour>
      <point x="-12" y="0" type="curve"/>
      <point x="16" y="160"/>
      <point x="68" y="388"/>
      <point x="602" y="668" type="curve" smooth="yes"/>
      <point x="774" y="758"/>
      <point x="933" y="860"/>
      <point x="965" y="1040" type="curve"/>
      <point x="1155" y="1040" type="line"/>
      <point x="1104" y="749"/>
      <point x="833" y="608"/>
      <point x="566" y="468" type="curve" smooth="yes"/>
      <point x="232" y="293"/>
      <point x="194" y="90"/>
      <point x="178" y="0" type="curve"/>
      <point x="122" y="0"/>
      <point x="44" y="0"/>
    </contour>
    <contour>
      <point x="109" y="168" type="line"/>
      <point x="1009" y="168" type="line"/>
      <point x="980" y="0" type="line"/>
      <point x="178" y="0" type="line"/>
    </contour>
  </outline>
</glyph>
<glyph name="three" format="2">
  <advance width="1232"/>
  <unicode hex="0033"/>
  <outline>
    <contour>
      <point x="635" y="856" type="line" smooth="yes"/>
      <point x="810" y="856"/>
      <point x="930" y="957"/>
      <point x="954" y="1094" type="curve" smooth="yes"/>
      <point x="978" y="1231"/>
      <point x="894" y="1332"/>
      <point x="719" y="1332" type="curve" smooth="yes"/>
      <point x="544" y="1332"/>
      <point x="418" y="1207"/>
      <point x="394" y="1070" type="curve"/>
      <point x="216" y="1120" type="line"/>
      <point x="277" y="1321"/>
      <point x="474" y="1500"/>
      <point x="749" y="1500" type="curve" smooth="yes"/>
      <point x="1024" y="1500"/>
      <point x="1184" y="1320"/>
      <point x="1145" y="1098" type="curve" smooth="yes"/>
      <point x="1122" y="969"/>
      <point x="1038" y="854"/>
      <point x="917" y="781" type="curve"/>
      <point x="1038" y="702"/>
      <point x="1097" y="570"/>
      <point x="1070" y="418" type="curve" smooth="yes"/>
      <point x="1027" y="175"/>
      <point x="781" y="-20"/>
      <point x="481" y="-20" type="curve" smooth="yes"/>
      <point x="200" y="-20"/>
      <point x="29" y="158"/>
      <point x="44" y="396" type="curve"/>
      <point x="240" y="446" type="line"/>
      <point x="212" y="290"/>
      <point x="311" y="148"/>
      <point x="511" y="148" type="curve" smooth="yes"/>
      <point x="711" y="148"/>
      <point x="853" y="266"/>
      <point x="881" y="422" type="curve" smooth="yes"/>
      <point x="909" y="578"/>
      <point x="807" y="696"/>
      <point x="607" y="696" type="curve" smooth="yes"/>
      <point x="512" y="696" type="line"/>
      <point x="540" y="856" type="line"/>
    </contour>
  </outline>
</glyph>
<glyph name="five" format="2">
  <advance width="1232"/>
  <unicode hex="0035"/>
  <outline>
    <contour>
      <point x="510" y="148" type="curve" smooth="yes"/>
      <point x="731" y="148"/>
      <point x="899" y="340"/>
      <point x="899" y="553" type="curve" smooth="yes"/>
      <point x="899" y="717"/>
      <point x="786" y="818"/>
      <point x="629" y="818" type="curve" smooth="yes"/>
      <point x="473" y="818"/>
      <point x="379" y="763"/>
      <point x="306" y="668" type="curve"/>
      <point x="199" y="701" type="line"/>
      <point x="314" y="858"/>
      <point x="426" y="986"/>
      <point x="659" y="986" type="curve" smooth="yes"/>
      <point x="910" y="986"/>
      <point x="1090" y="818"/>
      <point x="1090" y="575" type="curve" smooth="yes"/>
      <point x="1090" y="258"/>
      <point x="805" y="-20"/>
      <point x="480" y="-20" type="curve" smooth="yes"/>
      <point x="210" y="-20"/>
      <point x="43" y="144"/>
      <point x="43" y="367" type="curve" smooth="yes"/>
      <point x="43" y="376"/>
      <point x="43" y="386"/>
      <point x="44" y="396" type="curve"/>
      <point x="240" y="446" type="line"/>
      <point x="237" y="429"/>
      <point x="235" y="412"/>
      <point x="235" y="395" type="curve" smooth="yes"/>
      <point x="235" y="260"/>
      <point x="332" y="148"/>
    </contour>
    <contour>
      <point x="320" y="751" type="line"/>
      <point x="199" y="701" type="line"/>
      <point x="136" y="720" type="line"/>
      <point x="378" y="1480" type="line"/>
      <point x="558" y="1480" type="line"/>
    </contour>
    <contour>
      <point x="412" y="1312" type="line"/>
      <point x="558" y="1480" type="line"/>
      <point x="1186" y="1480" type="line"/>
      <point x="1156" y="1312" type="line"/>
    </contour>
  </outline>
</glyph>
<glyph name="six" format="2">
  <advance width="1232"/>
  <unicode hex="0036"/>
  <outline>
    <contour>
      <point x="890" y="1500" type="curve" smooth="yes"/>
      <point x="1100" y="1500"/>
      <point x="1200" y="1380"/>
      <point x="1200" y="1380" type="curve"/>
      <point x="1086" y="1227" type="line"/>
      <point x="1086" y="1227"/>
      <point x="1016" y="1332"/>
      <point x="821" y="1332" type="curve" smooth="yes"/>
      <point x="597" y="1332"/>
      <point x="350" y="1096"/>
      <point x="279" y="696" type="curve" smooth="yes"/>
      <point x="216" y="336"/>
      <point x="293" y="282"/>
      <point x="293" y="282" type="curve"/>
      <point x="133" y="200" type="line"/>
      <point x="133" y="200"/>
      <point x="39" y="366"/>
      <point x="97" y="696" type="curve" smooth="yes"/>
      <point x="189" y="1216"/>
      <point x="530" y="1500"/>
    </contour>
    <contour>
      <point x="276" y="486" type="curve" smooth="yes"/>
      <point x="240" y="282"/>
      <point x="347" y="148"/>
      <point x="525" y="148" type="curve" smooth="yes"/>
      <point x="703" y="148"/>
      <point x="856" y="282"/>
      <point x="892" y="486" type="curve" smooth="yes"/>
      <point x="928" y="690"/>
      <point x="822" y="824"/>
      <point x="644" y="824" type="curve" smooth="yes"/>
      <point x="466" y="824"/>
      <point x="312" y="690"/>
    </contour>
    <contour>
      <point x="108" y="486" type="curve"/>
      <point x="180" y="486" type="line"/>
      <point x="230" y="769"/>
      <point x="382" y="992"/>
      <point x="673" y="992" type="curve" smooth="yes"/>
      <point x="964" y="992"/>
      <point x="1133" y="777"/>
      <point x="1082" y="486" type="curve" smooth="yes"/>
      <point x="1031" y="195"/>
      <point x="786" y="-20"/>
      <point x="495" y="-20" type="curve" smooth="yes"/>
      <point x="204" y="-20"/>
      <point x="57" y="195"/>
    </contour>
  </outline>
</glyph>
<glyph name="eight" format="2">
  <advance width="1232"/>
  <unicode hex="0038"/>
  <outline>
    <contour>
      <point x="1069" y="418" type="curve" smooth="yes"/>
      <point x="1112" y="661"/>
      <point x="955" y="846"/>
      <point x="635" y="846" type="curve" smooth="yes"/>
      <point x="315" y="846"/>
      <point x="92" y="661"/>
      <point x="49" y="418" type="curve" smooth="yes"/>
      <point x="6" y="175"/>
      <point x="182" y="-20"/>
      <point x="482" y="-20" type="curve" smooth="yes"/>
      <point x="782" y="-20"/>
      <point x="1026" y="175"/>
    </contour>
    <contour>
      <point x="240" y="422" type="curve" smooth="yes"/>
      <point x="267" y="575"/>
      <point x="408" y="696"/>
      <point x="608" y="696" type="curve" smooth="yes"/>
      <point x="808" y="696"/>
      <point x="907" y="575"/>
      <point x="880" y="422" type="curve" smooth="yes"/>
      <point x="853" y="269"/>
      <point x="712" y="148"/>
      <point x="512" y="148" type="curve" smooth="yes"/>
      <point x="312" y="148"/>
      <point x="213" y="269"/>
    </contour>
    <contour>
      <point x="1145" y="1090" type="curve" smooth="yes"/>
      <point x="1186" y="1321"/>
      <point x="1025" y="1500"/>
      <point x="750" y="1500" type="curve" smooth="yes"/>
      <point x="475" y="1500"/>
      <point x="252" y="1321"/>
      <point x="211" y="1090" type="curve" smooth="yes"/>
      <point x="172" y="867"/>
      <point x="335" y="706"/>
      <point x="610" y="706" type="curve" smooth="yes"/>
      <point x="885" y="706"/>
      <point x="1106" y="867"/>
    </contour>
    <contour>
      <point x="401" y="1094" type="curve" smooth="yes"/>
      <point x="425" y="1231"/>
      <point x="545" y="1332"/>
      <point x="720" y="1332" type="curve" smooth="yes"/>
      <point x="895" y="1332"/>
      <point x="979" y="1231"/>
      <point x="955" y="1094" type="curve" smooth="yes"/>
      <point x="931" y="957"/>
      <point x="811" y="856"/>
      <point x="636" y="856" type="curve" smooth="yes"/>
      <point x="461" y="856"/>
      <point x="377" y="957"/>
    </contour>
  </outline>
</glyph>
<glyph name="nine" format="2">
  <advance width="1232"/>
  <unicode hex="0039"/>
  <outline>
    <contour>
      <point x="342" y="-20" type="curve" smooth="yes"/>
      <point x="132" y="-20"/>
      <point x="32" y="100"/>
      <point x="32" y="100" type="curve"/>
      <point x="146" y="253" type="line"/>
      <point x="146" y="253"/>
      <point x="216" y="148"/>
      <point x="411" y="148" type="curve" smooth="yes"/>
      <point x="635" y="148"/>
      <point x="882" y="384"/>
      <point x="953" y="784" type="curve" smooth="yes"/>
      <point x="1016" y="1144"/>
      <point x="939" y="1198"/>
      <point x="939" y="1198" type="curve"/>
      <point x="1099" y="1280" type="line"/>
      <point x="1099" y="1280"/>
      <point x="1193" y="1114"/>
      <point x="1135" y="784" type="curve" smooth="yes"/>
      <point x="1043" y="264"/>
      <point x="702" y="-20"/>
    </contour>
    <contour>
      <point x="956" y="994" type="curve" smooth="yes"/>
      <point x="992" y="1198"/>
      <point x="885" y="1332"/>
      <point x="707" y="1332" type="curve" smooth="yes"/>
      <point x="529" y="1332"/>
      <point x="376" y="1198"/>
      <point x="340" y="994" type="curve" smooth="yes"/>
      <point x="304" y="790"/>
      <point x="410" y="656"/>
      <point x="588" y="656" type="curve" smooth="yes"/>
      <point x="766" y="656"/>
      <point x="920" y="790"/>
    </contour>
    <contour>
      <point x="1124" y="994" type="curve"/>
      <point x="1052" y="994" type="line"/>
      <point x="1002" y="711"/>
      <point x="850" y="488"/>
      <point x="559" y="488" type="curve" smooth="yes"/>
      <point x="268" y="488"/>
      <point x="99" y="703"/>
      <point x="150" y="994" type="curve" smooth="yes"/>
      <point x="201" y="1285"/>
      <point x="446" y="1500"/>
      <point x="737" y="1500" type="curve" smooth="yes"/>
      <point x="1028" y="1500"/>
      <point x="1175" y="1285"/>
    </contour>
  </outline>
</glyph>
<glyph name="colon" format="2">
  <advance width="500"/>
  <unicode hex="003A"/>
  <outline>
    <contour>
      <point x="286" y="931" type="curve" smooth="yes"/>
      <point x="286" y="1003"/>
      <point x="342" y="1059"/>
      <point x="414" y="1059" type="curve" smooth="yes"/>
      <point x="486" y="1059"/>
      <point x="542" y="1003"/>
      <point x="542" y="931" type="curve" smooth="yes"/>
      <point x="542" y="859"/>
      <point x="487" y="803"/>
      <point x="415" y="803" type="curve" smooth="yes"/>
      <point x="343" y="803"/>
      <point x="286" y="859"/>
    </contour>
    <contour>
      <point x="141" y="108" type="curve" smooth="yes"/>
      <point x="141" y="180"/>
      <point x="197" y="236"/>
      <point x="269" y="236" type="curve" smooth="yes"/>
      <point x="341" y="236"/>
      <point x="397" y="180"/>
      <point x="397" y="108" type="curve" smooth="yes"/>
      <point x="397" y="36"/>
      <point x="341" y="-20"/>
      <point x="269" y="-20" type="curve" smooth="yes"/>
      <point x="197" y="-20"/>
      <point x="141" y="36"/>
    </contour>
  </outline>
</glyph>
<glyph name="semicolon" format="2">
  <advance width="500"/>
  <unicode hex="003B"/>
  <outline>
    <contour>
      <point x="156" y="931" type="curve" smooth="yes"/>
      <point x="156" y="1003"/>
      <point x="212" y="1059"/>
      <point x="284" y="1059" type="curve" smooth="yes"/>
      <point x="356" y="1059"/>
      <point x="412" y="1003"/>
      <point x="412" y="931" type="curve" smooth="yes"/>
      <point x="412" y="859"/>
      <point x="357" y="803"/>
      <point x="285" y="803" type="curve" smooth="yes"/>
      <point x="213" y="803"/>
      <point x="156" y="859"/>
    </contour>
    <contour>
      <point x="-7" y="108" type="curve" smooth="yes"/>
      <point x="-7" y="180"/>
      <point x="49" y="236"/>
      <point x="121" y="236" type="curve" smooth="yes"/>
      <point x="191" y="236"/>
      <point x="249" y="180"/>
      <point x="249" y="108" type="curve" smooth="yes"/>
      <point x="249" y="36"/>
      <point x="193" y="-20"/>
      <point x="121" y="-20" type="curve" smooth="yes"/>
      <point x="49" y="-20"/>
      <point x="-7" y="36"/>
    </contour>
    <contour>
      <point x="-59" y="-161" type="line"/>
      <point x="74" y="-132"/>
      <point x="121" y="-16"/>
      <point x="121" y="28" type="curve" smooth="yes"/>
      <point x="121" y="58"/>
      <point x="99" y="108"/>
      <point x="99" y="108" type="curve"/>
      <point x="121" y="236" type="line"/>
      <point x="181" y="236"/>
      <point x="253" y="192"/>
      <point x="253" y="85" type="curve" smooth="yes"/>
      <point x="253" y="-151"/>
      <point x="26" y="-257"/>
      <point x="-50" y="-276" type="curve"/>
    </contour>
  </outline>
</glyph>
<glyph name="less" format="2">
  <advance width="1232"/>
  <unicode hex="003C"/>
  <outline>
    <contour>
      <point x="125" y="576" type="line"/>
      <point x="155" y="744" type="line"/>
      <point x="1173" y="1122" type="line"/>
      <point x="1143" y="950" type="line"/>
      <point x="350" y="660" type="line"/>
      <point x="1041" y="370" type="line"/>
      <point x="1011" y="198" type="line"/>
    </contour>
  </outline>
</glyph>
<glyph name="equal" format="2">
  <advance width="1232"/>
  <unicode hex="003D"/>
  <outline>
    <contour>
      <point x="1124" y="920" type="line"/>
      <point x="1096" y="760" type="line"/>
      <point x="144" y="760" type="line"/>
      <point x="172" y="920" type="line"/>
    </contour>
    <contour>
      <point x="81" y="400" type="line"/>
      <point x="109" y="560" type="line"/>
      <point x="1061" y="560" type="line"/>
      <point x="1033" y="400" type="line"/>
    </contour>
  </outline>
</glyph>
<glyph name="greater" format="2">
  <advance width="1232"/>
  <unicode hex="003E"/>
  <outline>
    <contour>
      <point x="1077" y="576" type="line"/>
      <point x="59" y="198" type="line"/>
      <point x="89" y="370" type="line"/>
      <point x="882" y="660" type="line"/>
      <point x="191" y="950" type="line"/>
      <point x="221" y="1122" type="line"/>
      <point x="1107" y="744" type="line"/>
    </contour>
  </outline>
</glyph>
<glyph name="question" format="2">
  <advance width="1144"/>
  <unicode hex="003F"/>
  <outline>
    <contour>
      <point x="709" y="776" type="line"/>
      <point x="945" y="776"/>
      <point x="1055" y="956"/>
      <point x="1055" y="1113" type="curve" smooth="yes"/>
      <point x="1055" y="1243"/>
      <point x="973" y="1340"/>
      <point x="808" y="1340" type="curve" smooth="yes"/>
      <point x="581" y="1340"/>
      <point x="457" y="1130"/>
      <point x="457" y="978" type="curve"/>
      <point x="282" y="1032" type="line"/>
      <point x="330" y="1302"/>
      <point x="566" y="1500"/>
      <point x="836" y="1500" type="curve" smooth="yes"/>
      <point x="1076" y="1500"/>
      <point x="1238" y="1362"/>
      <point x="1238" y="1142" type="curve" smooth="yes"/>
      <point x="1238" y="846"/>
      <point x="980" y="608"/>
      <point x="679" y="608" type="curve"/>
    </contour>
    <contour>
      <point x="458" y="108" type="curve" smooth="yes"/>
      <point x="458" y="180"/>
      <point x="514" y="236"/>
      <point x="586" y="236" type="curve" smooth="yes"/>
      <point x="658" y="236"/>
      <point x="714" y="180"/>
      <point x="714" y="108" type="curve" smooth="yes"/>
      <point x="714" y="36"/>
      <point x="658" y="-20"/>
      <point x="586" y="-20" type="curve" smooth="yes"/>
      <point x="514" y="-20"/>
      <point x="458" y="36"/>
    </contour>
    <contour>
      <point x="562" y="452" type="line"/>
      <point x="619" y="776" type="line"/>
      <point x="799" y="776" type="line"/>
      <point x="742" y="452" type="line"/>
    </contour>
  </outline>
</glyph>
<glyph name="at" format="2">
  <advance width="2000"/>
  <unicode hex="0040"/>
  <outline>
    <contour>
      <point x="1000" y="1500" type="curve" smooth="yes"/>
      <point x="1520" y="1500"/>
      <point x="1900" y="1180"/>
      <point x="1900" y="660" type="curve"/>
      <point x="1720" y="660" type="line"/>
      <point x="1720" y="1080"/>
      <point x="1420" y="1340"/>
      <point x="1000" y="1340" type="curve" smooth="yes"/>
      <point x="580" y="1340"/>
      <point x="280" y="1000"/>
      <point x="280" y="580" type="curve" smooth="yes"/>
      <point x="280" y="160"/>
      <point x="580" y="-180"/>
      <point x="1000" y="-180" type="curve" smooth="yes"/>
      <point x="1187" y="-180"/>
      <point x="1423" y="-112"/>
      <point x="1547" y="0" type="curve"/>
      <point x="1635" y="-149" type="line"/>
      <point x="1484" y="-268"/>
      <point x="1218" y="-340"/>
      <point x="1000" y="-340" type="curve" smooth="yes"/>
      <point x="480" y="-340"/>
      <point x="100" y="60"/>
      <point x="100" y="580" type="curve" smooth="yes"/>
      <point x="100" y="1100"/>
      <point x="480" y="1500"/>
    </contour>
    <contour>
      <point x="1023" y="852" type="curve" smooth="yes"/>
      <point x="873" y="852"/>
      <point x="771" y="757"/>
      <point x="746" y="580" type="curve" smooth="yes"/>
      <point x="743" y="558"/>
      <point x="741" y="537"/>
      <point x="741" y="517" type="curve" smooth="yes"/>
      <point x="741" y="381"/>
      <point x="815" y="307"/>
      <point x="946" y="307" type="curve" smooth="yes"/>
      <point x="1096" y="307"/>
      <point x="1199" y="403"/>
      <point x="1224" y="580" type="curve" smooth="yes"/>
      <point x="1227" y="602"/>
      <point x="1229" y="623"/>
      <point x="1229" y="643" type="curve" smooth="yes"/>
      <point x="1229" y="779"/>
      <point x="1154" y="852"/>
    </contour>
    <contour>
      <point x="1045" y="1012" type="curve" smooth="yes"/>
      <point x="1145" y="1012"/>
      <point x="1215" y="957"/>
      <point x="1264" y="900" type="curve"/>
      <point x="1278" y="996" type="line"/>
      <point x="1444" y="996" type="line"/>
      <point x="1386" y="580" type="line" smooth="yes"/>
      <point x="1344" y="283"/>
      <point x="1174" y="148"/>
      <point x="924" y="148" type="curve" smooth="yes"/>
      <point x="699" y="148"/>
      <point x="561" y="308"/>
      <point x="561" y="522" type="curve" smooth="yes"/>
      <point x="561" y="546"/>
      <point x="562" y="571"/>
      <point x="566" y="596" type="curve" smooth="yes"/>
      <point x="601" y="846"/>
      <point x="795" y="1012"/>
    </contour>
    <contour>
      <point x="1474" y="148" type="curve" smooth="yes"/>
      <point x="1299" y="148"/>
      <point x="1213" y="241"/>
      <point x="1213" y="443" type="curve" smooth="yes"/>
      <point x="1213" y="484"/>
      <point x="1217" y="530"/>
      <point x="1224" y="580" type="curve"/>
      <point x="1386" y="580" type="line"/>
      <point x="1378" y="525"/>
      <point x="1372" y="477"/>
      <point x="1372" y="438" type="curve" smooth="yes"/>
      <point x="1372" y="352"/>
      <point x="1411" y="307"/>
      <point x="1507" y="307" type="curve" smooth="yes"/>
      <point x="1647" y="307"/>
      <point x="1720" y="441"/>
      <point x="1720" y="660" type="curve"/>
      <point x="1900" y="660" type="line"/>
      <point x="1900" y="360"/>
      <point x="1714" y="148"/>
    </contour>
  </outline>
</glyph>
<glyph name="A" format="2">
  <advance width="1356"/>
  <unicode hex="0041"/>
  <anchor x="1184" y="-20" name="bottom_cedilla"/>
  <anchor x="493" y="1040" name="greek_v"/>
  <anchor x="249" y="1040" name="greek_kt"/>
  <anchor x="415" y="1040" name="greek_k"/>
  <anchor x="289" y="1040" name="greek_t"/>
  <anchor x="1286" y="0" name="bottom_right"/>
  <anchor x="921" y="1380" name="top_center"/>
  <anchor x="678" y="0" name="bottom_center"/>
  <anchor x="662" y="-90" name="bottom_ypogegrammeni"/>
  <outline>
    <contour>
      <point x="411" y="604" type="line"/>
      <point x="1137" y="604" type="line"/>
      <point x="1107" y="436" type="line"/>
      <point x="381" y="436" type="line"/>
    </contour>
    <contour>
      <point x="895" y="1230" type="line"/>
      <point x="266" y="0" type="line"/>
      <point x="70" y="0" type="line"/>
      <point x="841" y="1480" type="line"/>
      <point x="1037" y="1480" type="line"/>
      <point x="1286" y="0" type="line"/>
      <point x="1090" y="0" type="line"/>
    </contour>
  </outline>
</glyph>
<glyph name="B" format="2">
  <advance width="1328"/>
  <unicode hex="0042"/>
  <anchor x="871" y="1380" name="top_center"/>
  <anchor x="628" y="0" name="bottom_center"/>
  <outline>
    <contour>
      <point x="1310" y="504" type="curve" smooth="yes"/>
      <point x="1310" y="232"/>
      <point x="1055" y="0"/>
      <point x="718" y="0" type="curve" smooth="yes"/>
      <point x="140" y="0" type="line"/>
      <point x="401" y="1480" type="line"/>
      <point x="973" y="1480" type="line" smooth="yes"/>
      <point x="1221" y="1480"/>
      <point x="1381" y="1343"/>
      <point x="1381" y="1147" type="curve" smooth="yes"/>
      <point x="1381" y="905"/>
      <point x="1161" y="706"/>
      <point x="842" y="706" type="curve"/>
      <point x="869" y="856" type="line"/>
      <point x="1092" y="856"/>
      <point x="1190" y="1000"/>
      <point x="1190" y="1126" type="curve" smooth="yes"/>
      <point x="1190" y="1239"/>
      <point x="1100" y="1312"/>
      <point x="943" y="1312" type="curve" smooth="yes"/>
      <point x="561" y="1312" type="line"/>
      <point x="481" y="856" type="line"/>
      <point x="869" y="856" type="line"/>
      <point x="841" y="696" type="line"/>
      <point x="453" y="696" type="line"/>
      <point x="360" y="168" type="line"/>
      <point x="748" y="168" type="line" smooth="yes"/>
      <point x="988" y="168"/>
      <point x="1118" y="324"/>
      <point x="1118" y="480" type="curve" smooth="yes"/>
      <point x="1118" y="608"/>
      <point x="1020" y="696"/>
      <point x="841" y="696" type="curve"/>
      <point x="867" y="846" type="line"/>
      <point x="1153" y="846"/>
      <point x="1310" y="707"/>
    </contour>
  </outline>
</glyph>
<glyph name="C" format="2">
  <advance width="1514"/>
  <unicode hex="0043"/>
  <anchor x="1044" y="1380" name="top_center"/>
  <anchor x="801" y="0" name="bottom_center"/>
  <anchor x="797" y="-20" name="bottom_cedilla"/>
  <outline>
    <contour>
      <point x="216" y="584" type="curve" smooth="yes"/>
      <point x="216" y="1058"/>
      <point x="596" y="1500"/>
      <point x="1065" y="1500" type="curve" smooth="yes"/>
      <point x="1333" y="1500"/>
      <point x="1534" y="1352"/>
      <point x="1611" y="1120" type="curve"/>
      <point x="1434" y="1028" type="line"/>
      <point x="1384" y="1215"/>
      <point x="1237" y="1332"/>
      <point x="1036" y="1332" type="curve" smooth="yes"/>
      <point x="677" y="1332"/>
      <point x="408" y="975"/>
      <point x="408" y="606" type="curve" smooth="yes"/>
      <point x="408" y="330"/>
      <point x="576" y="148"/>
      <point x="827" y="148" type="curve" smooth="yes"/>
      <point x="1028" y="148"/>
      <point x="1217" y="265"/>
      <point x="1333" y="452" type="curve"/>
      <point x="1477" y="360" type="line"/>
      <point x="1318" y="128"/>
      <point x="1065" y="-20"/>
      <point x="797" y="-20" type="curve" smooth="yes"/>
      <point x="450" y="-20"/>
      <point x="216" y="227"/>
    </contour>
  </outline>
</glyph>
<glyph name="D" format="2">
  <advance width="1378"/>
  <unicode hex="0044"/>
  <anchor x="905" y="1380" name="top_center"/>
  <anchor x="662" y="0" name="bottom_center"/>
  <anchor x="563" y="-20" name="bottom_cedilla"/>
  <outline>
    <contour>
      <point x="642" y="168" type="line" smooth="yes"/>
      <point x="973" y="168"/>
      <point x="1230" y="514"/>
      <point x="1230" y="871" type="curve" smooth="yes"/>
      <point x="1230" y="1134"/>
      <point x="1076" y="1312"/>
      <point x="843" y="1312" type="curve" smooth="yes"/>
      <point x="561" y="1312" type="line"/>
      <point x="360" y="168" type="line"/>
    </contour>
    <contour>
      <point x="1424" y="908" type="curve" smooth="yes"/>
      <point x="1424" y="449"/>
      <point x="1096" y="0"/>
      <point x="612" y="0" type="curve" smooth="yes"/>
      <point x="140" y="0" type="line"/>
      <point x="401" y="1480" type="line"/>
      <point x="873" y="1480" type="line" smooth="yes"/>
      <point x="1203" y="1480"/>
      <point x="1424" y="1261"/>
    </contour>
  </outline>
</glyph>
<glyph name="E" format="2">
  <advance width="1208"/>
  <unicode hex="0045"/>
  <anchor x="13" y="1040" name="greek_v"/>
  <anchor x="-191" y="1040" name="greek_t"/>
  <anchor x="-65" y="1040" name="greek_k"/>
  <anchor x="-231" y="1040" name="greek_kt"/>
  <anchor x="717" y="1380" name="top_center"/>
  <anchor x="474" y="0" name="bottom_center"/>
  <anchor x="938" y="0" name="bottom_right"/>
  <anchor x="470" y="-20" name="bottom_cedilla"/>
  <outline>
    <contour>
      <point x="988" y="824" type="line"/>
      <point x="958" y="656" type="line"/>
      <point x="315" y="656" type="line"/>
      <point x="229" y="168" type="line"/>
      <point x="967" y="168" type="line"/>
      <point x="938" y="0" type="line"/>
      <point x="10" y="0" type="line"/>
      <point x="270" y="1480" type="line"/>
      <point x="1198" y="1480" type="line"/>
      <point x="1169" y="1312" type="line"/>
      <point x="431" y="1312" type="line"/>
      <point x="345" y="824" type="line"/>
    </contour>
  </outline>
</glyph>
<glyph name="F" format="2">
  <advance width="1138"/>
  <unicode hex="0046"/>
  <anchor x="717" y="1380" name="top_center"/>
  <anchor x="105" y="0" name="bottom_center"/>
  <outline>
    <contour>
      <point x="316" y="656" type="line"/>
      <point x="277" y="437"/>
      <point x="239" y="219"/>
      <point x="200" y="0" type="curve"/>
      <point x="10" y="0" type="line"/>
      <point x="271" y="1480" type="line"/>
      <point x="1199" y="1480" type="line"/>
      <point x="1169" y="1312" type="line"/>
      <point x="431" y="1312" type="line"/>
      <point x="345" y="824" type="line"/>
      <point x="988" y="824" type="line"/>
      <point x="959" y="656" type="line"/>
    </contour>
  </outline>
</glyph>
<glyph name="G" format="2">
  <advance width="1562"/>
  <unicode hex="0047"/>
  <anchor x="671" y="0" name="bottom_center"/>
  <anchor x="914" y="1380" name="top_center"/>
  <outline>
    <contour>
      <point x="86" y="584" type="curve" smooth="yes"/>
      <point x="86" y="1058"/>
      <point x="466" y="1500"/>
      <point x="935" y="1500" type="curve" smooth="yes"/>
      <point x="1203" y="1500"/>
      <point x="1404" y="1352"/>
      <point x="1481" y="1120" type="curve"/>
      <point x="1304" y="1029" type="line"/>
      <point x="1254" y="1216"/>
      <point x="1107" y="1332"/>
      <point x="906" y="1332" type="curve" smooth="yes"/>
      <point x="547" y="1332"/>
      <point x="278" y="975"/>
      <point x="278" y="606" type="curve" smooth="yes"/>
      <point x="278" y="330"/>
      <point x="446" y="148"/>
      <point x="697" y="148" type="curve" smooth="yes"/>
      <point x="898" y="148"/>
      <point x="1087" y="264"/>
      <point x="1203" y="451" type="curve"/>
      <point x="1347" y="360" type="line"/>
      <point x="1188" y="128"/>
      <point x="935" y="-20"/>
      <point x="667" y="-20" type="curve" smooth="yes"/>
      <point x="320" y="-20"/>
      <point x="86" y="227"/>
    </contour>
    <contour>
      <point x="801" y="740" type="line"/>
      <point x="1422" y="740" type="line"/>
      <point x="1292" y="0" type="line"/>
      <point x="1110" y="0" type="line"/>
      <point x="1150" y="227" type="line"/>
      <point x="1147" y="253" type="line"/>
      <point x="1203" y="572" type="line"/>
      <point x="772" y="572" type="line"/>
    </contour>
  </outline>
</glyph>
<glyph name="H" format="2">
  <advance width="1398"/>
  <unicode hex="0048"/>
  <anchor x="812" y="1380" name="top_center"/>
  <anchor x="569" y="0" name="bottom_center"/>
  <anchor x="101" y="-20" name="bottom_cedilla"/>
  <anchor x="553" y="-90" name="bottom_ypogegrammeni"/>
  <anchor x="13" y="1040" name="greek_v"/>
  <anchor x="-231" y="1040" name="greek_kt"/>
  <anchor x="-65" y="1040" name="greek_k"/>
  <anchor x="-191" y="1040" name="greek_t"/>
  <outline>
    <contour>
      <point x="270" y="1480" type="line"/>
      <point x="460" y="1480" type="line"/>
      <point x="345" y="824" type="line"/>
      <point x="1083" y="824" type="line"/>
      <point x="1198" y="1480" type="line"/>
      <point x="1388" y="1480" type="line"/>
      <point x="1128" y="0" type="line"/>
      <point x="938" y="0" type="line"/>
      <point x="1053" y="656" type="line"/>
      <point x="315" y="656" type="line"/>
      <point x="200" y="0" type="line"/>
      <point x="10" y="0" type="line"/>
    </contour>
  </outline>
</glyph>
<glyph name="I" format="2">
  <advance width="806"/>
  <unicode hex="0049"/>
  <anchor x="399" y="-20" name="bottom_cedilla"/>
  <anchor x="143" y="1040" name="greek_v"/>
  <anchor x="-101" y="1040" name="greek_kt"/>
  <anchor x="65" y="1040" name="greek_k"/>
  <anchor x="-61" y="1040" name="greek_t"/>
  <anchor x="498" y="0" name="bottom_right"/>
  <anchor x="403" y="0" name="bottom_center"/>
  <anchor x="646" y="1380" name="top_center"/>
  <outline>
    <contour>
      <point x="401" y="1480" type="line"/>
      <point x="927" y="1480" type="line"/>
      <point x="897" y="1312" type="line"/>
      <point x="729" y="1312" type="line"/>
      <point x="528" y="168" type="line"/>
      <point x="696" y="168" type="line"/>
      <point x="666" y="0" type="line"/>
      <point x="140" y="0" type="line"/>
      <point x="170" y="168" type="line"/>
      <point x="338" y="168" type="line"/>
      <point x="539" y="1312" type="line"/>
      <point x="371" y="1312" type="line"/>
    </contour>
  </outline>
</glyph>
<glyph name="J" format="2">
  <advance width="1168"/>
  <unicode hex="004A"/>
  <anchor x="1176" y="1380" name="top_center"/>
  <anchor x="564" y="0" name="bottom_center"/>
  <outline>
    <contour>
      <point x="380" y="491" type="line"/>
      <point x="373" y="467"/>
      <point x="360" y="418"/>
      <point x="360" y="364" type="curve" smooth="yes"/>
      <point x="360" y="229"/>
      <point x="437" y="148"/>
      <point x="590" y="148" type="curve" smooth="yes"/>
      <point x="770" y="148"/>
      <point x="884" y="260"/>
      <point x="916" y="440" type="curve" smooth="yes"/>
      <point x="1099" y="1480" type="line"/>
      <point x="1289" y="1480" type="line"/>
      <point x="1106" y="440" type="line" smooth="yes"/>
      <point x="1058" y="170"/>
      <point x="830" y="-20"/>
      <point x="560" y="-20" type="curve" smooth="yes"/>
      <point x="322" y="-20"/>
      <point x="169" y="128"/>
      <point x="169" y="348" type="curve" smooth="yes"/>
      <point x="169" y="377"/>
      <point x="172" y="408"/>
      <point x="178" y="440" type="curve"/>
    </contour>
  </outline>
</glyph>
<glyph name="K" format="2">
  <advance width="1356"/>
  <unicode hex="004B"/>
  <anchor x="942" y="1380" name="top_center"/>
  <anchor x="699" y="0" name="bottom_center"/>
  <outline>
    <contour>
      <point x="689" y="794" type="line"/>
      <point x="841" y="917" type="line"/>
      <point x="1296" y="0" type="line"/>
      <point x="1082" y="0" type="line"/>
    </contour>
    <contour>
      <point x="416" y="490" type="line"/>
      <point x="330" y="0" type="line"/>
      <point x="140" y="0" type="line"/>
      <point x="401" y="1480" type="line"/>
      <point x="591" y="1480" type="line"/>
      <point x="459" y="730" type="line"/>
      <point x="1317" y="1480" type="line"/>
      <point x="1557" y="1480" type="line"/>
    </contour>
  </outline>
</glyph>
<glyph name="L" format="2">
  <advance width="1208"/>
  <unicode hex="004C"/>
  <anchor x="348" y="1380" name="top_center"/>
  <anchor x="474" y="0" name="bottom_center"/>
  <outline>
    <contour>
      <point x="461" y="1480" type="line"/>
      <point x="230" y="168" type="line"/>
      <point x="968" y="168" type="line"/>
      <point x="938" y="0" type="line"/>
      <point x="10" y="0" type="line"/>
      <point x="271" y="1480" type="line"/>
    </contour>
  </outline>
</glyph>
<glyph name="M" format="2">
  <advance width="1588"/>
  <unicode hex="004D"/>
  <anchor x="907" y="1380" name="top_center"/>
  <anchor x="664" y="0" name="bottom_center"/>
  <outline>
    <contour>
      <point x="731" y="410" type="line"/>
      <point x="1389" y="1480" type="line"/>
      <point x="1433" y="1248" type="line"/>
      <point x="761" y="160" type="line"/>
      <point x="613" y="160" type="line"/>
      <point x="327" y="1248" type="line"/>
      <point x="461" y="1480" type="line"/>
    </contour>
    <contour>
      <point x="1579" y="1480" type="line"/>
      <point x="1318" y="0" type="line"/>
      <point x="1128" y="0" type="line"/>
      <point x="1348" y="1250" type="line"/>
      <point x="1389" y="1480" type="line"/>
    </contour>
    <contour>
      <point x="271" y="1480" type="line"/>
      <point x="461" y="1480" type="line"/>
      <point x="424" y="1272" type="line"/>
      <point x="200" y="0" type="line"/>
      <point x="10" y="0" type="line"/>
    </contour>
  </outline>
</glyph>
<glyph name="N" format="2">
  <advance width="1398"/>
  <unicode hex="004E"/>
  <anchor x="942" y="1380" name="top_center"/>
  <anchor x="699" y="0" name="bottom_center"/>
  <outline>
    <contour>
      <point x="591" y="1480" type="line"/>
      <point x="1124" y="320" type="line"/>
      <point x="1329" y="1480" type="line"/>
      <point x="1519" y="1480" type="line"/>
      <point x="1258" y="0" type="line"/>
      <point x="1068" y="0" type="line"/>
      <point x="535" y="1160" type="line"/>
      <point x="330" y="0" type="line"/>
      <point x="140" y="0" type="line"/>
      <point x="401" y="1480" type="line"/>
    </contour>
  </outline>
</glyph>
<glyph name="O" format="2">
  <advance width="1602"/>
  <unicode hex="004F"/>
  <anchor x="667" y="-20" name="bottom_cedilla"/>
  <anchor x="-12" y="1040" name="greek_t"/>
  <anchor x="114" y="1040" name="greek_k"/>
  <anchor x="-52" y="1040" name="greek_kt"/>
  <anchor x="192" y="1040" name="greek_v"/>
  <anchor x="838" y="0" name="bottom_right"/>
  <anchor x="671" y="0" name="bottom_center"/>
  <anchor x="1510" y="1480" name="top_right"/>
  <anchor x="914" y="1380" name="top_center"/>
  <outline>
    <contour>
      <point x="290" y="740" type="curve" smooth="yes"/>
      <point x="228" y="390"/>
      <point x="407" y="148"/>
      <point x="697" y="148" type="curve" smooth="yes"/>
      <point x="987" y="148"/>
      <point x="1250" y="390"/>
      <point x="1312" y="740" type="curve" smooth="yes"/>
      <point x="1374" y="1090"/>
      <point x="1195" y="1332"/>
      <point x="905" y="1332" type="curve" smooth="yes"/>
      <point x="615" y="1332"/>
      <point x="352" y="1090"/>
    </contour>
    <contour>
      <point x="100" y="740" type="curve" smooth="yes"/>
      <point x="177" y="1179"/>
      <point x="540" y="1500"/>
      <point x="935" y="1500" type="curve" smooth="yes"/>
      <point x="1330" y="1500"/>
      <point x="1579" y="1179"/>
      <point x="1502" y="740" type="curve" smooth="yes"/>
      <point x="1425" y="301"/>
      <point x="1062" y="-20"/>
      <point x="667" y="-20" type="curve" smooth="yes"/>
      <point x="272" y="-20"/>
      <point x="23" y="301"/>
    </contour>
  </outline>
</glyph>
<glyph name="P" format="2">
  <advance width="1188"/>
  <unicode hex="0050"/>
  <anchor x="13" y="1040" name="greek_v"/>
  <anchor x="-231" y="1040" name="greek_kt"/>
  <anchor x="-65" y="1040" name="greek_k"/>
  <anchor x="-191" y="1040" name="greek_t"/>
  <anchor x="105" y="0" name="bottom_center"/>
  <anchor x="711" y="1380" name="top_center"/>
  <outline>
    <contour>
      <point x="612" y="740" type="line" smooth="yes"/>
      <point x="807" y="740"/>
      <point x="954" y="905"/>
      <point x="954" y="1082" type="curve" smooth="yes"/>
      <point x="954" y="1218"/>
      <point x="859" y="1312"/>
      <point x="713" y="1312" type="curve" smooth="yes"/>
      <point x="431" y="1312" type="line"/>
      <point x="330" y="740" type="line"/>
    </contour>
    <contour>
      <point x="1146" y="1101" type="curve" smooth="yes"/>
      <point x="1146" y="820"/>
      <point x="869" y="572"/>
      <point x="583" y="572" type="curve" smooth="yes"/>
      <point x="301" y="572" type="line"/>
      <point x="200" y="0" type="line"/>
      <point x="10" y="0" type="line"/>
      <point x="271" y="1480" type="line"/>
      <point x="743" y="1480" type="line" smooth="yes"/>
      <point x="972" y="1480"/>
      <point x="1146" y="1319"/>
    </contour>
  </outline>
</glyph>
<glyph name="Q" format="2">
  <advance width="1602"/>
  <unicode hex="0051"/>
  <anchor x="801" y="0" name="bottom_center"/>
  <anchor x="1044" y="1380" name="top_center"/>
  <outline>
    <contour>
      <point x="1036" y="1332" type="curve" smooth="yes"/>
      <point x="677" y="1332"/>
      <point x="408" y="975"/>
      <point x="408" y="606" type="curve" smooth="yes"/>
      <point x="408" y="330"/>
      <point x="576" y="148"/>
      <point x="827" y="148" type="curve" smooth="yes"/>
      <point x="1186" y="148"/>
      <point x="1455" y="505"/>
      <point x="1455" y="874" type="curve" smooth="yes"/>
      <point x="1455" y="1150"/>
      <point x="1287" y="1332"/>
    </contour>
    <contour>
      <point x="216" y="584" type="curve" smooth="yes"/>
      <point x="216" y="1058"/>
      <point x="596" y="1500"/>
      <point x="1065" y="1500" type="curve" smooth="yes"/>
      <point x="1412" y="1500"/>
      <point x="1647" y="1253"/>
      <point x="1647" y="896" type="curve" smooth="yes"/>
      <point x="1647" y="422"/>
      <point x="1266" y="-20"/>
      <point x="797" y="-20" type="curve" smooth="yes"/>
      <point x="450" y="-20"/>
      <point x="216" y="227"/>
    </contour>
    <contour>
      <point x="1513" y="64" type="line"/>
      <point x="1363" y="-64" type="line"/>
      <point x="938" y="452" type="line"/>
      <point x="1088" y="580" type="line"/>
    </contour>
  </outline>
</glyph>
<glyph name="R" format="2">
  <advance width="1188"/>
  <unicode hex="0052"/>
  <anchor x="711" y="1380" name="top_center"/>
  <anchor x="468" y="0" name="bottom_center"/>
  <outline>
    <contour>
      <point x="479" y="617" type="line"/>
      <point x="630" y="740" type="line"/>
      <point x="998" y="0" type="line"/>
      <point x="784" y="0" type="line"/>
    </contour>
    <contour>
      <point x="612" y="740" type="line" smooth="yes"/>
      <point x="807" y="740"/>
      <point x="954" y="905"/>
      <point x="954" y="1082" type="curve" smooth="yes"/>
      <point x="954" y="1218"/>
      <point x="859" y="1312"/>
      <point x="713" y="1312" type="curve" smooth="yes"/>
      <point x="431" y="1312" type="line"/>
      <point x="330" y="740" type="line"/>
    </contour>
    <contour>
      <point x="1146" y="1101" type="curve" smooth="yes"/>
      <point x="1146" y="820"/>
      <point x="869" y="572"/>
      <point x="583" y="572" type="curve" smooth="yes"/>
      <point x="301" y="572" type="line"/>
      <point x="200" y="0" type="line"/>
      <point x="10" y="0" type="line"/>
      <point x="271" y="1480" type="line"/>
      <point x="743" y="1480" type="line" smooth="yes"/>
      <point x="972" y="1480"/>
      <point x="1146" y="1319"/>
    </contour>
  </outline>
</glyph>
<glyph name="S" format="2">
  <advance width="1220"/>
  <unicode hex="0053"/>
  <anchor x="476" y="-20" name="bottom_cedilla"/>
  <anchor x="723" y="1380" name="top_center"/>
  <anchor x="480" y="0" name="bottom_center"/>
  <outline>
    <contour>
      <point x="714" y="1332" type="curve" smooth="yes"/>
      <point x="504" y="1332"/>
      <point x="419" y="1212"/>
      <point x="396" y="1084" type="curve" smooth="yes"/>
      <point x="373" y="956"/>
      <point x="489" y="876"/>
      <point x="627" y="837" type="curve" smooth="yes"/>
      <point x="903" y="759"/>
      <point x="1105" y="656"/>
      <point x="1059" y="396" type="curve" smooth="yes"/>
      <point x="1013" y="136"/>
      <point x="782" y="-20"/>
      <point x="476" y="-20" type="curve" smooth="yes"/>
      <point x="195" y="-20"/>
      <point x="24" y="158"/>
      <point x="39" y="396" type="curve"/>
      <point x="234" y="446" type="line"/>
      <point x="206" y="289"/>
      <point x="305" y="148"/>
      <point x="506" y="148" type="curve" smooth="yes"/>
      <point x="726" y="148"/>
      <point x="844" y="255"/>
      <point x="869" y="396" type="curve" smooth="yes"/>
      <point x="894" y="537"/>
      <point x="779" y="601"/>
      <point x="595" y="653" type="curve" smooth="yes"/>
      <point x="319" y="731"/>
      <point x="165" y="854"/>
      <point x="206" y="1084" type="curve" smooth="yes"/>
      <point x="247" y="1314"/>
      <point x="453" y="1500"/>
      <point x="744" y="1500" type="curve" smooth="yes"/>
      <point x="1025" y="1500"/>
      <point x="1177" y="1332"/>
      <point x="1162" y="1094" type="curve"/>
      <point x="967" y="1044" type="line"/>
      <point x="995" y="1201"/>
      <point x="915" y="1332"/>
    </contour>
  </outline>
</glyph>
<glyph name="T" format="2">
  <advance width="1398"/>
  <unicode hex="0054"/>
  <anchor x="942" y="1380" name="top_center"/>
  <anchor x="699" y="0" name="bottom_center"/>
  <anchor x="695" y="-20" name="bottom_cedilla"/>
  <outline>
    <contour>
      <point x="794" y="0" type="line"/>
      <point x="604" y="0" type="line"/>
      <point x="835" y="1312" type="line"/>
      <point x="371" y="1312" type="line"/>
      <point x="401" y="1480" type="line"/>
      <point x="1519" y="1480" type="line"/>
      <point x="1489" y="1312" type="line"/>
      <point x="1025" y="1312" type="line"/>
    </contour>
  </outline>
</glyph>
<glyph name="U" format="2">
  <advance width="1398"/>
  <unicode hex="0055"/>
  <anchor x="565" y="-20" name="bottom_cedilla"/>
  <anchor x="731" y="0" name="bottom_right"/>
  <anchor x="569" y="0" name="bottom_center"/>
  <anchor x="1389" y="1480" name="top_right"/>
  <anchor x="812" y="1380" name="top_center"/>
  <outline>
    <contour>
      <point x="461" y="1480" type="line"/>
      <point x="306" y="600" type="line" smooth="yes"/>
      <point x="299" y="558"/>
      <point x="295" y="517"/>
      <point x="295" y="478" type="curve" smooth="yes"/>
      <point x="295" y="287"/>
      <point x="387" y="148"/>
      <point x="595" y="148" type="curve" smooth="yes"/>
      <point x="845" y="148"/>
      <point x="1000" y="350"/>
      <point x="1044" y="600" type="curve" smooth="yes"/>
      <point x="1199" y="1480" type="line"/>
      <point x="1389" y="1480" type="line"/>
      <point x="1234" y="600" type="line" smooth="yes"/>
      <point x="1171" y="240"/>
      <point x="925" y="-20"/>
      <point x="565" y="-20" type="curve" smooth="yes"/>
      <point x="258" y="-20"/>
      <point x="102" y="169"/>
      <point x="102" y="448" type="curve" smooth="yes"/>
      <point x="102" y="496"/>
      <point x="107" y="547"/>
      <point x="116" y="600" type="curve" smooth="yes"/>
      <point x="271" y="1480" type="line"/>
    </contour>
  </outline>
</glyph>
<glyph name="V" format="2">
  <advance width="1356"/>
  <unicode hex="0056"/>
  <anchor x="921" y="1380" name="top_center"/>
  <anchor x="678" y="0" name="bottom_center"/>
  <outline>
    <contour>
      <point x="722" y="250" type="line"/>
      <point x="1351" y="1480" type="line"/>
      <point x="1547" y="1480" type="line"/>
      <point x="776" y="0" type="line"/>
      <point x="580" y="0" type="line"/>
      <point x="331" y="1480" type="line"/>
      <point x="527" y="1480" type="line"/>
    </contour>
  </outline>
</glyph>
<glyph name="W" format="2">
  <advance width="1984"/>
  <unicode hex="0057"/>
  <anchor x="1235" y="1380" name="top_center"/>
  <anchor x="992" y="0" name="bottom_center"/>
  <outline>
    <contour>
      <point x="1453" y="280" type="line"/>
      <point x="1979" y="1480" type="line"/>
      <point x="2175" y="1480" type="line"/>
      <point x="1502" y="0" type="line"/>
      <point x="1306" y="0" type="line"/>
      <point x="1195" y="1150" type="line"/>
      <point x="678" y="0" type="line"/>
      <point x="482" y="0" type="line"/>
      <point x="331" y="1480" type="line"/>
      <point x="527" y="1480" type="line"/>
      <point x="629" y="280" type="line"/>
      <point x="1167" y="1480" type="line"/>
      <point x="1339" y="1480" type="line"/>
    </contour>
  </outline>
</glyph>
<glyph name="X" format="2">
  <advance width="1392"/>
  <unicode hex="0058"/>
  <anchor x="696" y="0" name="bottom_center"/>
  <anchor x="939" y="1380" name="top_center"/>
  <outline>
    <contour>
      <point x="803" y="617" type="line"/>
      <point x="284" y="0" type="line"/>
      <point x="70" y="0" type="line"/>
      <point x="698" y="740" type="line"/>
      <point x="331" y="1480" type="line"/>
      <point x="545" y="1480" type="line"/>
      <point x="847" y="858" type="line"/>
      <point x="1369" y="1480" type="line"/>
      <point x="1583" y="1480" type="line"/>
      <point x="954" y="740" type="line"/>
      <point x="1322" y="0" type="line"/>
      <point x="1108" y="0" type="line"/>
    </contour>
  </outline>
</glyph>
<glyph name="Y" format="2">
  <advance width="1392"/>
  <unicode hex="0059"/>
  <anchor x="103" y="1040" name="greek_v"/>
  <anchor x="-101" y="1040" name="greek_t"/>
  <anchor x="25" y="1040" name="greek_k"/>
  <anchor x="-141" y="1040" name="greek_kt"/>
  <anchor x="696" y="0" name="bottom_center"/>
  <anchor x="939" y="1380" name="top_center"/>
  <outline>
    <contour>
      <point x="601" y="0" type="line"/>
      <point x="731" y="740" type="line"/>
      <point x="921" y="740" type="line"/>
      <point x="791" y="0" type="line"/>
    </contour>
    <contour>
      <point x="866" y="628" type="line"/>
      <point x="738" y="666" type="line"/>
      <point x="331" y="1480" type="line"/>
      <point x="545" y="1480" type="line"/>
      <point x="847" y="858" type="line"/>
      <point x="1369" y="1480" type="line"/>
      <point x="1583" y="1480" type="line"/>
    </contour>
  </outline>
</glyph>
<glyph name="Z" format="2">
  <advance width="1300"/>
  <unicode hex="005A"/>
  <anchor x="762" y="1380" name="top_center"/>
  <anchor x="516" y="0" name="bottom_center"/>
  <outline>
    <contour>
      <point x="112" y="0" type="line"/>
      <point x="36" y="152" type="line"/>
      <point x="1168" y="1480" type="line"/>
      <point x="1244" y="1328" type="line"/>
    </contour>
    <contour>
      <point x="191" y="168" type="line"/>
      <point x="1059" y="168" type="line"/>
      <point x="1030" y="0" type="line"/>
      <point x="660" y="0"/>
      <point x="380" y="0"/>
      <point x="10" y="0" type="curve"/>
      <point x="36" y="152" type="line"/>
    </contour>
    <contour>
      <point x="290" y="1480" type="line"/>
      <point x="660" y="1480"/>
      <point x="900" y="1480"/>
      <point x="1270" y="1480" type="curve"/>
      <point x="1244" y="1328" type="line"/>
      <point x="1087" y="1312" type="line"/>
      <point x="261" y="1312" type="line"/>
    </contour>
  </outline>
</glyph>
<glyph name="bracketleft" format="2">
  <advance width="858"/>
  <unicode hex="005B"/>
  <outline>
    <contour>
      <point x="1049" y="1480" type="line"/>
      <point x="581" y="1480" type="line"/>
      <point x="292" y="-160" type="line"/>
      <point x="760" y="-160" type="line"/>
      <point x="732" y="-320" type="line"/>
      <point x="84" y="-320" type="line"/>
      <point x="429" y="1640" type="line"/>
      <point x="1077" y="1640" type="line"/>
    </contour>
  </outline>
</glyph>
<glyph name="backslash" format="2">
  <advance width="964"/>
  <unicode hex="005C"/>
  <outline>
    <contour>
      <point x="229" y="1640" type="line"/>
      <point x="419" y="1640" type="line"/>
      <point x="729" y="-200" type="line"/>
      <point x="539" y="-200" type="line"/>
    </contour>
  </outline>
</glyph>
<glyph name="bracketright" format="2">
  <advance width="858"/>
  <unicode hex="005D"/>
  <outline>
    <contour>
      <point x="331" y="1480" type="line"/>
      <point x="359" y="1640" type="line"/>
      <point x="1007" y="1640" type="line"/>
      <point x="662" y="-320" type="line"/>
      <point x="14" y="-320" type="line"/>
      <point x="42" y="-160" type="line"/>
      <point x="510" y="-160" type="line"/>
      <point x="799" y="1480" type="line"/>
    </contour>
  </outline>
</glyph>
<glyph name="asciicircum" format="2">
  <advance width="1232"/>
  <unicode hex="005E"/>
  <outline>
    <contour>
      <point x="1062" y="656" type="line"/>
      <point x="848" y="1310" type="line"/>
      <point x="402" y="656" type="line"/>
      <point x="216" y="656" type="line"/>
      <point x="789" y="1480" type="line"/>
      <point x="965" y="1480" type="line"/>
      <point x="1248" y="656" type="line"/>
    </contour>
  </outline>
</glyph>
<glyph name="underscore" format="2">
  <advance width="1232"/>
  <unicode hex="005F"/>
  <outline>
    <contour>
      <point x="-130" y="0" type="line"/>
      <point x="1102" y="0" type="line"/>
      <point x="1074" y="-160" type="line"/>
      <point x="-158" y="-160" type="line"/>
    </contour>
  </outline>
</glyph>
<glyph name="a" format="2">
  <advance width="1140"/>
  <unicode hex="0061"/>
  <anchor x="496" y="-20" name="bottom_cedilla"/>
  <anchor x="1033" y="0" name="bottom_right"/>
  <anchor x="723" y="1040" name="top_center"/>
  <anchor x="540" y="0" name="bottom_center"/>
  <anchor x="1163" y="1040" name="top_right"/>
  <outline>
    <contour>
      <point x="957" y="413" type="curve" smooth="yes"/>
      <point x="957" y="167"/>
      <point x="738" y="-20"/>
      <point x="496" y="-20" type="curve" smooth="yes"/>
      <point x="271" y="-20"/>
      <point x="154" y="105"/>
      <point x="154" y="272" type="curve" smooth="yes"/>
      <point x="154" y="521"/>
      <point x="396" y="700"/>
      <point x="663" y="700" type="curve" smooth="yes"/>
      <point x="851" y="700"/>
      <point x="957" y="577"/>
    </contour>
    <contour>
      <point x="635" y="540" type="curve" smooth="yes"/>
      <point x="439" y="536"/>
      <point x="336" y="454"/>
      <point x="336" y="299" type="curve" smooth="yes"/>
      <point x="336" y="202"/>
      <point x="406" y="140"/>
      <point x="565" y="140" type="curve" smooth="yes"/>
      <point x="726" y="140"/>
      <point x="864" y="232"/>
      <point x="864" y="381" type="curve" smooth="yes"/>
      <point x="864" y="478"/>
      <point x="794" y="540"/>
    </contour>
    <contour>
      <point x="1018" y="202" type="curve" smooth="yes"/>
      <point x="1018" y="159"/>
      <point x="1043" y="138"/>
      <point x="1094" y="138" type="curve"/>
      <point x="1024" y="-20" type="line"/>
      <point x="903" y="-9"/>
      <point x="834" y="51"/>
      <point x="834" y="165" type="curve" smooth="yes"/>
      <point x="834" y="184"/>
      <point x="836" y="205"/>
      <point x="840" y="227" type="curve"/>
      <point x="865" y="256" type="line"/>
      <point x="899" y="449" type="line"/>
      <point x="883" y="468" type="line"/>
      <point x="913" y="640" type="line" smooth="yes"/>
      <point x="918" y="666"/>
      <point x="920" y="690"/>
      <point x="920" y="712" type="curve" smooth="yes"/>
      <point x="920" y="841"/>
      <point x="842" y="901"/>
      <point x="698" y="901" type="curve" smooth="yes"/>
      <point x="518" y="901"/>
      <point x="362" y="795"/>
      <point x="362" y="795" type="curve"/>
      <point x="305" y="936" type="line"/>
      <point x="305" y="936"/>
      <point x="472" y="1060"/>
      <point x="727" y="1060" type="curve" smooth="yes"/>
      <point x="939" y="1060"/>
      <point x="1100" y="984"/>
      <point x="1100" y="738" type="curve" smooth="yes"/>
      <point x="1100" y="699"/>
      <point x="1095" y="656"/>
      <point x="1087" y="608" type="curve" smooth="yes"/>
      <point x="1020" y="227" type="line" smooth="yes"/>
      <point x="1018" y="218"/>
      <point x="1018" y="210"/>
    </contour>
  </outline>
</glyph>
<glyph name="b" format="2">
  <advance width="1184"/>
  <unicode hex="0062"/>
  <anchor x="473" y="1380" name="top_center"/>
  <anchor x="606" y="0" name="bottom_center"/>
  <outline>
    <contour>
      <point x="765" y="900" type="curve" smooth="yes"/>
      <point x="521" y="900"/>
      <point x="390" y="636"/>
      <point x="390" y="417" type="curve" smooth="yes"/>
      <point x="390" y="246"/>
      <point x="479" y="140"/>
      <point x="631" y="140" type="curve" smooth="yes"/>
      <point x="875" y="140"/>
      <point x="1005" y="404"/>
      <point x="1005" y="623" type="curve" smooth="yes"/>
      <point x="1005" y="794"/>
      <point x="917" y="900"/>
    </contour>
    <contour>
      <point x="401" y="1480" type="line"/>
      <point x="581" y="1480" type="line"/>
      <point x="482" y="920" type="line"/>
      <point x="582" y="1005"/>
      <point x="668" y="1060"/>
      <point x="793" y="1060" type="curve" smooth="yes"/>
      <point x="1036" y="1060"/>
      <point x="1187" y="889"/>
      <point x="1187" y="640" type="curve" smooth="yes"/>
      <point x="1187" y="310"/>
      <point x="945" y="-20"/>
      <point x="602" y="-20" type="curve" smooth="yes"/>
      <point x="477" y="-20"/>
      <point x="403" y="35"/>
      <point x="333" y="120" type="curve"/>
      <point x="312" y="0" type="line"/>
      <point x="140" y="0" type="line"/>
    </contour>
  </outline>
</glyph>
<glyph name="c" format="2">
  <advance width="1142"/>
  <unicode hex="0063"/>
  <anchor x="503" y="-20" name="bottom_cedilla"/>
  <anchor x="506" y="0" name="bottom_center"/>
  <anchor x="690" y="1040" name="top_center"/>
  <outline>
    <contour>
      <point x="280" y="520" type="curve" smooth="yes"/>
      <point x="241" y="300"/>
      <point x="340" y="140"/>
      <point x="531" y="140" type="curve" smooth="yes"/>
      <point x="672" y="140"/>
      <point x="785" y="207"/>
      <point x="857" y="340" type="curve"/>
      <point x="995" y="252" type="line"/>
      <point x="881" y="74"/>
      <point x="702" y="-20"/>
      <point x="503" y="-20" type="curve" smooth="yes"/>
      <point x="222" y="-20"/>
      <point x="45" y="208"/>
      <point x="100" y="520" type="curve" smooth="yes"/>
      <point x="155" y="832"/>
      <point x="412" y="1060"/>
      <point x="693" y="1060" type="curve" smooth="yes"/>
      <point x="892" y="1060"/>
      <point x="1037" y="966"/>
      <point x="1089" y="788" type="curve"/>
      <point x="921" y="700" type="line"/>
      <point x="895" y="833"/>
      <point x="806" y="900"/>
      <point x="665" y="900" type="curve" smooth="yes"/>
      <point x="474" y="900"/>
      <point x="319" y="740"/>
    </contour>
  </outline>
</glyph>
<glyph name="d" format="2">
  <advance width="1184"/>
  <unicode hex="0064"/>
  <anchor x="1305" y="1480" name="top_right"/>
  <anchor x="1197" y="1380" name="top_center"/>
  <anchor x="578" y="0" name="bottom_center"/>
  <anchor x="574" y="-20" name="bottom_cedilla"/>
  <outline>
    <contour>
      <point x="603" y="140" type="curve" smooth="yes"/>
      <point x="847" y="140"/>
      <point x="977" y="404"/>
      <point x="977" y="623" type="curve" smooth="yes"/>
      <point x="977" y="794"/>
      <point x="889" y="900"/>
      <point x="737" y="900" type="curve" smooth="yes"/>
      <point x="493" y="900"/>
      <point x="362" y="636"/>
      <point x="362" y="417" type="curve" smooth="yes"/>
      <point x="362" y="246"/>
      <point x="451" y="140"/>
    </contour>
    <contour>
      <point x="181" y="400" type="curve" smooth="yes"/>
      <point x="181" y="730"/>
      <point x="422" y="1060"/>
      <point x="765" y="1060" type="curve" smooth="yes"/>
      <point x="890" y="1060"/>
      <point x="956" y="1005"/>
      <point x="1026" y="920" type="curve"/>
      <point x="1125" y="1480" type="line"/>
      <point x="1305" y="1480" type="line"/>
      <point x="1074" y="168" type="line" smooth="yes"/>
      <point x="1065" y="115"/>
      <point x="1062" y="72"/>
      <point x="1062" y="43" type="curve" smooth="yes"/>
      <point x="1062" y="16"/>
      <point x="1064" y="0"/>
      <point x="1064" y="0" type="curve"/>
      <point x="892" y="0" type="line"/>
      <point x="892" y="0"/>
      <point x="891" y="15"/>
      <point x="891" y="38" type="curve" smooth="yes"/>
      <point x="891" y="60"/>
      <point x="892" y="90"/>
      <point x="897" y="120" type="curve"/>
      <point x="797" y="35"/>
      <point x="699" y="-20"/>
      <point x="574" y="-20" type="curve" smooth="yes"/>
      <point x="331" y="-20"/>
      <point x="181" y="151"/>
    </contour>
  </outline>
</glyph>
<glyph name="e" format="2">
  <advance width="1163"/>
  <unicode hex="0065"/>
  <anchor x="781" y="1040" name="top_center"/>
  <anchor x="598" y="0" name="bottom_center"/>
  <anchor x="752" y="0" name="bottom_right"/>
  <anchor x="594" y="-20" name="bottom_cedilla"/>
  <outline>
    <contour>
      <point x="974" y="755" type="curve" smooth="yes"/>
      <point x="974" y="668"/>
      <point x="900" y="560"/>
      <point x="537" y="560" type="curve" smooth="yes"/>
      <point x="321" y="560" type="line"/>
      <point x="293" y="400" type="line"/>
      <point x="509" y="400" type="line" smooth="yes"/>
      <point x="960" y="400"/>
      <point x="1124" y="570"/>
      <point x="1152" y="730" type="curve" smooth="yes"/>
      <point x="1155" y="746"/>
      <point x="1156" y="761"/>
      <point x="1156" y="777" type="curve" smooth="yes"/>
      <point x="1156" y="921"/>
      <point x="1038" y="1060"/>
      <point x="785" y="1060" type="curve" smooth="yes"/>
      <point x="451" y="1060"/>
      <point x="182" y="746"/>
      <point x="182" y="409" type="curve" smooth="yes"/>
      <point x="182" y="155"/>
      <point x="348" y="-20"/>
      <point x="594" y="-20" type="curve" smooth="yes"/>
      <point x="793" y="-20"/>
      <point x="993" y="74"/>
      <point x="1107" y="252" type="curve"/>
      <point x="970" y="340" type="line"/>
      <point x="898" y="207"/>
      <point x="764" y="140"/>
      <point x="623" y="140" type="curve" smooth="yes"/>
      <point x="460" y="140"/>
      <point x="363" y="257"/>
      <point x="363" y="429" type="curve" smooth="yes"/>
      <point x="363" y="657"/>
      <point x="518" y="900"/>
      <point x="757" y="900" type="curve" smooth="yes"/>
      <point x="926" y="900"/>
      <point x="974" y="822"/>
    </contour>
  </outline>
</glyph>
<glyph name="f" format="2">
  <advance width="815"/>
  <unicode hex="0066"/>
  <anchor x="218" y="0" name="bottom_center"/>
  <anchor x="621" y="1380" name="top_center"/>
  <outline>
    <contour>
      <point x="818" y="1305" type="line"/>
      <point x="795" y="1324"/>
      <point x="747" y="1340"/>
      <point x="704" y="1340" type="curve" smooth="yes"/>
      <point x="602" y="1340"/>
      <point x="534" y="1282"/>
      <point x="516" y="1180" type="curve" smooth="yes"/>
      <point x="491" y="1040" type="line"/>
      <point x="771" y="1040" type="line"/>
      <point x="743" y="880" type="line"/>
      <point x="463" y="880" type="line"/>
      <point x="308" y="0" type="line"/>
      <point x="128" y="0" type="line"/>
      <point x="283" y="880" type="line"/>
      <point x="73" y="880" type="line"/>
      <point x="101" y="1040" type="line"/>
      <point x="311" y="1040" type="line"/>
      <point x="336" y="1180" type="line" smooth="yes"/>
      <point x="371" y="1380"/>
      <point x="532" y="1500"/>
      <point x="732" y="1500" type="curve" smooth="yes"/>
      <point x="788" y="1500"/>
      <point x="850" y="1486"/>
      <point x="892" y="1468" type="curve"/>
    </contour>
  </outline>
</glyph>
<glyph name="g" format="2">
  <advance width="1085"/>
  <unicode hex="0067"/>
  <anchor x="703" y="1040" name="top_center"/>
  <anchor x="456" y="-361" name="bottom_center"/>
  <outline>
    <contour>
      <point x="737" y="941" type="line"/>
      <point x="837" y="1026"/>
      <point x="927" y="1081"/>
      <point x="1052" y="1081" type="curve" smooth="yes"/>
      <point x="1120" y="1081"/>
      <point x="1174" y="1071"/>
      <point x="1220" y="1049" type="curve"/>
      <point x="1140" y="870" type="line"/>
      <point x="1103" y="904"/>
      <point x="1052" y="921"/>
      <point x="981" y="921" type="curve" smooth="yes"/>
      <point x="925" y="921"/>
      <point x="900" y="910"/>
      <point x="859" y="889" type="curve"/>
    </contour>
    <contour>
      <point x="594" y="420" type="curve"/>
      <point x="573" y="300" type="line"/>
      <point x="528" y="300"/>
      <point x="358" y="295"/>
      <point x="358" y="216" type="curve" smooth="yes"/>
      <point x="358" y="179"/>
      <point x="444" y="160"/>
      <point x="548" y="160" type="curve"/>
      <point x="520" y="0" type="line"/>
      <point x="299" y="0"/>
      <point x="175" y="68"/>
      <point x="175" y="180" type="curve" smooth="yes"/>
      <point x="175" y="358"/>
      <point x="434" y="420"/>
    </contour>
    <contour>
      <point x="467" y="-300" type="curve" smooth="yes"/>
      <point x="721" y="-297"/>
      <point x="835" y="-224"/>
      <point x="835" y="-108" type="curve" smooth="yes"/>
      <point x="835" y="-36"/>
      <point x="708" y="0"/>
      <point x="520" y="0" type="curve"/>
      <point x="548" y="160" type="line"/>
      <point x="844" y="160"/>
      <point x="1019" y="83"/>
      <point x="1019" y="-70" type="curve" smooth="yes"/>
      <point x="1019" y="-216"/>
      <point x="875" y="-460"/>
      <point x="439" y="-460" type="curve" smooth="yes"/>
      <point x="120" y="-460"/>
      <point x="16" y="-355"/>
      <point x="16" y="-219" type="curve" smooth="yes"/>
      <point x="16" y="-142"/>
      <point x="52" y="120"/>
      <point x="541" y="120" type="curve"/>
      <point x="525" y="30" type="line"/>
      <point x="262" y="21"/>
      <point x="198" y="-84"/>
      <point x="198" y="-191" type="curve" smooth="yes"/>
      <point x="198" y="-254"/>
      <point x="249" y="-300"/>
    </contour>
    <contour>
      <point x="679" y="900" type="curve" smooth="yes"/>
      <point x="540" y="900"/>
      <point x="436" y="767"/>
      <point x="436" y="635" type="curve" smooth="yes"/>
      <point x="436" y="536"/>
      <point x="497" y="460"/>
      <point x="601" y="460" type="curve" smooth="yes"/>
      <point x="740" y="460"/>
      <point x="844" y="593"/>
      <point x="844" y="725" type="curve" smooth="yes"/>
      <point x="844" y="824"/>
      <point x="783" y="900"/>
    </contour>
    <contour>
      <point x="253" y="606" type="curve" smooth="yes"/>
      <point x="253" y="841"/>
      <point x="448" y="1060"/>
      <point x="707" y="1060" type="curve" smooth="yes"/>
      <point x="901" y="1060"/>
      <point x="1027" y="934"/>
      <point x="1027" y="754" type="curve" smooth="yes"/>
      <point x="1027" y="519"/>
      <point x="832" y="300"/>
      <point x="573" y="300" type="curve" smooth="yes"/>
      <point x="379" y="300"/>
      <point x="253" y="426"/>
    </contour>
  </outline>
</glyph>
<glyph name="h" format="2">
  <advance width="1156"/>
  <unicode hex="0068"/>
  <anchor x="473" y="1380" name="top_center"/>
  <anchor x="598" y="0" name="bottom_center"/>
  <anchor x="226" y="-20" name="bottom_cedilla"/>
  <outline>
    <contour>
      <point x="836" y="0" type="line"/>
      <point x="937" y="572" type="line" smooth="yes"/>
      <point x="944" y="614"/>
      <point x="948" y="653"/>
      <point x="948" y="687" type="curve" smooth="yes"/>
      <point x="948" y="829"/>
      <point x="882" y="900"/>
      <point x="737" y="900" type="curve" smooth="yes"/>
      <point x="557" y="900"/>
      <point x="460" y="791"/>
      <point x="421" y="572" type="curve" smooth="yes"/>
      <point x="320" y="0" type="line"/>
      <point x="140" y="0" type="line"/>
      <point x="401" y="1480" type="line"/>
      <point x="573" y="1480" type="line"/>
      <point x="474" y="920" type="line"/>
      <point x="574" y="1005"/>
      <point x="680" y="1060"/>
      <point x="805" y="1060" type="curve" smooth="yes"/>
      <point x="1026" y="1060"/>
      <point x="1132" y="947"/>
      <point x="1132" y="730" type="curve" smooth="yes"/>
      <point x="1132" y="682"/>
      <point x="1127" y="630"/>
      <point x="1117" y="572" type="curve" smooth="yes"/>
      <point x="1016" y="0" type="line"/>
    </contour>
  </outline>
</glyph>
<glyph name="k" format="2">
  <advance width="1059"/>
  <unicode hex="006B"/>
  <anchor x="473" y="1380" name="top_center"/>
  <anchor x="568" y="0" name="bottom_center"/>
  <outline>
    <contour>
      <point x="516" y="562" type="line"/>
      <point x="650" y="702" type="line"/>
      <point x="1024" y="0" type="line"/>
      <point x="816" y="0" type="line"/>
    </contour>
    <contour>
      <point x="380" y="340" type="line"/>
      <point x="320" y="0" type="line"/>
      <point x="140" y="0" type="line"/>
      <point x="401" y="1480" type="line"/>
      <point x="581" y="1480" type="line"/>
      <point x="421" y="572" type="line"/>
      <point x="971" y="1040" type="line"/>
      <point x="1203" y="1040" type="line"/>
    </contour>
  </outline>
</glyph>
<glyph name="l" format="2">
  <advance width="509"/>
  <unicode hex="006C"/>
  <anchor x="345" y="1380" name="top_center"/>
  <anchor x="161" y="0" name="bottom_center"/>
  <outline>
    <contour>
      <point x="361" y="156" type="curve"/>
      <point x="376" y="4" type="line"/>
      <point x="352" y="-9"/>
      <point x="310" y="-20"/>
      <point x="278" y="-20" type="curve" smooth="yes"/>
      <point x="108" y="-20"/>
      <point x="22" y="60"/>
      <point x="52" y="230" type="curve" smooth="yes"/>
      <point x="89" y="440" type="line"/>
      <point x="113" y="578" type="line"/>
      <point x="272" y="1480" type="line"/>
      <point x="452" y="1480" type="line"/>
      <point x="293" y="578" type="line"/>
      <point x="269" y="440" type="line"/>
      <point x="232" y="230" type="line" smooth="yes"/>
      <point x="221" y="170"/>
      <point x="246" y="140"/>
      <point x="306" y="140" type="curve" smooth="yes"/>
      <point x="322" y="140"/>
      <point x="348" y="149"/>
    </contour>
  </outline>
</glyph>
<glyph name="m" format="2">
  <advance width="1672"/>
  <unicode hex="006D"/>
  <anchor x="1019" y="1040" name="top_center"/>
  <anchor x="836" y="0" name="bottom_center"/>
  <outline>
    <contour>
      <point x="746" y="0" type="line"/>
      <point x="847" y="572" type="line" smooth="yes"/>
      <point x="856" y="626"/>
      <point x="861" y="673"/>
      <point x="861" y="713" type="curve" smooth="yes"/>
      <point x="861" y="838"/>
      <point x="813" y="900"/>
      <point x="692" y="900" type="curve" smooth="yes"/>
      <point x="532" y="900"/>
      <point x="460" y="791"/>
      <point x="421" y="572" type="curve" smooth="yes"/>
      <point x="320" y="0" type="line"/>
      <point x="140" y="0" type="line"/>
      <point x="323" y="1040" type="line"/>
      <point x="491" y="1040" type="line"/>
      <point x="470" y="920" type="line"/>
      <point x="570" y="1005"/>
      <point x="627" y="1060"/>
      <point x="752" y="1060" type="curve" smooth="yes"/>
      <point x="889" y="1060"/>
      <point x="981" y="1007"/>
      <point x="1021" y="892" type="curve"/>
      <point x="1107" y="1003"/>
      <point x="1224" y="1060"/>
      <point x="1358" y="1060" type="curve" smooth="yes"/>
      <point x="1545" y="1060"/>
      <point x="1649" y="962"/>
      <point x="1649" y="742" type="curve" smooth="yes"/>
      <point x="1649" y="692"/>
      <point x="1644" y="635"/>
      <point x="1633" y="572" type="curve" smooth="yes"/>
      <point x="1532" y="0" type="line"/>
      <point x="1352" y="0" type="line"/>
      <point x="1453" y="572" type="line" smooth="yes"/>
      <point x="1462" y="626"/>
      <point x="1467" y="673"/>
      <point x="1467" y="713" type="curve" smooth="yes"/>
      <point x="1467" y="838"/>
      <point x="1419" y="900"/>
      <point x="1298" y="900" type="curve" smooth="yes"/>
      <point x="1138" y="900"/>
      <point x="1066" y="791"/>
      <point x="1027" y="572" type="curve" smooth="yes"/>
      <point x="926" y="0" type="line"/>
    </contour>
  </outline>
</glyph>
<glyph name="n" format="2">
  <advance width="1156"/>
  <unicode hex="006E"/>
  <anchor x="668" y="1040" name="top_center"/>
  <anchor x="485" y="0" name="bottom_center"/>
  <outline>
    <contour>
      <point x="743" y="0" type="line"/>
      <point x="843" y="572" type="line" smooth="yes"/>
      <point x="882" y="791"/>
      <point x="823" y="900"/>
      <point x="643" y="900" type="curve" smooth="yes"/>
      <point x="463" y="900"/>
      <point x="366" y="791"/>
      <point x="327" y="572" type="curve" smooth="yes"/>
      <point x="227" y="0" type="line"/>
      <point x="47" y="0" type="line"/>
      <point x="230" y="1040" type="line"/>
      <point x="398" y="1040" type="line"/>
      <point x="377" y="920" type="line"/>
      <point x="477" y="1005"/>
      <point x="586" y="1060"/>
      <point x="711" y="1060" type="curve" smooth="yes"/>
      <point x="981" y="1060"/>
      <point x="1079" y="892"/>
      <point x="1023" y="572" type="curve"/>
      <point x="923" y="0" type="line"/>
    </contour>
  </outline>
</glyph>
<glyph name="o" format="2">
  <advance width="1196"/>
  <unicode hex="006F"/>
  <anchor x="503" y="-20" name="bottom_cedilla"/>
  <anchor x="690" y="1040" name="top_center"/>
  <anchor x="506" y="0" name="bottom_center"/>
  <anchor x="1140" y="1040" name="top_right"/>
  <anchor x="646" y="0" name="bottom_right"/>
  <outline>
    <contour>
      <point x="280" y="520" type="curve" smooth="yes"/>
      <point x="241" y="300"/>
      <point x="340" y="140"/>
      <point x="531" y="140" type="curve" smooth="yes"/>
      <point x="722" y="140"/>
      <point x="877" y="300"/>
      <point x="916" y="520" type="curve" smooth="yes"/>
      <point x="955" y="740"/>
      <point x="856" y="900"/>
      <point x="665" y="900" type="curve" smooth="yes"/>
      <point x="474" y="900"/>
      <point x="319" y="740"/>
    </contour>
    <contour>
      <point x="100" y="520" type="curve" smooth="yes"/>
      <point x="155" y="832"/>
      <point x="412" y="1060"/>
      <point x="693" y="1060" type="curve" smooth="yes"/>
      <point x="974" y="1060"/>
      <point x="1151" y="832"/>
      <point x="1096" y="520" type="curve" smooth="yes"/>
      <point x="1041" y="208"/>
      <point x="784" y="-20"/>
      <point x="503" y="-20" type="curve" smooth="yes"/>
      <point x="222" y="-20"/>
      <point x="45" y="208"/>
    </contour>
  </outline>
</glyph>
<glyph name="p" format="2">
  <advance width="1184"/>
  <unicode hex="0070"/>
  <anchor x="735" y="1040" name="top_center"/>
  <anchor x="112" y="-360" name="bottom_center"/>
  <outline>
    <contour>
      <point x="345" y="520" type="curve" smooth="yes"/>
      <point x="304" y="290"/>
      <point x="396" y="140"/>
      <point x="576" y="140" type="curve" smooth="yes"/>
      <point x="756" y="140"/>
      <point x="900" y="290"/>
      <point x="941" y="520" type="curve" smooth="yes"/>
      <point x="982" y="750"/>
      <point x="890" y="900"/>
      <point x="710" y="900" type="curve" smooth="yes"/>
      <point x="530" y="900"/>
      <point x="386" y="750"/>
    </contour>
    <contour>
      <point x="239" y="872" type="line"/>
      <point x="257" y="974"/>
      <point x="269" y="1040"/>
      <point x="269" y="1040" type="curve"/>
      <point x="441" y="1040" type="line"/>
      <point x="420" y="920" type="line"/>
      <point x="520" y="1005"/>
      <point x="613" y="1060"/>
      <point x="738" y="1060" type="curve" smooth="yes"/>
      <point x="1019" y="1060"/>
      <point x="1176" y="832"/>
      <point x="1121" y="520" type="curve" smooth="yes"/>
      <point x="1066" y="208"/>
      <point x="829" y="-20"/>
      <point x="548" y="-20" type="curve" smooth="yes"/>
      <point x="423" y="-20"/>
      <point x="356" y="35"/>
      <point x="286" y="120" type="curve"/>
      <point x="188" y="-440" type="line"/>
      <point x="8" y="-440" type="line"/>
    </contour>
  </outline>
</glyph>
<glyph name="q" format="2">
  <advance width="1184"/>
  <unicode hex="0071"/>
  <anchor x="631" y="1040" name="top_center"/>
  <anchor x="761" y="-360" name="bottom_center"/>
  <outline>
    <contour>
      <point x="473" y="140" type="curve" smooth="yes"/>
      <point x="717" y="140"/>
      <point x="847" y="404"/>
      <point x="847" y="623" type="curve" smooth="yes"/>
      <point x="847" y="794"/>
      <point x="759" y="900"/>
      <point x="607" y="900" type="curve" smooth="yes"/>
      <point x="363" y="900"/>
      <point x="232" y="636"/>
      <point x="232" y="417" type="curve" smooth="yes"/>
      <point x="232" y="246"/>
      <point x="321" y="140"/>
    </contour>
    <contour>
      <point x="836" y="-440" type="line"/>
      <point x="656" y="-440" type="line"/>
      <point x="755" y="120" type="line"/>
      <point x="655" y="35"/>
      <point x="569" y="-20"/>
      <point x="444" y="-20" type="curve" smooth="yes"/>
      <point x="201" y="-20"/>
      <point x="51" y="151"/>
      <point x="51" y="400" type="curve" smooth="yes"/>
      <point x="51" y="730"/>
      <point x="292" y="1060"/>
      <point x="635" y="1060" type="curve" smooth="yes"/>
      <point x="760" y="1060"/>
      <point x="834" y="1005"/>
      <point x="904" y="920" type="curve"/>
      <point x="925" y="1040" type="line"/>
      <point x="1097" y="1040" type="line"/>
    </contour>
  </outline>
</glyph>
<glyph name="r" format="2">
  <advance width="842"/>
  <unicode hex="0072"/>
  <anchor x="671" y="1040" name="top_center"/>
  <anchor x="230" y="0" name="bottom_center"/>
  <outline>
    <contour>
      <point x="894" y="849" type="line"/>
      <point x="857" y="883"/>
      <point x="808" y="900"/>
      <point x="737" y="900" type="curve" smooth="yes"/>
      <point x="557" y="900"/>
      <point x="460" y="791"/>
      <point x="421" y="572" type="curve" smooth="yes"/>
      <point x="320" y="0" type="line"/>
      <point x="140" y="0" type="line"/>
      <point x="323" y="1040" type="line"/>
      <point x="491" y="1040" type="line"/>
      <point x="470" y="920" type="line"/>
      <point x="570" y="1005"/>
      <point x="680" y="1060"/>
      <point x="805" y="1060" type="curve" smooth="yes"/>
      <point x="873" y="1060"/>
      <point x="926" y="1049"/>
      <point x="973" y="1028" type="curve"/>
    </contour>
  </outline>
</glyph>
<glyph name="s" format="2">
  <advance width="1020"/>
  <unicode hex="0073"/>
  <anchor x="419" y="-20" name="bottom_cedilla"/>
  <anchor x="584" y="0" name="bottom_right"/>
  <anchor x="422" y="0" name="bottom_center"/>
  <anchor x="606" y="1040" name="top_center"/>
  <outline>
    <contour>
      <point x="609" y="1060" type="curve" smooth="yes"/>
      <point x="828" y="1060"/>
      <point x="938" y="953"/>
      <point x="951" y="808" type="curve"/>
      <point x="778" y="720" type="line"/>
      <point x="767" y="836"/>
      <point x="713" y="900"/>
      <point x="581" y="900" type="curve" smooth="yes"/>
      <point x="449" y="900"/>
      <point x="376" y="840"/>
      <point x="362" y="760" type="curve" smooth="yes"/>
      <point x="348" y="680"/>
      <point x="390" y="642"/>
      <point x="530" y="608" type="curve" smooth="yes"/>
      <point x="754" y="554"/>
      <point x="913" y="477"/>
      <point x="878" y="281" type="curve" smooth="yes"/>
      <point x="843" y="85"/>
      <point x="649" y="-20"/>
      <point x="419" y="-20" type="curve" smooth="yes"/>
      <point x="189" y="-20"/>
      <point x="66" y="108"/>
      <point x="53" y="253" type="curve"/>
      <point x="225" y="341" type="line"/>
      <point x="236" y="225"/>
      <point x="297" y="141"/>
      <point x="447" y="141" type="curve" smooth="yes"/>
      <point x="597" y="141"/>
      <point x="682" y="191"/>
      <point x="698" y="281" type="curve" smooth="yes"/>
      <point x="714" y="371"/>
      <point x="640" y="404"/>
      <point x="500" y="438" type="curve" smooth="yes"/>
      <point x="276" y="492"/>
      <point x="151" y="585"/>
      <point x="182" y="760" type="curve" smooth="yes"/>
      <point x="213" y="935"/>
      <point x="390" y="1060"/>
    </contour>
  </outline>
</glyph>
<glyph name="t" format="2">
  <advance width="815"/>
  <unicode hex="0074"/>
  <anchor x="479" y="1380" name="top_center"/>
  <anchor x="365" y="0" name="bottom_center"/>
  <anchor x="415" y="-20" name="bottom_cedilla"/>
  <outline>
    <contour>
      <point x="189" y="1028" type="line"/>
      <point x="279" y="1028"/>
      <point x="350" y="1092"/>
      <point x="366" y="1182" type="curve"/>
      <point x="390" y="1320" type="line"/>
      <point x="558" y="1320" type="line"/>
      <point x="509" y="1040" type="line"/>
      <point x="789" y="1040" type="line"/>
      <point x="761" y="880" type="line"/>
      <point x="481" y="880" type="line"/>
      <point x="378" y="300" type="line" smooth="yes"/>
      <point x="360" y="198"/>
      <point x="408" y="140"/>
      <point x="510" y="140" type="curve" smooth="yes"/>
      <point x="553" y="140"/>
      <point x="607" y="156"/>
      <point x="636" y="175" type="curve"/>
      <point x="653" y="12" type="line"/>
      <point x="605" y="-6"/>
      <point x="538" y="-20"/>
      <point x="482" y="-20" type="curve" smooth="yes"/>
      <point x="282" y="-20"/>
      <point x="163" y="101"/>
      <point x="198" y="300" type="curve" smooth="yes"/>
      <point x="301" y="880" type="line"/>
      <point x="91" y="880" type="line"/>
      <point x="117" y="1028" type="line"/>
    </contour>
  </outline>
</glyph>
<glyph name="u" format="2">
  <advance width="1156"/>
  <unicode hex="0075"/>
  <anchor x="534" y="-20" name="bottom_cedilla"/>
  <anchor x="1036" y="0" name="bottom_right"/>
  <anchor x="1199" y="1040" name="top_right"/>
  <anchor x="578" y="0" name="bottom_center"/>
  <anchor x="761" y="1040" name="top_center"/>
  <outline>
    <contour>
      <point x="503" y="1040" type="line"/>
      <point x="403" y="468" type="line" smooth="yes"/>
      <point x="396" y="426"/>
      <point x="391" y="387"/>
      <point x="391" y="353" type="curve" smooth="yes"/>
      <point x="391" y="211"/>
      <point x="458" y="140"/>
      <point x="603" y="140" type="curve" smooth="yes"/>
      <point x="783" y="140"/>
      <point x="880" y="249"/>
      <point x="919" y="468" type="curve" smooth="yes"/>
      <point x="1019" y="1040" type="line"/>
      <point x="1199" y="1040" type="line"/>
      <point x="1046" y="168" type="line" smooth="yes"/>
      <point x="1037" y="115"/>
      <point x="1034" y="72"/>
      <point x="1034" y="43" type="curve" smooth="yes"/>
      <point x="1034" y="16"/>
      <point x="1036" y="0"/>
      <point x="1036" y="0" type="curve"/>
      <point x="864" y="0" type="line"/>
      <point x="864" y="0"/>
      <point x="863" y="15"/>
      <point x="863" y="38" type="curve" smooth="yes"/>
      <point x="863" y="60"/>
      <point x="864" y="90"/>
      <point x="869" y="120" type="curve"/>
      <point x="769" y="35"/>
      <point x="659" y="-20"/>
      <point x="534" y="-20" type="curve" smooth="yes"/>
      <point x="313" y="-20"/>
      <point x="207" y="93"/>
      <point x="207" y="310" type="curve" smooth="yes"/>
      <point x="207" y="358"/>
      <point x="213" y="410"/>
      <point x="223" y="468" type="curve" smooth="yes"/>
      <point x="323" y="1040" type="line"/>
    </contour>
  </outline>
</glyph>
<glyph name="v" format="2">
  <advance width="1060"/>
  <unicode hex="0076"/>
  <anchor x="622" y="1040" name="top_center"/>
  <anchor x="438" y="0" name="bottom_center"/>
  <outline>
    <contour>
      <point x="478" y="224" type="line"/>
      <point x="890" y="1040" type="line"/>
      <point x="1082" y="1040" type="line"/>
      <point x="537" y="0" type="line"/>
      <point x="339" y="0" type="line"/>
      <point x="162" y="1040" type="line"/>
      <point x="354" y="1040" type="line"/>
    </contour>
  </outline>
</glyph>
<glyph name="w" format="2">
  <advance width="1594"/>
  <unicode hex="0077"/>
  <anchor x="888" y="1040" name="top_center"/>
  <anchor x="704" y="0" name="bottom_center"/>
  <outline>
    <contour>
      <point x="299" y="0" type="line"/>
      <point x="162" y="1040" type="line"/>
      <point x="352" y="1040" type="line"/>
      <point x="435" y="250" type="line"/>
      <point x="798" y="1040" type="line"/>
      <point x="978" y="1040" type="line"/>
      <point x="1061" y="250" type="line"/>
      <point x="1424" y="1040" type="line"/>
      <point x="1616" y="1040" type="line"/>
      <point x="1109" y="0" type="line"/>
      <point x="925" y="0" type="line"/>
      <point x="844" y="770" type="line"/>
      <point x="483" y="0" type="line"/>
    </contour>
  </outline>
</glyph>
<glyph name="x" format="2">
  <advance width="1092"/>
  <unicode hex="0078"/>
  <anchor x="599" y="1040" name="top_center"/>
  <anchor x="416" y="0" name="bottom_center"/>
  <outline>
    <contour>
      <point x="369" y="520" type="line"/>
      <point x="123" y="1040" type="line"/>
      <point x="331" y="1040" type="line"/>
      <point x="524" y="613" type="line"/>
      <point x="867" y="1040" type="line"/>
      <point x="1075" y="1040" type="line"/>
      <point x="646" y="520" type="line"/>
      <point x="892" y="0" type="line"/>
      <point x="684" y="0" type="line"/>
      <point x="490" y="430" type="line"/>
      <point x="150" y="0" type="line"/>
      <point x="-60" y="0" type="line"/>
    </contour>
  </outline>
</glyph>
<glyph name="y" format="2">
  <advance width="1077"/>
  <unicode hex="0079"/>
  <anchor x="662" y="1040" name="top_center"/>
  <anchor x="179" y="-360" name="bottom_center"/>
  <outline>
    <contour>
      <point x="456" y="-255" type="line"/>
      <point x="388" y="-385"/>
      <point x="261" y="-460"/>
      <point x="103" y="-460" type="curve" smooth="yes"/>
      <point x="47" y="-460"/>
      <point x="-15" y="-446"/>
      <point x="-57" y="-428" type="curve"/>
      <point x="17" y="-265" type="line"/>
      <point x="40" y="-284"/>
      <point x="88" y="-300"/>
      <point x="131" y="-300" type="curve" smooth="yes"/>
      <point x="208" y="-300"/>
      <point x="266" y="-267"/>
      <point x="298" y="-206" type="curve"/>
      <point x="407" y="0" type="line"/>
      <point x="225" y="1040" type="line"/>
      <point x="414" y="1040" type="line"/>
      <point x="538" y="224" type="line"/>
      <point x="950" y="1040" type="line"/>
      <point x="1139" y="1040" type="line"/>
      <point x="591" y="0" type="line"/>
    </contour>
  </outline>
</glyph>
<glyph name="z" format="2">
  <advance width="1020"/>
  <unicode hex="007A"/>
  <anchor x="695" y="1040" name="top_center"/>
  <anchor x="512" y="0" name="bottom_center"/>
  <outline>
    <contour>
      <point x="323" y="1040" type="line"/>
      <point x="1063" y="1040" type="line"/>
      <point x="1038" y="896" type="line"/>
      <point x="891" y="880" type="line"/>
      <point x="295" y="880" type="line"/>
    </contour>
    <contour>
      <point x="908" y="160" type="line"/>
      <point x="880" y="0" type="line"/>
      <point x="140" y="0" type="line"/>
      <point x="165" y="144" type="line"/>
      <point x="312" y="160" type="line"/>
    </contour>
    <contour>
      <point x="372" y="160" type="line"/>
      <point x="165" y="144" type="line"/>
      <point x="831" y="880" type="line"/>
      <point x="1038" y="896" type="line"/>
    </contour>
  </outline>
</glyph>
<glyph name="braceleft" format="2">
  <advance width="770"/>
  <unicode hex="007B"/>
  <outline>
    <contour>
      <point x="491" y="60" type="line" smooth="yes"/>
      <point x="486" y="33"/>
      <point x="483" y="9"/>
      <point x="483" y="-13" type="curve" smooth="yes"/>
      <point x="483" y="-118"/>
      <point x="541" y="-160"/>
      <point x="672" y="-160" type="curve"/>
      <point x="644" y="-320" type="line"/>
      <point x="424" y="-320"/>
      <point x="301" y="-227"/>
      <point x="301" y="-37" type="curve" smooth="yes"/>
      <point x="301" y="-7"/>
      <point x="305" y="25"/>
      <point x="311" y="60" type="curve" smooth="yes"/>
      <point x="372" y="410" type="line" smooth="yes"/>
      <point x="374" y="421"/>
      <point x="375" y="432"/>
      <point x="375" y="442" type="curve" smooth="yes"/>
      <point x="375" y="532"/>
      <point x="301" y="580"/>
      <point x="202" y="580" type="curve"/>
      <point x="230" y="740" type="line"/>
      <point x="425" y="740"/>
      <point x="559" y="654"/>
      <point x="559" y="480" type="curve" smooth="yes"/>
      <point x="559" y="458"/>
      <point x="556" y="435"/>
      <point x="552" y="410" type="curve" smooth="yes"/>
    </contour>
    <contour>
      <point x="702" y="1260" type="curve" smooth="yes"/>
      <point x="640" y="910" type="line" smooth="yes"/>
      <point x="601" y="690"/>
      <point x="422" y="580"/>
      <point x="202" y="580" type="curve"/>
      <point x="230" y="740" type="line"/>
      <point x="340" y="740"/>
      <point x="441" y="800"/>
      <point x="460" y="910" type="curve" smooth="yes"/>
      <point x="522" y="1260" type="line" smooth="yes"/>
      <point x="567" y="1515"/>
      <point x="734" y="1640"/>
      <point x="989" y="1640" type="curve"/>
      <point x="961" y="1480" type="line"/>
      <point x="803" y="1480"/>
      <point x="730" y="1418"/>
    </contour>
  </outline>
</glyph>
<glyph name="bar" format="2">
  <advance width="460"/>
  <unicode hex="007C"/>
  <outline>
    <contour>
      <point x="609" y="1640" type="line"/>
      <point x="242" y="-440" type="line"/>
      <point x="62" y="-440" type="line"/>
      <point x="429" y="1640" type="line"/>
    </contour>
  </outline>
</glyph>
<glyph name="braceright" format="2">
  <advance width="770"/>
  <unicode hex="007D"/>
  <outline>
    <contour>
      <point x="301" y="60" type="curve" smooth="yes"/>
      <point x="362" y="410" type="line" smooth="yes"/>
      <point x="401" y="630"/>
      <point x="580" y="740"/>
      <point x="800" y="740" type="curve"/>
      <point x="772" y="580" type="line"/>
      <point x="662" y="580"/>
      <point x="561" y="520"/>
      <point x="542" y="410" type="curve" smooth="yes"/>
      <point x="481" y="60" type="line" smooth="yes"/>
      <point x="436" y="-195"/>
      <point x="269" y="-320"/>
      <point x="14" y="-320" type="curve"/>
      <point x="42" y="-160" type="line"/>
      <point x="200" y="-160"/>
      <point x="273" y="-98"/>
    </contour>
    <contour>
      <point x="512" y="1260" type="line" smooth="yes"/>
      <point x="517" y="1287"/>
      <point x="519" y="1311"/>
      <point x="519" y="1333" type="curve" smooth="yes"/>
      <point x="519" y="1438"/>
      <point x="462" y="1480"/>
      <point x="331" y="1480" type="curve"/>
      <point x="359" y="1640" type="line"/>
      <point x="579" y="1640"/>
      <point x="701" y="1547"/>
      <point x="701" y="1357" type="curve" smooth="yes"/>
      <point x="701" y="1327"/>
      <point x="698" y="1295"/>
      <point x="692" y="1260" type="curve" smooth="yes"/>
      <point x="630" y="910" type="line" smooth="yes"/>
      <point x="628" y="899"/>
      <point x="628" y="888"/>
      <point x="628" y="878" type="curve" smooth="yes"/>
      <point x="628" y="788"/>
      <point x="701" y="740"/>
      <point x="800" y="740" type="curve"/>
      <point x="772" y="580" type="line"/>
      <point x="577" y="580"/>
      <point x="444" y="666"/>
      <point x="444" y="840" type="curve" smooth="yes"/>
      <point x="444" y="862"/>
      <point x="446" y="885"/>
      <point x="450" y="910" type="curve" smooth="yes"/>
    </contour>
  </outline>
</glyph>
<glyph name="sterling" format="2">
  <advance width="1300"/>
  <unicode hex="00A3"/>
  <outline>
    <contour>
      <point x="54" y="660" type="line"/>
      <point x="724" y="660" type="line"/>
      <point x="753" y="820" type="line"/>
      <point x="83" y="820" type="line"/>
    </contour>
    <contour>
      <point x="161" y="66" type="line"/>
      <point x="441" y="377"/>
      <point x="443" y="436"/>
      <point x="443" y="571" type="curve" smooth="yes"/>
      <point x="443" y="694"/>
      <point x="395" y="789"/>
      <point x="395" y="929" type="curve" smooth="yes"/>
      <point x="395" y="1252"/>
      <point x="623" y="1340"/>
      <point x="766" y="1340" type="curve" smooth="yes"/>
      <point x="924" y="1340"/>
      <point x="1029" y="1232"/>
      <point x="1029" y="1071" type="curve" smooth="yes"/>
      <point x="1029" y="1031"/>
      <point x="1023" y="991"/>
      <point x="1011" y="949" type="curve"/>
      <point x="1194" y="1000" type="line"/>
      <point x="1200" y="1036"/>
      <point x="1204" y="1071"/>
      <point x="1204" y="1104" type="curve" smooth="yes"/>
      <point x="1204" y="1345"/>
      <point x="1040" y="1500"/>
      <point x="794" y="1500" type="curve" smooth="yes"/>
      <point x="511" y="1500"/>
      <point x="213" y="1308"/>
      <point x="213" y="903" type="curve" smooth="yes"/>
      <point x="213" y="752"/>
      <point x="260" y="656"/>
      <point x="260" y="542" type="curve" smooth="yes"/>
      <point x="260" y="351"/>
      <point x="81" y="202"/>
      <point x="-5" y="141" type="curve"/>
    </contour>
    <contour>
      <point x="1067" y="211" type="line"/>
      <point x="1033" y="191"/>
      <point x="908" y="140"/>
      <point x="828" y="140" type="curve" smooth="yes"/>
      <point x="672" y="140"/>
      <point x="612" y="248"/>
      <point x="412" y="248" type="curve" smooth="yes"/>
      <point x="272" y="248"/>
      <point x="91" y="176"/>
      <point x="-5" y="141" type="curve"/>
      <point x="5" y="-20" type="line"/>
      <point x="126" y="34"/>
      <point x="266" y="88"/>
      <point x="384" y="88" type="curve" smooth="yes"/>
      <point x="540" y="88"/>
      <point x="599" y="-20"/>
      <point x="799" y="-20" type="curve" smooth="yes"/>
      <point x="919" y="-20"/>
      <point x="1028" y="23"/>
      <point x="1079" y="50" type="curve"/>
    </contour>
  </outline>
</glyph>
<glyph name="yen" format="2">
  <advance width="1392"/>
  <unicode hex="00A5"/>
  <outline>
    <contour>
      <point x="209" y="608" type="line"/>
      <point x="236" y="760" type="line"/>
      <point x="1164" y="760" type="line"/>
      <point x="1137" y="608" type="line"/>
    </contour>
    <contour>
      <point x="158" y="320" type="line"/>
      <point x="185" y="472" type="line"/>
      <point x="1113" y="472" type="line"/>
      <point x="1086" y="320" type="line"/>
    </contour>
    <contour>
      <point x="471" y="0" type="line"/>
      <point x="601" y="740" type="line"/>
      <point x="791" y="740" type="line"/>
      <point x="661" y="0" type="line"/>
    </contour>
    <contour>
      <point x="736" y="628" type="line"/>
      <point x="608" y="666" type="line"/>
      <point x="201" y="1480" type="line"/>
      <point x="415" y="1480" type="line"/>
      <point x="717" y="858" type="line"/>
      <point x="1239" y="1480" type="line"/>
      <point x="1453" y="1480" type="line"/>
    </contour>
  </outline>
</glyph>
<glyph name="dieresis" format="2">
  <advance width="844"/>
  <unicode hex="00A8"/>
  <outline>
    <contour>
      <point x="620" y="1318" type="curve" smooth="yes"/>
      <point x="620" y="1390"/>
      <point x="676" y="1446"/>
      <point x="748" y="1446" type="curve" smooth="yes"/>
      <point x="820" y="1446"/>
      <point x="876" y="1390"/>
      <point x="876" y="1318" type="curve" smooth="yes"/>
      <point x="876" y="1246"/>
      <point x="821" y="1190"/>
      <point x="749" y="1190" type="curve" smooth="yes"/>
      <point x="677" y="1190"/>
      <point x="620" y="1246"/>
    </contour>
    <contour>
      <point x="172" y="1318" type="curve" smooth="yes"/>
      <point x="172" y="1390"/>
      <point x="228" y="1446"/>
      <point x="300" y="1446" type="curve" smooth="yes"/>
      <point x="372" y="1446"/>
      <point x="428" y="1390"/>
      <point x="428" y="1318" type="curve" smooth="yes"/>
      <point x="428" y="1246"/>
      <point x="372" y="1190"/>
      <point x="300" y="1190" type="curve" smooth="yes"/>
      <point x="228" y="1190"/>
      <point x="172" y="1246"/>
    </contour>
  </outline>
</glyph>
<glyph name="ordfeminine" format="2">
  <advance width="852"/>
  <unicode hex="00AA"/>
  <outline>
    <contour>
      <point x="100" y="741" type="line"/>
      <point x="100" y="861" type="line"/>
      <point x="752" y="861" type="line"/>
      <point x="752" y="741" type="line"/>
    </contour>
    <contour>
      <point x="565" y="1049" type="curve"/>
      <point x="513" y="1001"/>
      <point x="448" y="980"/>
      <point x="376" y="980" type="curve" smooth="yes"/>
      <point x="210" y="980"/>
      <point x="116" y="1077"/>
      <point x="116" y="1191" type="curve" smooth="yes"/>
      <point x="116" y="1305"/>
      <point x="213" y="1402"/>
      <point x="376" y="1402" type="curve" smooth="yes"/>
      <point x="448" y="1402"/>
      <point x="510" y="1379"/>
      <point x="553" y="1341" type="curve"/>
      <point x="552" y="1438"/>
      <point x="485" y="1480"/>
      <point x="376" y="1480" type="curve" smooth="yes"/>
      <point x="268" y="1480"/>
      <point x="198" y="1433"/>
      <point x="198" y="1433" type="curve"/>
      <point x="146" y="1546" type="line"/>
      <point x="146" y="1546"/>
      <point x="219" y="1607"/>
      <point x="384" y="1607" type="curve" smooth="yes"/>
      <point x="543" y="1607"/>
      <point x="688" y="1557"/>
      <point x="688" y="1341" type="curve" smooth="yes"/>
      <point x="688" y="1273" type="line"/>
      <point x="688" y="1260" type="line"/>
      <point x="688" y="1131" type="line" smooth="yes"/>
      <point x="688" y="1100"/>
      <point x="705" y="1086"/>
      <point x="740" y="1086" type="curve"/>
      <point x="716" y="966" type="line"/>
      <point x="640" y="972"/>
      <point x="587" y="999"/>
    </contour>
    <contour>
      <point x="553" y="1192" type="curve"/>
      <point x="551" y="1250"/>
      <point x="505" y="1281"/>
      <point x="402" y="1281" type="curve" smooth="yes"/>
      <point x="297" y="1281"/>
      <point x="251" y="1248"/>
      <point x="251" y="1191" type="curve" smooth="yes"/>
      <point x="251" y="1134"/>
      <point x="297" y="1101"/>
      <point x="402" y="1101" type="curve" smooth="yes"/>
      <point x="487" y="1101"/>
      <point x="551" y="1130"/>
    </contour>
  </outline>
</glyph>
<glyph name="guillemotleft" format="2">
  <advance width="1122"/>
  <unicode hex="00AB"/>
  <outline>
    <contour>
      <point x="848" y="196" type="line"/>
      <point x="498" y="660" type="line"/>
      <point x="848" y="1126" type="line"/>
      <point x="1052" y="1126" type="line"/>
      <point x="698" y="660" type="line"/>
      <point x="1052" y="196" type="line"/>
    </contour>
    <contour>
      <point x="420" y="196" type="line"/>
      <point x="70" y="660" type="line"/>
      <point x="420" y="1126" type="line"/>
      <point x="624" y="1126" type="line"/>
      <point x="270" y="660" type="line"/>
      <point x="624" y="196" type="line"/>
    </contour>
  </outline>
</glyph>
<glyph name="logicalnot" format="2">
  <advance width="1232"/>
  <unicode hex="00AC"/>
  <outline>
    <contour>
      <point x="912" y="650" type="line"/>
      <point x="912" y="340" type="line"/>
      <point x="1092" y="340" type="line"/>
      <point x="1092" y="740" type="line"/>
    </contour>
    <contour>
      <point x="140" y="580" type="line"/>
      <point x="1002" y="580" type="line"/>
      <point x="1092" y="740" type="line"/>
      <point x="140" y="740" type="line"/>
    </contour>
  </outline>
</glyph>
<glyph name="registered" format="2">
  <advance width="1720"/>
  <unicode hex="00AE"/>
  <outline>
    <contour>
      <point x="220" y="740" type="curve" smooth="yes"/>
      <point x="220" y="380"/>
      <point x="500" y="100"/>
      <point x="860" y="100" type="curve" smooth="yes"/>
      <point x="1220" y="100"/>
      <point x="1500" y="380"/>
      <point x="1500" y="740" type="curve" smooth="yes"/>
      <point x="1500" y="1100"/>
      <point x="1220" y="1380"/>
      <point x="860" y="1380" type="curve" smooth="yes"/>
      <point x="500" y="1380"/>
      <point x="220" y="1100"/>
    </contour>
    <contour>
      <point x="100" y="740" type="curve" smooth="yes"/>
      <point x="100" y="1160"/>
      <point x="440" y="1500"/>
      <point x="860" y="1500" type="curve" smooth="yes"/>
      <point x="1280" y="1500"/>
      <point x="1620" y="1160"/>
      <point x="1620" y="740" type="curve" smooth="yes"/>
      <point x="1620" y="320"/>
      <point x="1280" y="-20"/>
      <point x="860" y="-20" type="curve" smooth="yes"/>
      <point x="440" y="-20"/>
      <point x="100" y="320"/>
    </contour>
    <contour>
      <point x="573" y="311" type="line"/>
      <point x="573" y="1169" type="line"/>
      <point x="871" y="1169" type="line" smooth="yes"/>
      <point x="1032" y="1169"/>
      <point x="1172" y="1050"/>
      <point x="1172" y="897" type="curve" smooth="yes"/>
      <point x="1172" y="744"/>
      <point x="1037" y="624"/>
      <point x="881" y="624" type="curve" smooth="yes"/>
      <point x="708" y="624" type="line"/>
      <point x="708" y="311" type="line"/>
    </contour>
    <contour>
      <point x="708" y="1049" type="line"/>
      <point x="708" y="744" type="line"/>
      <point x="872" y="744" type="line" smooth="yes"/>
      <point x="968" y="744"/>
      <point x="1037" y="809"/>
      <point x="1037" y="897" type="curve" smooth="yes"/>
      <point x="1037" y="985"/>
      <point x="968" y="1049"/>
      <point x="872" y="1049" type="curve" smooth="yes"/>
    </contour>
    <contour>
      <point x="855" y="634" type="line"/>
      <point x="982" y="673" type="line"/>
      <point x="1192" y="311" type="line"/>
      <point x="1036" y="311" type="line"/>
    </contour>
  </outline>
</glyph>
<glyph name="two.superior" format="2">
  <advance width="796"/>
  <unicode hex="00B2"/>
  <outline>
    <contour>
      <point x="334" y="1343" type="line"/>
      <point x="344" y="1491"/>
      <point x="453" y="1560"/>
      <point x="543" y="1560" type="curve" smooth="yes"/>
      <point x="634" y="1560"/>
      <point x="690" y="1511"/>
      <point x="690" y="1431" type="curve" smooth="yes"/>
      <point x="690" y="1316"/>
      <point x="618" y="1278"/>
      <point x="470" y="1200" type="curve" smooth="yes"/>
      <point x="149" y="1032"/>
      <point x="117" y="920"/>
      <point x="98" y="810" type="curve"/>
      <point x="724" y="810" type="line"/>
      <point x="745" y="930" type="line"/>
      <point x="279" y="930" type="line"/>
      <point x="308" y="982"/>
      <point x="394" y="1027"/>
      <point x="509" y="1087" type="curve" smooth="yes"/>
      <point x="636" y="1154"/>
      <point x="831" y="1255"/>
      <point x="831" y="1467" type="curve" smooth="yes"/>
      <point x="831" y="1598"/>
      <point x="723" y="1680"/>
      <point x="564" y="1680" type="curve" smooth="yes"/>
      <point x="387" y="1680"/>
      <point x="235" y="1560"/>
      <point x="203" y="1380" type="curve"/>
    </contour>
  </outline>
</glyph>
<glyph name="three.superior" format="2">
  <advance width="796"/>
  <unicode hex="00B3"/>
  <outline>
    <contour>
      <point x="604" y="1460" type="curve" smooth="yes"/>
      <point x="604" y="1389"/>
      <point x="542" y="1317"/>
      <point x="412" y="1317" type="curve" smooth="yes"/>
      <point x="354" y="1317" type="line"/>
      <point x="334" y="1202" type="line"/>
      <point x="393" y="1202" type="line" smooth="yes"/>
      <point x="505" y="1202"/>
      <point x="569" y="1154"/>
      <point x="569" y="1083" type="curve" smooth="yes"/>
      <point x="569" y="998"/>
      <point x="489" y="919"/>
      <point x="342" y="919" type="curve" smooth="yes"/>
      <point x="230" y="919"/>
      <point x="168" y="984"/>
      <point x="168" y="1059" type="curve" smooth="yes"/>
      <point x="168" y="1067"/>
      <point x="169" y="1075"/>
      <point x="170" y="1083" type="curve"/>
      <point x="30" y="1047" type="line"/>
      <point x="30" y="1042"/>
      <point x="29" y="1038"/>
      <point x="29" y="1033" type="curve" smooth="yes"/>
      <point x="29" y="894"/>
      <point x="143" y="798"/>
      <point x="321" y="798" type="curve" smooth="yes"/>
      <point x="547" y="798"/>
      <point x="704" y="941"/>
      <point x="704" y="1088" type="curve" smooth="yes"/>
      <point x="704" y="1162"/>
      <point x="660" y="1222"/>
      <point x="584" y="1263" type="curve"/>
      <point x="636" y="1289"/>
      <point x="741" y="1358"/>
      <point x="741" y="1482" type="curve" smooth="yes"/>
      <point x="741" y="1596"/>
      <point x="639" y="1680"/>
      <point x="476" y="1680" type="curve" smooth="yes"/>
      <point x="297" y="1680"/>
      <point x="171" y="1576"/>
      <point x="132" y="1452" type="curve"/>
      <point x="260" y="1416" type="line"/>
      <point x="273" y="1489"/>
      <point x="349" y="1559"/>
      <point x="455" y="1559" type="curve" smooth="yes"/>
      <point x="551" y="1559"/>
      <point x="604" y="1521"/>
    </contour>
  </outline>
</glyph>
<glyph name="paragraph" format="2">
  <advance width="1318"/>
  <unicode hex="00B6"/>
  <outline>
    <contour>
      <point x="1312" y="1500" type="line"/>
      <point x="701" y="1500" type="line"/>
      <point x="673" y="1340" type="line"/>
      <point x="1284" y="1340" type="line"/>
    </contour>
    <contour>
      <point x="990" y="1439" type="line"/>
      <point x="658" y="-440" type="line"/>
      <point x="810" y="-440" type="line"/>
      <point x="1142" y="1439" type="line"/>
    </contour>
    <contour>
      <point x="630" y="1440" type="line"/>
      <point x="298" y="-440" type="line"/>
      <point x="450" y="-440" type="line"/>
      <point x="782" y="1440" type="line"/>
    </contour>
    <contour>
      <point x="701" y="1500" type="line"/>
      <point x="363" y="1500"/>
      <point x="149" y="1241"/>
      <point x="149" y="969" type="curve" smooth="yes"/>
      <point x="149" y="751"/>
      <point x="307" y="616"/>
      <point x="546" y="616" type="curve"/>
    </contour>
  </outline>
</glyph>
<glyph name="periodcentered" format="2">
  <advance width="500"/>
  <unicode hex="00B7"/>
  <outline>
    <contour>
      <point x="241" y="660" type="curve" smooth="yes"/>
      <point x="241" y="732"/>
      <point x="294" y="789"/>
      <point x="366" y="789" type="curve" smooth="yes"/>
      <point x="438" y="789"/>
      <point x="493" y="732"/>
      <point x="493" y="660" type="curve" smooth="yes"/>
      <point x="493" y="588"/>
      <point x="438" y="533"/>
      <point x="366" y="533" type="curve" smooth="yes"/>
      <point x="294" y="533"/>
      <point x="241" y="588"/>
    </contour>
  </outline>
</glyph>
<glyph name="cedilla" format="2">
  <advance width="552"/>
  <unicode hex="00B8"/>
  <outline>
    <contour>
      <point x="286" y="-190" type="curve" smooth="yes"/>
      <point x="286" y="-289"/>
      <point x="186" y="-380"/>
      <point x="75" y="-380" type="curve" smooth="yes"/>
      <point x="9" y="-380"/>
      <point x="-54" y="-352"/>
      <point x="-81" y="-291" type="curve"/>
      <point x="38" y="-229" type="line"/>
      <point x="51" y="-258"/>
      <point x="75" y="-263"/>
      <point x="96" y="-263" type="curve" smooth="yes"/>
      <point x="131" y="-263"/>
      <point x="158" y="-236"/>
      <point x="158" y="-209" type="curve" smooth="yes"/>
      <point x="158" y="-188"/>
      <point x="141" y="-169"/>
      <point x="112" y="-169" type="curve" smooth="yes"/>
      <point x="90" y="-169"/>
      <point x="70" y="-178"/>
      <point x="60" y="-192" type="curve"/>
      <point x="-36" y="-131" type="line"/>
      <point x="4" y="-85"/>
      <point x="68" y="-52"/>
      <point x="133" y="-52" type="curve" smooth="yes"/>
      <point x="223" y="-52"/>
      <point x="286" y="-112"/>
    </contour>
    <contour>
      <point x="63" y="0" type="line"/>
      <point x="191" y="0" type="line"/>
      <point x="66" y="-165" type="line"/>
      <point x="60" y="-192" type="line"/>
      <point x="-36" y="-131" type="line"/>
    </contour>
  </outline>
</glyph>
<glyph name="one.superior" format="2">
  <advance width="796"/>
  <unicode hex="00B9"/>
  <outline>
    <contour>
      <point x="390" y="1389" type="line"/>
      <point x="288" y="810" type="line"/>
      <point x="423" y="810" type="line"/>
      <point x="574" y="1668" type="line"/>
      <point x="447" y="1668" type="line"/>
      <point x="440" y="1628" type="line" smooth="yes"/>
      <point x="427" y="1557"/>
      <point x="348" y="1503"/>
      <point x="273" y="1503" type="curve" smooth="yes"/>
      <point x="227" y="1503" type="line"/>
      <point x="207" y="1389" type="line"/>
    </contour>
  </outline>
</glyph>
<glyph name="guillemotright" format="2">
  <advance width="1122"/>
  <unicode hex="00BB"/>
  <outline>
    <contour>
      <point x="179" y="196" type="line"/>
      <point x="610" y="660" type="line"/>
      <point x="343" y="1126" type="line"/>
      <point x="139" y="1126" type="line"/>
      <point x="410" y="660" type="line"/>
      <point x="-25" y="196" type="line"/>
    </contour>
    <contour>
      <point x="607" y="196" type="line"/>
      <point x="1038" y="660" type="line"/>
      <point x="771" y="1126" type="line"/>
      <point x="567" y="1126" type="line"/>
      <point x="838" y="660" type="line"/>
      <point x="403" y="196" type="line"/>
    </contour>
  </outline>
</glyph>
<glyph name="questiondown" format="2">
  <advance width="1144"/>
  <unicode hex="00BF"/>
  <outline>
    <contour>
      <point x="740" y="62" type="line"/>
      <point x="740" y="-90"/>
      <point x="616" y="-300"/>
      <point x="389" y="-300" type="curve" smooth="yes"/>
      <point x="224" y="-300"/>
      <point x="143" y="-203"/>
      <point x="143" y="-74" type="curve" smooth="yes"/>
      <point x="143" y="84"/>
      <point x="254" y="264"/>
      <point x="489" y="264" type="curve"/>
      <point x="518" y="432" type="line"/>
      <point x="217" y="432"/>
      <point x="-40" y="194"/>
      <point x="-40" y="-102" type="curve" smooth="yes"/>
      <point x="-40" y="-322"/>
      <point x="122" y="-460"/>
      <point x="361" y="-460" type="curve" smooth="yes"/>
      <point x="631" y="-460"/>
      <point x="867" y="-262"/>
      <point x="915" y="8" type="curve"/>
    </contour>
    <contour>
      <point x="737" y="933" type="curve" smooth="yes"/>
      <point x="737" y="861"/>
      <point x="684" y="804"/>
      <point x="612" y="804" type="curve" smooth="yes"/>
      <point x="540" y="804"/>
      <point x="485" y="861"/>
      <point x="485" y="933" type="curve" smooth="yes"/>
      <point x="485" y="1005"/>
      <point x="539" y="1060"/>
      <point x="611" y="1060" type="curve" smooth="yes"/>
      <point x="683" y="1060"/>
      <point x="737" y="1005"/>
    </contour>
    <contour>
      <point x="636" y="588" type="line"/>
      <point x="456" y="588" type="line"/>
      <point x="399" y="264" type="line"/>
      <point x="579" y="264" type="line"/>
    </contour>
  </outline>
</glyph>
<glyph name="AE" format="2">
  <advance width="2184"/>
  <unicode hex="00C6"/>
  <anchor x="1117" y="0" name="bottom_center"/>
  <anchor x="1477" y="1380" name="top_center"/>
  <outline>
    <contour>
      <point x="910" y="1312" type="line"/>
      <point x="910" y="1480" type="line"/>
      <point x="1116" y="1480" type="line"/>
      <point x="1116" y="1312" type="line"/>
    </contour>
    <contour>
      <point x="474" y="604" type="line"/>
      <point x="1116" y="604" type="line"/>
      <point x="1116" y="436" type="line"/>
      <point x="474" y="436" type="line"/>
    </contour>
    <contour>
      <point x="70" y="0" type="line"/>
      <point x="910" y="1480" type="line"/>
      <point x="1116" y="1480" type="line"/>
      <point x="290" y="0" type="line"/>
    </contour>
    <contour>
      <point x="1949" y="824" type="line"/>
      <point x="1949" y="656" type="line"/>
      <point x="1306" y="656" type="line"/>
      <point x="1306" y="168" type="line"/>
      <point x="2044" y="168" type="line"/>
      <point x="2044" y="0" type="line"/>
      <point x="1116" y="0" type="line"/>
      <point x="1116" y="1480" type="line"/>
      <point x="2044" y="1480" type="line"/>
      <point x="2044" y="1312" type="line"/>
      <point x="1306" y="1312" type="line"/>
      <point x="1306" y="824" type="line"/>
    </contour>
  </outline>
</glyph>
<glyph name="Eth" format="2">
  <advance width="1448"/>
  <unicode hex="00D0"/>
  <outline>
    <contour>
      <point x="656" y="656" type="line"/>
      <point x="685" y="824" type="line"/>
      <point x="15" y="824" type="line"/>
      <point x="-14" y="656" type="line"/>
    </contour>
    <contour>
      <point x="1170" y="871" type="curve" smooth="yes"/>
      <point x="1170" y="516"/>
      <point x="914" y="168"/>
      <point x="582" y="168" type="curve" smooth="yes"/>
      <point x="300" y="168" type="line"/>
      <point x="501" y="1312" type="line"/>
      <point x="783" y="1312" type="line" smooth="yes"/>
      <point x="1016" y="1312"/>
      <point x="1170" y="1134"/>
    </contour>
    <contour>
      <point x="552" y="0" type="line" smooth="yes"/>
      <point x="1035" y="0"/>
      <point x="1363" y="448"/>
      <point x="1363" y="908" type="curve" smooth="yes"/>
      <point x="1363" y="1261"/>
      <point x="1143" y="1480"/>
      <point x="813" y="1480" type="curve" smooth="yes"/>
      <point x="341" y="1480" type="line"/>
      <point x="80" y="0" type="line"/>
    </contour>
  </outline>
</glyph>
<glyph name="multiply" format="2">
  <advance width="1232"/>
  <unicode hex="00D7"/>
  <outline>
    <contour>
      <point x="189" y="1016" type="line"/>
      <point x="874" y="184" type="line"/>
      <point x="1016" y="304" type="line"/>
      <point x="330" y="1136" type="line"/>
    </contour>
    <contour>
      <point x="162" y="184" type="line"/>
      <point x="1141" y="1016" type="line"/>
      <point x="1042" y="1136" type="line"/>
      <point x="64" y="304" type="line"/>
    </contour>
  </outline>
</glyph>
<glyph name="Oslash" format="2">
  <advance width="1602"/>
  <unicode hex="00D8"/>
  <anchor x="801" y="1380" name="top_center"/>
  <anchor x="801" y="0" name="bottom_center"/>
  <outline>
    <contour>
      <point x="1365" y="1596" type="line"/>
      <point x="1493" y="1500" type="line"/>
      <point x="236" y="-116" type="line"/>
      <point x="108" y="-20" type="line"/>
    </contour>
    <contour>
      <point x="290" y="740" type="curve" smooth="yes"/>
      <point x="290" y="390"/>
      <point x="511" y="148"/>
      <point x="801" y="148" type="curve" smooth="yes"/>
      <point x="1091" y="148"/>
      <point x="1312" y="390"/>
      <point x="1312" y="740" type="curve" smooth="yes"/>
      <point x="1312" y="1090"/>
      <point x="1091" y="1332"/>
      <point x="801" y="1332" type="curve" smooth="yes"/>
      <point x="511" y="1332"/>
      <point x="290" y="1090"/>
    </contour>
    <contour>
      <point x="100" y="740" type="curve" smooth="yes"/>
      <point x="100" y="1179"/>
      <point x="406" y="1500"/>
      <point x="801" y="1500" type="curve" smooth="yes"/>
      <point x="1196" y="1500"/>
      <point x="1502" y="1179"/>
      <point x="1502" y="740" type="curve" smooth="yes"/>
      <point x="1502" y="301"/>
      <point x="1196" y="-20"/>
      <point x="801" y="-20" type="curve" smooth="yes"/>
      <point x="406" y="-20"/>
      <point x="100" y="301"/>
    </contour>
  </outline>
</glyph>
<glyph name="germandbls" format="2">
  <advance width="1224"/>
  <unicode hex="00DF"/>
  <outline>
    <contour>
      <point x="891" y="459" type="curve" smooth="yes"/>
      <point x="891" y="361"/>
      <point x="819" y="140"/>
      <point x="545" y="140" type="curve" smooth="yes"/>
      <point x="475" y="140"/>
      <point x="388" y="153"/>
      <point x="344" y="179" type="curve"/>
      <point x="270" y="20" type="line"/>
      <point x="331" y="-6"/>
      <point x="434" y="-20"/>
      <point x="516" y="-20" type="curve" smooth="yes"/>
      <point x="904" y="-20"/>
      <point x="1073" y="275"/>
      <point x="1073" y="488" type="curve" smooth="yes"/>
      <point x="1073" y="705"/>
      <point x="888" y="852"/>
      <point x="617" y="852" type="curve"/>
      <point x="589" y="692" type="line"/>
      <point x="770" y="692"/>
      <point x="891" y="594"/>
    </contour>
    <contour>
      <point x="656" y="729" type="line"/>
      <point x="957" y="729"/>
      <point x="1102" y="945"/>
      <point x="1102" y="1164" type="curve" smooth="yes"/>
      <point x="1102" y="1372"/>
      <point x="948" y="1500"/>
      <point x="721" y="1500" type="curve" smooth="yes"/>
      <point x="466" y="1500"/>
      <point x="246" y="1337"/>
      <point x="201" y="1082" type="curve" smooth="yes"/>
      <point x="156" y="827"/>
      <point x="10" y="0"/>
      <point x="10" y="0" type="curve"/>
      <point x="190" y="0" type="line"/>
      <point x="190" y="0"/>
      <point x="353" y="924"/>
      <point x="381" y="1082" type="curve" smooth="yes"/>
      <point x="409" y="1242"/>
      <point x="543" y="1340"/>
      <point x="693" y="1340" type="curve" smooth="yes"/>
      <point x="825" y="1340"/>
      <point x="920" y="1272"/>
      <point x="920" y="1139" type="curve" smooth="yes"/>
      <point x="920" y="1121"/>
      <point x="915" y="852"/>
      <point x="617" y="852" type="curve"/>
    </contour>
  </outline>
</glyph>
<glyph name="thorn" format="2">
  <advance width="1184"/>
  <unicode hex="00FE"/>
  <outline>
    <contour>
      <point x="308" y="520" type="curve" smooth="yes"/>
      <point x="308" y="290"/>
      <point x="426" y="140"/>
      <point x="606" y="140" type="curve" smooth="yes"/>
      <point x="786" y="140"/>
      <point x="904" y="290"/>
      <point x="904" y="520" type="curve" smooth="yes"/>
      <point x="904" y="750"/>
      <point x="786" y="900"/>
      <point x="606" y="900" type="curve" smooth="yes"/>
      <point x="426" y="900"/>
      <point x="308" y="750"/>
    </contour>
    <contour>
      <point x="140" y="872" type="line"/>
      <point x="140" y="1480" type="line"/>
      <point x="320" y="1480" type="line"/>
      <point x="320" y="1480"/>
      <point x="320" y="980"/>
      <point x="320" y="920" type="curve"/>
      <point x="405" y="1005"/>
      <point x="481" y="1060"/>
      <point x="606" y="1060" type="curve" smooth="yes"/>
      <point x="887" y="1060"/>
      <point x="1084" y="832"/>
      <point x="1084" y="520" type="curve" smooth="yes"/>
      <point x="1084" y="208"/>
      <point x="887" y="-20"/>
      <point x="606" y="-20" type="curve" smooth="yes"/>
      <point x="481" y="-20"/>
      <point x="405" y="35"/>
      <point x="320" y="120" type="curve"/>
      <point x="320" y="-440" type="line"/>
      <point x="140" y="-440" type="line"/>
    </contour>
  </outline>
</glyph>
<glyph name="dcaron" format="2">
  <advance width="1575"/>
  <unicode hex="010F"/>
  <outline>
    <contour>
      <point x="1315" y="1372" type="curve" smooth="yes"/>
      <point x="1315" y="1444"/>
      <point x="1371" y="1500"/>
      <point x="1443" y="1500" type="curve" smooth="yes"/>
      <point x="1513" y="1500"/>
      <point x="1571" y="1424"/>
      <point x="1571" y="1372" type="curve" smooth="yes"/>
      <point x="1571" y="1300"/>
      <point x="1515" y="1244"/>
      <point x="1443" y="1244" type="curve" smooth="yes"/>
      <point x="1371" y="1244"/>
      <point x="1315" y="1300"/>
    </contour>
    <contour>
      <point x="1263" y="1103" type="line"/>
      <point x="1396" y="1132"/>
      <point x="1443" y="1248"/>
      <point x="1443" y="1292" type="curve" smooth="yes"/>
      <point x="1443" y="1322"/>
      <point x="1421" y="1372"/>
      <point x="1421" y="1372" type="curve"/>
      <point x="1443" y="1500" type="line"/>
      <point x="1503" y="1500"/>
      <point x="1575" y="1456"/>
      <point x="1575" y="1349" type="curve" smooth="yes"/>
      <point x="1575" y="1113"/>
      <point x="1348" y="1007"/>
      <point x="1272" y="988" type="curve"/>
    </contour>
    <contour>
      <point x="473" y="140" type="curve" smooth="yes"/>
      <point x="717" y="140"/>
      <point x="847" y="404"/>
      <point x="847" y="623" type="curve" smooth="yes"/>
      <point x="847" y="794"/>
      <point x="759" y="900"/>
      <point x="607" y="900" type="curve" smooth="yes"/>
      <point x="363" y="900"/>
      <point x="232" y="636"/>
      <point x="232" y="417" type="curve" smooth="yes"/>
      <point x="232" y="246"/>
      <point x="321" y="140"/>
    </contour>
    <contour>
      <point x="51" y="400" type="curve" smooth="yes"/>
      <point x="51" y="730"/>
      <point x="292" y="1060"/>
      <point x="635" y="1060" type="curve" smooth="yes"/>
      <point x="760" y="1060"/>
      <point x="826" y="1005"/>
      <point x="896" y="920" type="curve"/>
      <point x="995" y="1480" type="line"/>
      <point x="1175" y="1480" type="line"/>
      <point x="944" y="168" type="line" smooth="yes"/>
      <point x="935" y="115"/>
      <point x="932" y="72"/>
      <point x="932" y="43" type="curve" smooth="yes"/>
      <point x="932" y="16"/>
      <point x="934" y="0"/>
      <point x="934" y="0" type="curve"/>
      <point x="762" y="0" type="line"/>
      <point x="762" y="0"/>
      <point x="761" y="15"/>
      <point x="761" y="38" type="curve" smooth="yes"/>
      <point x="761" y="60"/>
      <point x="762" y="90"/>
      <point x="767" y="120" type="curve"/>
      <point x="667" y="35"/>
      <point x="569" y="-20"/>
      <point x="444" y="-20" type="curve" smooth="yes"/>
      <point x="201" y="-20"/>
      <point x="51" y="151"/>
    </contour>
  </outline>
</glyph>
<glyph name="dcroat" format="2">
  <advance width="1254"/>
  <unicode hex="0111"/>
  <outline>
    <contour>
      <point x="1329" y="1160" type="line"/>
      <point x="659" y="1160" type="line"/>
      <point x="687" y="1320" type="line"/>
      <point x="1357" y="1320" type="line"/>
    </contour>
    <contour>
      <point x="473" y="140" type="curve" smooth="yes"/>
      <point x="718.37" y="140"/>
      <point x="847.651" y="406.211"/>
      <point x="847.651" y="622.983" type="curve" smooth="yes"/>
      <point x="847.651" y="793.751"/>
      <point x="758.492" y="900"/>
      <point x="607" y="900" type="curve" smooth="yes"/>
      <point x="361.63" y="900"/>
      <point x="232.349" y="633.789"/>
      <point x="232.349" y="417.017" type="curve" smooth="yes"/>
      <point x="232.349" y="246.249"/>
      <point x="321.508" y="140"/>
    </contour>
    <contour>
      <point x="51.0492" y="399.456" type="curve" smooth="yes"/>
      <point x="51.0492" y="730.067"/>
      <point x="291.947" y="1060"/>
      <point x="635" y="1060" type="curve" smooth="yes"/>
      <point x="760" y="1060"/>
      <point x="826" y="1005"/>
      <point x="896" y="920" type="curve"/>
      <point x="995" y="1480" type="line"/>
      <point x="1175" y="1480" type="line"/>
      <point x="944" y="168" type="line" smooth="yes"/>
      <point x="934.471" y="114"/>
      <point x="932.228" y="70.09"/>
      <point x="932.228" y="40.7214" type="curve" smooth="yes"/>
      <point x="932.228" y="14.6159"/>
      <point x="934" y="8.88178e-15"/>
      <point x="934" y="0" type="curve"/>
      <point x="762" y="0" type="line"/>
      <point x="762" y="0"/>
      <point x="760.367" y="16.3327"/>
      <point x="760.367" y="40.4767" type="curve" smooth="yes"/>
      <point x="760.367" y="62.6087"/>
      <point x="761.739" y="91.3043"/>
      <point x="767" y="120" type="curve"/>
      <point x="667" y="35"/>
      <point x="569" y="-20"/>
      <point x="444" y="-20" type="curve" smooth="yes"/>
      <point x="200.651" y="-20"/>
      <point x="51.0492" y="150.994"/>
    </contour>
  </outline>
</glyph>
<glyph name="Hbar" format="2">
  <advance width="1398"/>
  <unicode hex="0126"/>
  <outline>
    <contour>
      <point x="1445" y="1004" type="line"/>
      <point x="47" y="1004" type="line"/>
      <point x="74" y="1156" type="line"/>
      <point x="1472" y="1156" type="line"/>
    </contour>
    <contour>
      <point x="271" y="1480" type="line"/>
      <point x="461" y="1480" type="line"/>
      <point x="345" y="824" type="line"/>
      <point x="1083" y="824" type="line"/>
      <point x="1199" y="1480" type="line"/>
      <point x="1389" y="1480" type="line"/>
      <point x="1128" y="0" type="line"/>
      <point x="938" y="0" type="line"/>
      <point x="1054" y="656" type="line"/>
      <point x="316" y="656" type="line"/>
      <point x="200" y="0" type="line"/>
      <point x="10" y="0" type="line"/>
    </contour>
  </outline>
</glyph>
<glyph name="hbar" format="2">
  <advance width="1276"/>
  <unicode hex="0127"/>
  <outline>
    <contour>
      <point x="795" y="1160" type="line"/>
      <point x="125" y="1160" type="line"/>
      <point x="153" y="1320" type="line"/>
      <point x="823" y="1320" type="line"/>
    </contour>
    <contour>
      <point x="826" y="0" type="line"/>
      <point x="927" y="572" type="line" smooth="yes"/>
      <point x="935" y="615"/>
      <point x="938" y="653"/>
      <point x="938" y="687" type="curve" smooth="yes"/>
      <point x="938" y="829"/>
      <point x="872" y="900"/>
      <point x="727" y="900" type="curve" smooth="yes"/>
      <point x="547" y="900"/>
      <point x="450" y="791"/>
      <point x="411" y="572" type="curve" smooth="yes"/>
      <point x="310" y="0" type="line"/>
      <point x="130" y="0" type="line"/>
      <point x="391" y="1480" type="line"/>
      <point x="563" y="1480" type="line"/>
      <point x="464" y="920" type="line"/>
      <point x="564" y="1005"/>
      <point x="670" y="1060"/>
      <point x="795" y="1060" type="curve" smooth="yes"/>
      <point x="1016" y="1060"/>
      <point x="1122" y="947"/>
      <point x="1122" y="730" type="curve" smooth="yes"/>
      <point x="1122" y="682"/>
      <point x="1117" y="630"/>
      <point x="1107" y="572" type="curve" smooth="yes"/>
      <point x="1006" y="0" type="line"/>
    </contour>
  </outline>
</glyph>
<glyph name="dotlessi" format="2">
  <advance width="460"/>
  <unicode hex="0131"/>
  <anchor x="136" y="-20" name="bottom_cedilla"/>
  <anchor x="322" y="1040" name="top_center"/>
  <anchor x="138" y="0" name="bottom_center"/>
  <anchor x="228" y="0" name="bottom_right"/>
  <outline>
    <contour>
      <point x="48" y="0" type="line"/>
      <point x="232" y="1040" type="line"/>
      <point x="412" y="1040" type="line"/>
      <point x="228" y="0" type="line"/>
    </contour>
  </outline>
</glyph>
<glyph name="lcaron" format="2">
  <advance width="851"/>
  <unicode hex="013E"/>
  <outline>
    <contour>
      <point x="591" y="1372" type="curve" smooth="yes"/>
      <point x="591" y="1444"/>
      <point x="647" y="1500"/>
      <point x="719" y="1500" type="curve" smooth="yes"/>
      <point x="789" y="1500"/>
      <point x="847" y="1424"/>
      <point x="847" y="1372" type="curve" smooth="yes"/>
      <point x="847" y="1300"/>
      <point x="791" y="1244"/>
      <point x="719" y="1244" type="curve" smooth="yes"/>
      <point x="647" y="1244"/>
      <point x="591" y="1300"/>
    </contour>
    <contour>
      <point x="539" y="1103" type="line"/>
      <point x="672" y="1132"/>
      <point x="719" y="1248"/>
      <point x="719" y="1292" type="curve" smooth="yes"/>
      <point x="719" y="1322"/>
      <point x="697" y="1372"/>
      <point x="697" y="1372" type="curve"/>
      <point x="719" y="1500" type="line"/>
      <point x="779" y="1500"/>
      <point x="851" y="1456"/>
      <point x="851" y="1349" type="curve" smooth="yes"/>
      <point x="851" y="1113"/>
      <point x="624" y="1007"/>
      <point x="548" y="988" type="curve"/>
    </contour>
    <contour>
      <point x="231" y="230" type="line" smooth="yes"/>
      <point x="229" y="221"/>
      <point x="228" y="213"/>
      <point x="228" y="205" type="curve" smooth="yes"/>
      <point x="228" y="162"/>
      <point x="254" y="140"/>
      <point x="305" y="140" type="curve" smooth="yes"/>
      <point x="321" y="140"/>
      <point x="347" y="149"/>
      <point x="360" y="156" type="curve"/>
      <point x="375" y="4" type="line"/>
      <point x="351" y="-9"/>
      <point x="308" y="-20"/>
      <point x="276" y="-20" type="curve" smooth="yes"/>
      <point x="128" y="-20"/>
      <point x="45" y="40"/>
      <point x="45" y="167" type="curve" smooth="yes"/>
      <point x="45" y="186"/>
      <point x="47" y="208"/>
      <point x="51" y="230" type="curve" smooth="yes"/>
      <point x="271" y="1480" type="line"/>
      <point x="451" y="1480" type="line"/>
    </contour>
  </outline>
</glyph>
<glyph name="eng" format="2">
  <advance width="1156"/>
  <unicode hex="014B"/>
  <anchor x="578" y="1040" name="top_center"/>
  <outline>
    <contour>
      <point x="1016" y="-210" type="line" smooth="yes"/>
      <point x="1016" y="-380"/>
      <point x="916" y="-460"/>
      <point x="746" y="-460" type="curve" smooth="yes"/>
      <point x="714" y="-460"/>
      <point x="674" y="-449"/>
      <point x="652" y="-436" type="curve"/>
      <point x="694" y="-284" type="line"/>
      <point x="706" y="-291"/>
      <point x="730" y="-300"/>
      <point x="746" y="-300" type="curve" smooth="yes"/>
      <point x="806" y="-300"/>
      <point x="836" y="-270"/>
      <point x="836" y="-210" type="curve" smooth="yes"/>
      <point x="836" y="0" type="line"/>
      <point x="1016" y="0" type="line"/>
    </contour>
    <contour>
      <point x="836" y="572" type="line" smooth="yes"/>
      <point x="836" y="791"/>
      <point x="758" y="900"/>
      <point x="578" y="900" type="curve" smooth="yes"/>
      <point x="398" y="900"/>
      <point x="320" y="791"/>
      <point x="320" y="572" type="curve" smooth="yes"/>
      <point x="320" y="0" type="line"/>
      <point x="140" y="0" type="line"/>
      <point x="140" y="1040" type="line"/>
      <point x="308" y="1040" type="line"/>
      <point x="308" y="920" type="line"/>
      <point x="393" y="1005"/>
      <point x="493" y="1060"/>
      <point x="618" y="1060" type="curve" smooth="yes"/>
      <point x="888" y="1060"/>
      <point x="1016" y="892"/>
      <point x="1016" y="572" type="curve"/>
      <point x="1016" y="0" type="line"/>
      <point x="836" y="0" type="line"/>
    </contour>
  </outline>
</glyph>
<glyph name="tcaron" format="2">
  <advance width="1148"/>
  <unicode hex="0165"/>
  <outline>
    <contour>
      <point x="991" y="1372" type="curve" smooth="yes"/>
      <point x="991" y="1444"/>
      <point x="1047" y="1500"/>
      <point x="1119" y="1500" type="curve" smooth="yes"/>
      <point x="1189" y="1500"/>
      <point x="1247" y="1424"/>
      <point x="1247" y="1372" type="curve" smooth="yes"/>
      <point x="1247" y="1300"/>
      <point x="1191" y="1244"/>
      <point x="1119" y="1244" type="curve" smooth="yes"/>
      <point x="1047" y="1244"/>
      <point x="991" y="1300"/>
    </contour>
    <contour>
      <point x="939" y="1103" type="line"/>
      <point x="1072" y="1132"/>
      <point x="1119" y="1248"/>
      <point x="1119" y="1292" type="curve" smooth="yes"/>
      <point x="1119" y="1322"/>
      <point x="1097" y="1372"/>
      <point x="1097" y="1372" type="curve"/>
      <point x="1119" y="1500" type="line"/>
      <point x="1179" y="1500"/>
      <point x="1251" y="1456"/>
      <point x="1251" y="1349" type="curve" smooth="yes"/>
      <point x="1251" y="1113"/>
      <point x="1024" y="1007"/>
      <point x="948" y="988" type="curve"/>
    </contour>
    <contour>
      <point x="173" y="1028" type="line"/>
      <point x="263" y="1028"/>
      <point x="334" y="1092"/>
      <point x="350" y="1182" type="curve"/>
      <point x="375" y="1320" type="line"/>
      <point x="543" y="1320" type="line"/>
      <point x="493" y="1040" type="line"/>
      <point x="773" y="1040" type="line"/>
      <point x="745" y="880" type="line"/>
      <point x="465" y="880" type="line"/>
      <point x="363" y="300" type="line" smooth="yes"/>
      <point x="361" y="286"/>
      <point x="359" y="272"/>
      <point x="359" y="260" type="curve" smooth="yes"/>
      <point x="359" y="183"/>
      <point x="407" y="140"/>
      <point x="495" y="140" type="curve" smooth="yes"/>
      <point x="538" y="140"/>
      <point x="592" y="156"/>
      <point x="621" y="175" type="curve"/>
      <point x="637" y="12" type="line"/>
      <point x="589" y="-6"/>
      <point x="522" y="-20"/>
      <point x="466" y="-20" type="curve" smooth="yes"/>
      <point x="290" y="-20"/>
      <point x="177" y="74"/>
      <point x="177" y="233" type="curve" smooth="yes"/>
      <point x="177" y="254"/>
      <point x="179" y="277"/>
      <point x="183" y="300" type="curve" smooth="yes"/>
      <point x="285" y="880" type="line"/>
      <point x="75" y="880" type="line"/>
      <point x="101" y="1028" type="line"/>
    </contour>
  </outline>
</glyph>
<glyph name="Tbar" format="2">
  <advance width="1398"/>
  <unicode hex="0166"/>
  <outline>
    <contour>
      <point x="1020" y="656" type="line"/>
      <point x="350" y="656" type="line"/>
      <point x="379" y="824" type="line"/>
      <point x="1049" y="824" type="line"/>
    </contour>
    <contour>
      <point x="664" y="0" type="line"/>
      <point x="474" y="0" type="line"/>
      <point x="705" y="1312" type="line"/>
      <point x="241" y="1312" type="line"/>
      <point x="271" y="1480" type="line"/>
      <point x="1389" y="1480" type="line"/>
      <point x="1359" y="1312" type="line"/>
      <point x="895" y="1312" type="line"/>
    </contour>
  </outline>
</glyph>
<glyph name="uni0180" format="2">
  <advance width="1254"/>
  <unicode hex="0180"/>
  <outline>
    <contour>
      <point x="745" y="1160" type="line"/>
      <point x="75" y="1160" type="line"/>
      <point x="103" y="1320" type="line"/>
      <point x="773" y="1320" type="line"/>
    </contour>
    <contour>
      <point x="705" y="900" type="curve" smooth="yes"/>
      <point x="460" y="900"/>
      <point x="330" y="634"/>
      <point x="330" y="417" type="curve" smooth="yes"/>
      <point x="330" y="246"/>
      <point x="420" y="140"/>
      <point x="571" y="140" type="curve" smooth="yes"/>
      <point x="816" y="140"/>
      <point x="946" y="406"/>
      <point x="946" y="623" type="curve" smooth="yes"/>
      <point x="946" y="794"/>
      <point x="856" y="900"/>
    </contour>
    <contour>
      <point x="341" y="1480" type="line"/>
      <point x="521" y="1480" type="line"/>
      <point x="422" y="920" type="line"/>
      <point x="522" y="1005"/>
      <point x="608" y="1060"/>
      <point x="733" y="1060" type="curve" smooth="yes"/>
      <point x="977" y="1060"/>
      <point x="1127" y="889"/>
      <point x="1127" y="640" type="curve" smooth="yes"/>
      <point x="1127" y="309"/>
      <point x="885" y="-20"/>
      <point x="542" y="-20" type="curve" smooth="yes"/>
      <point x="417" y="-20"/>
      <point x="343" y="35"/>
      <point x="273" y="120" type="curve"/>
      <point x="252" y="0" type="line"/>
      <point x="80" y="0" type="line"/>
    </contour>
  </outline>
</glyph>
<glyph name="uni0181" format="2">
  <advance width="1518"/>
  <unicode hex="0181"/>
  <outline>
    <contour>
      <point x="1370" y="504" type="curve" smooth="yes"/>
      <point x="1370" y="233"/>
      <point x="1116" y="0"/>
      <point x="778" y="0" type="curve" smooth="yes"/>
      <point x="200" y="0" type="line"/>
      <point x="461" y="1480" type="line"/>
      <point x="1033" y="1480" type="line" smooth="yes"/>
      <point x="1280" y="1480"/>
      <point x="1441" y="1344"/>
      <point x="1441" y="1148" type="curve" smooth="yes"/>
      <point x="1441" y="905"/>
      <point x="1220" y="706"/>
      <point x="902" y="706" type="curve"/>
      <point x="929" y="856" type="line"/>
      <point x="1152" y="856"/>
      <point x="1250" y="1000"/>
      <point x="1250" y="1126" type="curve" smooth="yes"/>
      <point x="1250" y="1240"/>
      <point x="1160" y="1312"/>
      <point x="1003" y="1312" type="curve" smooth="yes"/>
      <point x="621" y="1312" type="line"/>
      <point x="541" y="856" type="line"/>
      <point x="929" y="856" type="line"/>
      <point x="901" y="696" type="line"/>
      <point x="513" y="696" type="line"/>
      <point x="420" y="168" type="line"/>
      <point x="808" y="168" type="line" smooth="yes"/>
      <point x="1048" y="168"/>
      <point x="1178" y="325"/>
      <point x="1178" y="480" type="curve" smooth="yes"/>
      <point x="1178" y="608"/>
      <point x="1079" y="696"/>
      <point x="901" y="696" type="curve"/>
      <point x="927" y="846" type="line"/>
      <point x="1213" y="846"/>
      <point x="1370" y="707"/>
    </contour>
    <contour>
      <point x="262" y="1110" type="curve"/>
      <point x="70" y="1110" type="line"/>
      <point x="70" y="1126"/>
      <point x="72" y="1143"/>
      <point x="75" y="1160" type="curve" smooth="yes"/>
      <point x="106" y="1338"/>
      <point x="283" y="1480"/>
      <point x="461" y="1480" type="curve" smooth="yes"/>
      <point x="476" y="1480"/>
      <point x="490" y="1479"/>
      <point x="504" y="1477" type="curve"/>
      <point x="474" y="1306" type="line"/>
      <point x="462" y="1310"/>
      <point x="447" y="1312"/>
      <point x="431" y="1312" type="curve" smooth="yes"/>
      <point x="341" y="1312"/>
      <point x="281" y="1250"/>
      <point x="265" y="1160" type="curve" smooth="yes"/>
      <point x="262" y="1142"/>
      <point x="260" y="1125"/>
    </contour>
  </outline>
</glyph>
<glyph name="uni0184" format="2">
  <advance width="1283"/>
  <unicode hex="0184"/>
  <outline>
    <contour>
      <point x="607" y="168" type="line" smooth="yes"/>
      <point x="802" y="168"/>
      <point x="948" y="333"/>
      <point x="948" y="509" type="curve" smooth="yes"/>
      <point x="948" y="645"/>
      <point x="853" y="740"/>
      <point x="707" y="740" type="curve" smooth="yes"/>
      <point x="330" y="740" type="line"/>
      <point x="230" y="168" type="line"/>
    </contour>
    <contour>
      <point x="1140" y="529" type="curve" smooth="yes"/>
      <point x="1140" y="248"/>
      <point x="864" y="0"/>
      <point x="577" y="0" type="curve" smooth="yes"/>
      <point x="10" y="0" type="line"/>
      <point x="215" y="1160" type="line"/>
      <point x="44" y="1270" type="line"/>
      <point x="354" y="1480" type="line"/>
      <point x="461" y="1480" type="line"/>
      <point x="360" y="908" type="line"/>
      <point x="737" y="908" type="line" smooth="yes"/>
      <point x="966" y="908"/>
      <point x="1140" y="747"/>
    </contour>
  </outline>
</glyph>
<glyph name="uni0185" format="2">
  <advance width="1184"/>
  <unicode hex="0185"/>
  <outline>
    <contour>
      <point x="308" y="520" type="curve" smooth="yes"/>
      <point x="308" y="290"/>
      <point x="426" y="140"/>
      <point x="606" y="140" type="curve" smooth="yes"/>
      <point x="786" y="140"/>
      <point x="904" y="290"/>
      <point x="904" y="520" type="curve" smooth="yes"/>
      <point x="904" y="750"/>
      <point x="786" y="900"/>
      <point x="606" y="900" type="curve" smooth="yes"/>
      <point x="426" y="900"/>
      <point x="308" y="750"/>
    </contour>
    <contour>
      <point x="320" y="1480" type="line"/>
      <point x="320" y="920" type="line"/>
      <point x="405" y="1005"/>
      <point x="481" y="1060"/>
      <point x="606" y="1060" type="curve" smooth="yes"/>
      <point x="887" y="1060"/>
      <point x="1084" y="832"/>
      <point x="1084" y="520" type="curve" smooth="yes"/>
      <point x="1084" y="208"/>
      <point x="887" y="-20"/>
      <point x="606" y="-20" type="curve" smooth="yes"/>
      <point x="481" y="-20"/>
      <point x="397" y="35"/>
      <point x="312" y="120" type="curve"/>
      <point x="312" y="0" type="line"/>
      <point x="140" y="0" type="line"/>
      <point x="140" y="0"/>
      <point x="140" y="66"/>
      <point x="140" y="168" type="curve"/>
      <point x="140" y="1160" type="line"/>
      <point x="-50" y="1270" type="line"/>
      <point x="223" y="1480" type="line"/>
    </contour>
  </outline>
</glyph>
<glyph name="uni018B" format="2">
  <advance width="1328"/>
  <unicode hex="018B"/>
  <outline>
    <contour>
      <point x="220" y="1312" type="line"/>
      <point x="998" y="1312" type="line"/>
      <point x="998" y="856" type="line"/>
      <point x="610" y="856" type="line"/>
      <point x="290" y="856"/>
      <point x="100" y="671"/>
      <point x="100" y="428" type="curve" smooth="yes"/>
      <point x="100" y="185"/>
      <point x="310" y="0"/>
      <point x="610" y="0" type="curve"/>
      <point x="1188" y="0" type="line"/>
      <point x="1188" y="1480" type="line"/>
      <point x="220" y="1480" type="line"/>
    </contour>
    <contour>
      <point x="610" y="696" type="curve"/>
      <point x="998" y="696" type="line"/>
      <point x="998" y="168" type="line"/>
      <point x="610" y="168" type="line"/>
      <point x="410" y="168"/>
      <point x="290" y="279"/>
      <point x="290" y="432" type="curve" smooth="yes"/>
      <point x="290" y="585"/>
      <point x="410" y="696"/>
    </contour>
  </outline>
</glyph>
<glyph name="uni018F" format="2">
  <advance width="1538"/>
  <unicode hex="018F"/>
  <anchor x="774" y="0" name="bottom_right"/>
  <anchor x="603" y="-20" name="bottom_cedilla"/>
  <anchor x="607" y="0" name="bottom_center"/>
  <anchor x="850" y="1380" name="top_center"/>
  <outline>
    <contour>
      <point x="827" y="740" type="line" smooth="yes"/>
      <point x="612.014" y="740"/>
      <point x="266.054" y="694.032"/>
      <point x="266.054" y="398.151" type="curve" smooth="yes"/>
      <point x="266.054" y="251.094"/>
      <point x="405.047" y="148"/>
      <point x="633" y="148" type="curve" smooth="yes"/>
      <point x="992.713" y="148"/>
      <point x="1260.3" y="506.281"/>
      <point x="1260.3" y="874.513" type="curve" smooth="yes"/>
      <point x="1260.3" y="1150.49"/>
      <point x="1093.15" y="1332"/>
      <point x="842" y="1332" type="curve" smooth="yes"/>
      <point x="641" y="1332"/>
      <point x="428" y="1214"/>
      <point x="312" y="1027" type="curve"/>
      <point x="167" y="1119" type="line"/>
      <point x="326" y="1351"/>
      <point x="603" y="1500"/>
      <point x="871" y="1500" type="curve" smooth="yes"/>
      <point x="1217.58" y="1500"/>
      <point x="1450.99" y="1245.17"/>
      <point x="1450.99" y="886.154" type="curve" smooth="yes"/>
      <point x="1450.99" y="408.72"/>
      <point x="1073.17" y="-20"/>
      <point x="603" y="-20" type="curve" smooth="yes"/>
      <point x="280.067" y="-20"/>
      <point x="73.8112" y="147.983"/>
      <point x="73.8112" y="373.294" type="curve" smooth="yes"/>
      <point x="73.8112" y="494.394"/>
      <point x="127.228" y="908"/>
      <point x="857" y="908" type="curve" smooth="yes"/>
      <point x="1372" y="908" type="line"/>
      <point x="1342" y="740" type="line"/>
    </contour>
  </outline>
</glyph>
<glyph name="uni0190" format="2">
  <advance width="1222"/>
  <unicode hex="0190"/>
  <anchor x="638" y="0" name="bottom_right"/>
  <anchor x="478" y="-20" name="bottom_cedilla"/>
  <anchor x="482" y="0" name="bottom_center"/>
  <anchor x="725" y="1380" name="top_center"/>
  <outline>
    <contour>
      <point x="229" y="372" type="curve" smooth="yes"/>
      <point x="229" y="533"/>
      <point x="368" y="696"/>
      <point x="605" y="696" type="curve" smooth="yes"/>
      <point x="700" y="696" type="line"/>
      <point x="728" y="856" type="line"/>
      <point x="633" y="856" type="line" smooth="yes"/>
      <point x="478" y="856"/>
      <point x="394" y="935"/>
      <point x="394" y="1049" type="curve" smooth="yes"/>
      <point x="394" y="1189"/>
      <point x="507" y="1332"/>
      <point x="717" y="1332" type="curve" smooth="yes"/>
      <point x="872" y="1332"/>
      <point x="954" y="1234"/>
      <point x="954" y="1116" type="curve" smooth="yes"/>
      <point x="954" y="1101"/>
      <point x="953" y="1086"/>
      <point x="950" y="1070" type="curve"/>
      <point x="1145" y="1120" type="line"/>
      <point x="1145" y="1126"/>
      <point x="1145" y="1133"/>
      <point x="1145" y="1139" type="curve" smooth="yes"/>
      <point x="1145" y="1332"/>
      <point x="1012" y="1500"/>
      <point x="746" y="1500" type="curve" smooth="yes"/>
      <point x="435" y="1500"/>
      <point x="203" y="1275"/>
      <point x="203" y="1032" type="curve" smooth="yes"/>
      <point x="203" y="930"/>
      <point x="247" y="841"/>
      <point x="325" y="781" type="curve"/>
      <point x="135" y="680"/>
      <point x="38" y="507"/>
      <point x="38" y="347" type="curve" smooth="yes"/>
      <point x="38" y="138"/>
      <point x="208" y="-20"/>
      <point x="478" y="-20" type="curve" smooth="yes"/>
      <point x="759" y="-20"/>
      <point x="993" y="158"/>
      <point x="1062" y="396" type="curve"/>
      <point x="884" y="446" type="line"/>
      <point x="856" y="290"/>
      <point x="708" y="148"/>
      <point x="508" y="148" type="curve" smooth="yes"/>
      <point x="330" y="148"/>
      <point x="229" y="241"/>
    </contour>
  </outline>
</glyph>
<glyph name="uni0191" format="2">
  <advance width="1208"/>
  <unicode hex="0191"/>
  <outline>
    <contour>
      <point x="-200" y="-146" type="line"/>
      <point x="-188" y="-150"/>
      <point x="-173" y="-152"/>
      <point x="-157" y="-152" type="curve" smooth="yes"/>
      <point x="-67" y="-152"/>
      <point x="-6" y="-90"/>
      <point x="10" y="0" type="curve"/>
      <point x="200" y="0" type="line"/>
      <point x="169" y="-178"/>
      <point x="-8" y="-320"/>
      <point x="-186" y="-320" type="curve" smooth="yes"/>
      <point x="-201" y="-320"/>
      <point x="-216" y="-319"/>
      <point x="-230" y="-317" type="curve"/>
    </contour>
    <contour>
      <point x="230" y="168" type="line"/>
      <point x="200" y="0" type="line"/>
      <point x="10" y="0" type="line"/>
      <point x="271" y="1480" type="line"/>
      <point x="1199" y="1480" type="line"/>
      <point x="1169" y="1312" type="line"/>
      <point x="431" y="1312" type="line"/>
      <point x="345" y="824" type="line"/>
      <point x="988" y="824" type="line"/>
      <point x="959" y="656" type="line"/>
      <point x="316" y="656" type="line"/>
    </contour>
  </outline>
</glyph>
<glyph name="florin" format="2">
  <advance width="770"/>
  <unicode hex="0192"/>
  <outline>
    <contour>
      <point x="-89" y="-146" type="line"/>
      <point x="-77" y="-150"/>
      <point x="-62" y="-152"/>
      <point x="-46" y="-152" type="curve" smooth="yes"/>
      <point x="44" y="-152"/>
      <point x="114" y="-90"/>
      <point x="130" y="0" type="curve"/>
      <point x="310" y="0" type="line"/>
      <point x="279" y="-178"/>
      <point x="104" y="-312"/>
      <point x="-74" y="-312" type="curve" smooth="yes"/>
      <point x="-89" y="-312"/>
      <point x="-103" y="-311"/>
      <point x="-117" y="-309" type="curve"/>
    </contour>
    <contour>
      <point x="820" y="1305" type="line"/>
      <point x="797" y="1324"/>
      <point x="749" y="1340"/>
      <point x="706" y="1340" type="curve" smooth="yes"/>
      <point x="604" y="1340"/>
      <point x="536" y="1282"/>
      <point x="518" y="1180" type="curve" smooth="yes"/>
      <point x="493" y="1040" type="line"/>
      <point x="773" y="1040" type="line"/>
      <point x="745" y="880" type="line"/>
      <point x="465" y="880" type="line"/>
      <point x="310" y="0" type="line"/>
      <point x="130" y="0" type="line"/>
      <point x="285" y="880" type="line"/>
      <point x="75" y="880" type="line"/>
      <point x="103" y="1040" type="line"/>
      <point x="313" y="1040" type="line"/>
      <point x="338" y="1180" type="line" smooth="yes"/>
      <point x="373" y="1380"/>
      <point x="534" y="1500"/>
      <point x="734" y="1500" type="curve" smooth="yes"/>
      <point x="790" y="1500"/>
      <point x="852" y="1486"/>
      <point x="894" y="1468" type="curve"/>
    </contour>
  </outline>
</glyph>
<glyph name="uni0193" format="2">
  <advance width="1586"/>
  <unicode hex="0193"/>
  <outline>
    <contour>
      <point x="1676" y="1500" type="curve" smooth="yes"/>
      <point x="1691" y="1500"/>
      <point x="1706" y="1499"/>
      <point x="1720" y="1497" type="curve"/>
      <point x="1690" y="1326" type="line"/>
      <point x="1678" y="1330"/>
      <point x="1663" y="1332"/>
      <point x="1647" y="1332" type="curve" smooth="yes"/>
      <point x="1557" y="1332"/>
      <point x="1496" y="1270"/>
      <point x="1480" y="1180" type="curve" smooth="yes"/>
      <point x="1477" y="1162"/>
      <point x="1475" y="1145"/>
      <point x="1477" y="1130" type="curve"/>
      <point x="1285" y="1130" type="line"/>
      <point x="1285" y="1146"/>
      <point x="1287" y="1163"/>
      <point x="1290" y="1180" type="curve" smooth="yes"/>
      <point x="1321" y="1358"/>
      <point x="1498" y="1500"/>
    </contour>
    <contour>
      <point x="86.0477" y="584.692" type="curve" smooth="yes"/>
      <point x="86.0477" y="1060.46"/>
      <point x="466.648" y="1500"/>
      <point x="935" y="1500" type="curve" smooth="yes"/>
      <point x="1203" y="1500"/>
      <point x="1404" y="1352"/>
      <point x="1481" y="1120" type="curve"/>
      <point x="1304" y="1029" type="line"/>
      <point x="1254" y="1216"/>
      <point x="1107" y="1332"/>
      <point x="906" y="1332" type="curve" smooth="yes"/>
      <point x="546.753" y="1332"/>
      <point x="277.745" y="974.633"/>
      <point x="277.745" y="605.983" type="curve" smooth="yes"/>
      <point x="277.745" y="329.727"/>
      <point x="445.695" y="148"/>
      <point x="697" y="148" type="curve" smooth="yes"/>
      <point x="898" y="148"/>
      <point x="1087" y="264"/>
      <point x="1203" y="451" type="curve"/>
      <point x="1347" y="360" type="line"/>
      <point x="1188" y="128"/>
      <point x="935" y="-20"/>
      <point x="667" y="-20" type="curve" smooth="yes"/>
      <point x="320.278" y="-20"/>
      <point x="86.0477" y="227.329"/>
    </contour>
    <contour>
      <point x="801" y="740" type="line"/>
      <point x="1422" y="740" type="line"/>
      <point x="1292" y="0" type="line"/>
      <point x="1110" y="0" type="line"/>
      <point x="1150" y="227" type="line"/>
      <point x="1147" y="253" type="line"/>
      <point x="1203" y="572" type="line"/>
      <point x="772" y="572" type="line"/>
    </contour>
  </outline>
</glyph>
<glyph name="uni0194" format="2">
  <advance width="1356"/>
  <unicode hex="0194"/>
  <outline>
    <contour>
      <point x="858.173" y="-83.0067" type="curve" smooth="yes"/>
      <point x="858.173" y="-287.729"/>
      <point x="663.237" y="-460"/>
      <point x="467" y="-460" type="curve" smooth="yes"/>
      <point x="307.084" y="-460"/>
      <point x="188.332" y="-345.388"/>
      <point x="188.332" y="-193.027" type="curve" smooth="yes"/>
      <point x="188.332" y="-146.184"/>
      <point x="198.305" y="-76.6846"/>
      <point x="250" y="0" type="curve" smooth="yes"/>
      <point x="521" y="402" type="line"/>
      <point x="201" y="1480" type="line"/>
      <point x="397" y="1480" type="line"/>
      <point x="654" y="599" type="line"/>
      <point x="1221" y="1480" type="line"/>
      <point x="1417" y="1480" type="line"/>
      <point x="717" y="402" type="line"/>
      <point x="846" y="0" type="line" smooth="yes"/>
      <point x="853.962" y="-25.7244"/>
      <point x="858.173" y="-53.6997"/>
    </contour>
    <contour>
      <point x="497" y="-292" type="curve" smooth="yes"/>
      <point x="609.698" y="-292"/>
      <point x="675.158" y="-197.446"/>
      <point x="675.158" y="-112.788" type="curve" smooth="yes"/>
      <point x="675.158" y="-77.1392"/>
      <point x="666.942" y="-35.0505"/>
      <point x="654" y="0" type="curve" smooth="yes"/>
      <point x="582" y="195" type="line"/>
      <point x="452" y="0" type="line" smooth="yes"/>
      <point x="427.849" y="-35.0584"/>
      <point x="379.554" y="-105.164"/>
      <point x="379.554" y="-177.029" type="curve" smooth="yes"/>
      <point x="379.554" y="-246.567"/>
      <point x="419.957" y="-292"/>
    </contour>
  </outline>
</glyph>
<glyph name="uni0195" format="2">
  <advance width="1812"/>
  <unicode hex="0195"/>
  <outline>
    <contour>
      <point x="1686.22" y="689.108" type="curve" smooth="yes"/>
      <point x="1686.22" y="177.679"/>
      <point x="1389.82" y="-20"/>
      <point x="1140" y="-20" type="curve" smooth="yes"/>
      <point x="912.077" y="-20"/>
      <point x="774.655" y="78.3397"/>
      <point x="774.655" y="319.534" type="curve" smooth="yes"/>
      <point x="774.655" y="364.061"/>
      <point x="779.553" y="413.418"/>
      <point x="789" y="468" type="curve" smooth="yes"/>
      <point x="807" y="572"/>
      <point x="807" y="572"/>
      <point x="807" y="572" type="curve" smooth="yes"/>
      <point x="814.587" y="614.604"/>
      <point x="818.465" y="653.045"/>
      <point x="818.465" y="687.33" type="curve" smooth="yes"/>
      <point x="818.465" y="829.284"/>
      <point x="751.983" y="900"/>
      <point x="607" y="900" type="curve" smooth="yes"/>
      <point x="427" y="900"/>
      <point x="330" y="791"/>
      <point x="291" y="572" type="curve" smooth="yes"/>
      <point x="190" y="0" type="line"/>
      <point x="10" y="0" type="line"/>
      <point x="271" y="1480" type="line"/>
      <point x="443" y="1480" type="line"/>
      <point x="344" y="920" type="line"/>
      <point x="444" y="1005"/>
      <point x="550" y="1060"/>
      <point x="675" y="1060" type="curve" smooth="yes"/>
      <point x="896.42" y="1060"/>
      <point x="1002.17" y="947.016"/>
      <point x="1002.17" y="729.874" type="curve" smooth="yes"/>
      <point x="1002.17" y="682.232"/>
      <point x="996.968" y="629.595"/>
      <point x="987" y="572" type="curve" smooth="yes"/>
      <point x="969" y="468"/>
      <point x="969" y="468"/>
      <point x="969" y="468" type="curve" smooth="yes"/>
      <point x="961.413" y="425.396"/>
      <point x="957.535" y="386.955"/>
      <point x="957.535" y="352.67" type="curve" smooth="yes"/>
      <point x="957.535" y="210.716"/>
      <point x="1024.02" y="140"/>
      <point x="1169" y="140" type="curve" smooth="yes"/>
      <point x="1417.01" y="140"/>
      <point x="1502.89" y="410.009"/>
      <point x="1502.89" y="651.817" type="curve" smooth="yes"/>
      <point x="1502.89" y="802.059"/>
      <point x="1459.58" y="891.404"/>
      <point x="1413" y="972" type="curve"/>
      <point x="1582" y="1060" type="line"/>
      <point x="1625.21" y="991.022"/>
      <point x="1686.22" y="887.57"/>
    </contour>
  </outline>
</glyph>
<glyph name="uni0196" format="2">
  <advance width="695"/>
  <unicode hex="0196"/>
  <anchor x="343" y="1380" name="top_center"/>
  <anchor x="350" y="0" name="bottom_center"/>
  <outline>
    <contour>
      <point x="346" y="-20" type="curve" smooth="yes"/>
      <point x="169.517" y="-20"/>
      <point x="56.8844" y="73.4383"/>
      <point x="56.8844" y="232.831" type="curve" smooth="yes"/>
      <point x="56.8844" y="254.071"/>
      <point x="58.8844" y="276.483"/>
      <point x="63" y="300" type="curve" smooth="yes"/>
      <point x="88" y="440" type="line"/>
      <point x="271" y="1480" type="line"/>
      <point x="451" y="1480" type="line"/>
      <point x="268" y="440" type="line"/>
      <point x="243" y="300" type="line" smooth="yes"/>
      <point x="240.514" y="285.914"/>
      <point x="239.287" y="272.667"/>
      <point x="239.287" y="260.296" type="curve" smooth="yes"/>
      <point x="239.287" y="183.087"/>
      <point x="287.086" y="140"/>
      <point x="375" y="140" type="curve" smooth="yes"/>
      <point x="418" y="140"/>
      <point x="472" y="156"/>
      <point x="501" y="175" type="curve"/>
      <point x="517" y="12" type="line"/>
      <point x="469" y="-6"/>
      <point x="402" y="-20"/>
    </contour>
  </outline>
</glyph>
<glyph name="uni0199" format="2">
  <advance width="1059"/>
  <unicode hex="0199"/>
  <outline>
    <contour>
      <point x="386" y="562" type="line"/>
      <point x="520" y="702" type="line"/>
      <point x="894" y="0" type="line"/>
      <point x="686" y="0" type="line"/>
    </contour>
    <contour>
      <point x="218" y="1177" type="line"/>
      <point x="250" y="1358"/>
      <point x="426" y="1500"/>
      <point x="604" y="1500" type="curve" smooth="yes"/>
      <point x="619" y="1500"/>
      <point x="634" y="1499"/>
      <point x="648" y="1497" type="curve"/>
      <point x="619" y="1334" type="line"/>
      <point x="607" y="1338"/>
      <point x="592" y="1340"/>
      <point x="576" y="1340" type="curve" smooth="yes"/>
      <point x="486" y="1340"/>
      <point x="414" y="1270"/>
      <point x="398" y="1177" type="curve"/>
      <point x="291" y="572" type="line"/>
      <point x="841" y="1040" type="line"/>
      <point x="901" y="1040"/>
      <point x="1013" y="1040"/>
      <point x="1073" y="1040" type="curve"/>
      <point x="250" y="340" type="line"/>
      <point x="190" y="0" type="line"/>
      <point x="10" y="0" type="line"/>
    </contour>
  </outline>
</glyph>
<glyph name="uni019A" format="2">
  <advance width="670"/>
  <unicode hex="019A"/>
  <outline>
    <contour>
      <point x="656" y="660" type="line"/>
      <point x="-14" y="660" type="line"/>
      <point x="15" y="820" type="line"/>
      <point x="685" y="820" type="line"/>
    </contour>
    <contour>
      <point x="331" y="230" type="line" smooth="yes"/>
      <point x="329.316" y="220.814"/>
      <point x="328.476" y="212.331"/>
      <point x="328.476" y="204.551" type="curve" smooth="yes"/>
      <point x="328.476" y="161.517"/>
      <point x="354.186" y="140"/>
      <point x="405" y="140" type="curve" smooth="yes"/>
      <point x="421" y="140"/>
      <point x="447" y="149"/>
      <point x="460" y="156" type="curve"/>
      <point x="475" y="4" type="line"/>
      <point x="451" y="-9"/>
      <point x="408" y="-20"/>
      <point x="376" y="-20" type="curve" smooth="yes"/>
      <point x="228.565" y="-20"/>
      <point x="145.062" y="40.1722"/>
      <point x="145.062" y="167.04" type="curve" smooth="yes"/>
      <point x="145.062" y="186.456"/>
      <point x="147.018" y="207.435"/>
      <point x="151" y="230" type="curve" smooth="yes"/>
      <point x="371" y="1480" type="line"/>
      <point x="551" y="1480" type="line"/>
    </contour>
  </outline>
</glyph>
<glyph name="uni019C" format="2">
  <advance width="1721"/>
  <unicode hex="019C"/>
  <anchor x="973" y="1380" name="top_center"/>
  <anchor x="730" y="0" name="bottom_center"/>
  <outline>
    <contour>
      <point x="1481" y="168" type="line"/>
      <point x="1471.47" y="114"/>
      <point x="1469.23" y="70.09"/>
      <point x="1469.23" y="40.7214" type="curve" smooth="yes"/>
      <point x="1469.23" y="14.6159"/>
      <point x="1471" y="8.88178e-15"/>
      <point x="1471" y="0" type="curve"/>
      <point x="1289" y="0" type="line"/>
      <point x="1289" y="0"/>
      <point x="1287.37" y="16.3327"/>
      <point x="1287.37" y="40.4767" type="curve" smooth="yes"/>
      <point x="1287.37" y="62.6087"/>
      <point x="1288.74" y="91.3043"/>
      <point x="1294" y="120" type="curve"/>
      <point x="1206" y="33"/>
      <point x="1132" y="-20"/>
      <point x="1007" y="-20" type="curve" smooth="yes"/>
      <point x="816.86" y="-20"/>
      <point x="702.58" y="81.1475"/>
      <point x="702.58" y="308.302" type="curve" smooth="yes"/>
      <point x="702.58" y="355.921"/>
      <point x="707.602" y="409.077"/>
      <point x="718" y="468" type="curve"/>
      <point x="899" y="1500" type="line"/>
      <point x="1089" y="1500" type="line"/>
      <point x="908" y="468" type="line"/>
      <point x="898.922" y="417.022"/>
      <point x="894.124" y="372.438"/>
      <point x="894.124" y="334.034" type="curve" smooth="yes"/>
      <point x="894.124" y="207.452"/>
      <point x="946.244" y="148"/>
      <point x="1069" y="148" type="curve" smooth="yes"/>
      <point x="1229" y="148"/>
      <point x="1305" y="249"/>
      <point x="1344" y="468" type="curve" smooth="yes"/>
      <point x="1525" y="1500" type="line"/>
      <point x="1715" y="1500" type="line"/>
    </contour>
    <contour>
      <point x="864" y="468" type="line"/>
      <point x="808" y="148"/>
      <point x="612" y="-20"/>
      <point x="382" y="-20" type="curve" smooth="yes"/>
      <point x="191.86" y="-20"/>
      <point x="77.5797" y="81.1475"/>
      <point x="77.5797" y="308.302" type="curve" smooth="yes"/>
      <point x="77.5797" y="355.921"/>
      <point x="82.6018" y="409.077"/>
      <point x="93" y="468" type="curve"/>
      <point x="274" y="1500" type="line"/>
      <point x="464" y="1500" type="line"/>
      <point x="283" y="468" type="line"/>
      <point x="273.922" y="417.022"/>
      <point x="269.124" y="372.438"/>
      <point x="269.124" y="334.034" type="curve" smooth="yes"/>
      <point x="269.124" y="207.452"/>
      <point x="321.244" y="148"/>
      <point x="444" y="148" type="curve" smooth="yes"/>
      <point x="604" y="148"/>
      <point x="679" y="249"/>
      <point x="718" y="468" type="curve"/>
    </contour>
  </outline>
</glyph>
<glyph name="uni019D" format="2">
  <advance width="1442"/>
  <unicode hex="019D"/>
  <anchor x="853" y="1380" name="top_center"/>
  <outline>
    <contour>
      <point x="-156" y="-146" type="line"/>
      <point x="-144" y="-150"/>
      <point x="-129" y="-152"/>
      <point x="-113" y="-152" type="curve" smooth="yes"/>
      <point x="-23" y="-152"/>
      <point x="38" y="-90"/>
      <point x="54" y="0" type="curve"/>
      <point x="244" y="0" type="line"/>
      <point x="213" y="-178"/>
      <point x="36" y="-320"/>
      <point x="-142" y="-320" type="curve" smooth="yes"/>
      <point x="-157" y="-320"/>
      <point x="-172" y="-319"/>
      <point x="-186" y="-317" type="curve"/>
    </contour>
    <contour>
      <point x="505" y="1480" type="line"/>
      <point x="1038" y="320" type="line"/>
      <point x="1243" y="1480" type="line"/>
      <point x="1433" y="1480" type="line"/>
      <point x="1172" y="0" type="line"/>
      <point x="982" y="0" type="line"/>
      <point x="449" y="1160" type="line"/>
      <point x="244" y="0" type="line"/>
      <point x="54" y="0" type="line"/>
      <point x="315" y="1480" type="line"/>
    </contour>
  </outline>
</glyph>
<glyph name="uni019E" format="2">
  <advance width="1156"/>
  <unicode hex="019E"/>
  <outline>
    <contour>
      <point x="628" y="-440" type="line"/>
      <point x="807" y="572" type="line" smooth="yes"/>
      <point x="814.587" y="614.604"/>
      <point x="818.465" y="653.045"/>
      <point x="818.465" y="687.33" type="curve" smooth="yes"/>
      <point x="818.465" y="829.284"/>
      <point x="751.983" y="900"/>
      <point x="607" y="900" type="curve" smooth="yes"/>
      <point x="427" y="900"/>
      <point x="330" y="791"/>
      <point x="291" y="572" type="curve" smooth="yes"/>
      <point x="190" y="0" type="line"/>
      <point x="10" y="0" type="line"/>
      <point x="193" y="1040" type="line"/>
      <point x="361" y="1040" type="line"/>
      <point x="340" y="920" type="line"/>
      <point x="440" y="1005"/>
      <point x="550" y="1060"/>
      <point x="675" y="1060" type="curve" smooth="yes"/>
      <point x="896.42" y="1060"/>
      <point x="1002.17" y="947.016"/>
      <point x="1002.17" y="729.874" type="curve" smooth="yes"/>
      <point x="1002.17" y="682.232"/>
      <point x="997.076" y="629.576"/>
      <point x="987" y="572" type="curve"/>
      <point x="808" y="-440" type="line"/>
    </contour>
  </outline>
</glyph>
<glyph name="uni019F" format="2">
  <advance width="1602"/>
  <unicode hex="019F"/>
  <anchor x="914" y="1380" name="top_center"/>
  <anchor x="1511" y="1480" name="top_right"/>
  <anchor x="671" y="0" name="bottom_center"/>
  <anchor x="838" y="0" name="bottom_right"/>
  <outline>
    <contour>
      <point x="1392" y="656" type="line"/>
      <point x="184" y="656" type="line"/>
      <point x="213" y="824" type="line"/>
      <point x="1421" y="824" type="line"/>
    </contour>
    <contour>
      <point x="906" y="1332" type="curve" smooth="yes"/>
      <point x="546.753" y="1332"/>
      <point x="277.745" y="974.633"/>
      <point x="277.745" y="605.983" type="curve" smooth="yes"/>
      <point x="277.745" y="329.727"/>
      <point x="445.695" y="148"/>
      <point x="697" y="148" type="curve" smooth="yes"/>
      <point x="1056.71" y="148"/>
      <point x="1324.3" y="506.281"/>
      <point x="1324.3" y="874.513" type="curve" smooth="yes"/>
      <point x="1324.3" y="1150.49"/>
      <point x="1157.15" y="1332"/>
    </contour>
    <contour>
      <point x="86.0477" y="584.692" type="curve" smooth="yes"/>
      <point x="86.0477" y="1060.46"/>
      <point x="466.648" y="1500"/>
      <point x="935" y="1500" type="curve" smooth="yes"/>
      <point x="1281.72" y="1500"/>
      <point x="1515.95" y="1252.67"/>
      <point x="1515.95" y="895.308" type="curve" smooth="yes"/>
      <point x="1515.95" y="419.536"/>
      <point x="1135.35" y="-20"/>
      <point x="667" y="-20" type="curve" smooth="yes"/>
      <point x="320.278" y="-20"/>
      <point x="86.0477" y="227.329"/>
    </contour>
  </outline>
</glyph>
<glyph name="uni01A2" format="2">
  <advance width="1869"/>
  <unicode hex="01A2"/>
  <outline>
    <contour>
      <point x="1341" y="1338" type="curve"/>
      <point x="1311" y="1170" type="line"/>
      <point x="1474" y="1170"/>
      <point x="1604" y="1226"/>
      <point x="1738" y="1321" type="curve"/>
      <point x="1668" y="1470" type="line"/>
      <point x="1565" y="1386"/>
      <point x="1470" y="1338"/>
    </contour>
    <contour>
      <point x="1337" y="-410" type="line"/>
      <point x="1527" y="-410" type="line"/>
      <point x="1858" y="1470" type="line"/>
      <point x="1668" y="1470" type="line"/>
    </contour>
    <contour>
      <point x="1074" y="253" type="line"/>
      <point x="1264" y="253" type="line"/>
      <point x="1435" y="1227" type="line"/>
      <point x="1245" y="1227" type="line"/>
    </contour>
    <contour>
      <point x="935" y="1500" type="curve" smooth="yes"/>
      <point x="467" y="1500"/>
      <point x="86" y="1061"/>
      <point x="86" y="585" type="curve" smooth="yes"/>
      <point x="86" y="228"/>
      <point x="320" y="-20"/>
      <point x="667" y="-20" type="curve" smooth="yes"/>
      <point x="891" y="-20"/>
      <point x="1107" y="83"/>
      <point x="1264" y="253" type="curve"/>
      <point x="1203" y="452" type="line"/>
      <point x="1087" y="265"/>
      <point x="898" y="148"/>
      <point x="697" y="148" type="curve" smooth="yes"/>
      <point x="446" y="148"/>
      <point x="278" y="330"/>
      <point x="278" y="606" type="curve" smooth="yes"/>
      <point x="278" y="975"/>
      <point x="547" y="1332"/>
      <point x="906" y="1332" type="curve" smooth="yes"/>
      <point x="1107" y="1332"/>
      <point x="1254" y="1215"/>
      <point x="1304" y="1028" type="curve"/>
      <point x="1435" y="1227" type="line"/>
      <point x="1338" y="1397"/>
      <point x="1159" y="1500"/>
    </contour>
  </outline>
</glyph>
<glyph name="uni01A4" format="2">
  <advance width="1378"/>
  <unicode hex="01A4"/>
  <outline>
    <contour>
      <point x="196" y="1110" type="curve"/>
      <point x="4" y="1110" type="line"/>
      <point x="1" y="1126"/>
      <point x="0" y="1143"/>
      <point x="0" y="1160" type="curve" smooth="yes"/>
      <point x="0" y="1338"/>
      <point x="152" y="1480"/>
      <point x="330" y="1480" type="curve" smooth="yes"/>
      <point x="345" y="1480"/>
      <point x="360" y="1479"/>
      <point x="374" y="1477" type="curve"/>
      <point x="374" y="1306" type="line"/>
      <point x="361" y="1310"/>
      <point x="346" y="1312"/>
      <point x="330" y="1312" type="curve" smooth="yes"/>
      <point x="240" y="1312"/>
      <point x="190" y="1250"/>
      <point x="190" y="1160" type="curve" smooth="yes"/>
      <point x="190" y="1142"/>
      <point x="191" y="1125"/>
    </contour>
    <contour>
      <point x="520" y="1312" type="line"/>
      <point x="520" y="740" type="line"/>
      <point x="802" y="740" type="line"/>
      <point x="967" y="740"/>
      <point x="1088" y="861"/>
      <point x="1088" y="1026" type="curve" smooth="yes"/>
      <point x="1088" y="1191"/>
      <point x="967" y="1312"/>
      <point x="802" y="1312" type="curve"/>
    </contour>
    <contour>
      <point x="330" y="0" type="line"/>
      <point x="330" y="1480" type="line"/>
      <point x="802" y="1480" type="line"/>
      <point x="1057" y="1480"/>
      <point x="1278" y="1281"/>
      <point x="1278" y="1026" type="curve" smooth="yes"/>
      <point x="1278" y="771"/>
      <point x="1057" y="572"/>
      <point x="802" y="572" type="curve"/>
      <point x="520" y="572" type="line"/>
      <point x="520" y="0" type="line"/>
    </contour>
  </outline>
</glyph>
<glyph name="uni01A6" format="2">
  <advance width="1188"/>
  <unicode hex="01A6"/>
  <outline>
    <contour>
      <point x="500" y="449" type="line"/>
      <point x="630" y="572" type="line"/>
      <point x="1128" y="-168" type="line"/>
      <point x="914" y="-168" type="line"/>
    </contour>
    <contour>
      <point x="330" y="1144" type="line"/>
      <point x="330" y="572" type="line"/>
      <point x="612" y="572" type="line"/>
      <point x="777" y="572"/>
      <point x="898" y="693"/>
      <point x="898" y="858" type="curve" smooth="yes"/>
      <point x="898" y="1023"/>
      <point x="777" y="1144"/>
      <point x="612" y="1144" type="curve"/>
    </contour>
    <contour>
      <point x="140" y="0" type="line"/>
      <point x="140" y="1480" type="line"/>
      <point x="330" y="1480" type="line"/>
      <point x="330" y="1312" type="line"/>
      <point x="612" y="1312" type="line"/>
      <point x="867" y="1312"/>
      <point x="1088" y="1113"/>
      <point x="1088" y="858" type="curve" smooth="yes"/>
      <point x="1088" y="603"/>
      <point x="867" y="404"/>
      <point x="612" y="404" type="curve"/>
      <point x="330" y="404" type="line"/>
      <point x="330" y="0" type="line"/>
    </contour>
  </outline>
</glyph>
<glyph name="uni01AA" format="2">
  <advance width="919"/>
  <unicode hex="01AA"/>
  <outline>
    <contour>
      <point x="100" y="1266" type="curve" smooth="yes"/>
      <point x="100" y="1408"/>
      <point x="220" y="1500"/>
      <point x="350" y="1500" type="curve" smooth="yes"/>
      <point x="480" y="1500"/>
      <point x="599" y="1408"/>
      <point x="599" y="1266" type="curve" smooth="yes"/>
      <point x="599" y="1124"/>
      <point x="480" y="1032"/>
      <point x="350" y="1032" type="curve" smooth="yes"/>
      <point x="220" y="1032"/>
      <point x="100" y="1124"/>
    </contour>
    <contour>
      <point x="291" y="1266" type="curve" smooth="yes"/>
      <point x="291" y="1230"/>
      <point x="314" y="1201"/>
      <point x="350" y="1201" type="curve" smooth="yes"/>
      <point x="386" y="1201"/>
      <point x="409" y="1230"/>
      <point x="409" y="1266" type="curve" smooth="yes"/>
      <point x="409" y="1302"/>
      <point x="386" y="1331"/>
      <point x="350" y="1331" type="curve" smooth="yes"/>
      <point x="314" y="1331"/>
      <point x="291" y="1302"/>
    </contour>
    <contour>
      <point x="599" y="308" type="line" smooth="yes"/>
      <point x="599" y="206"/>
      <point x="647" y="148"/>
      <point x="749" y="148" type="curve" smooth="yes"/>
      <point x="792" y="148"/>
      <point x="843" y="164"/>
      <point x="869" y="183" type="curve"/>
      <point x="914" y="12" type="line"/>
      <point x="869" y="-6"/>
      <point x="805" y="-20"/>
      <point x="749" y="-20" type="curve" smooth="yes"/>
      <point x="549" y="-20"/>
      <point x="409" y="109"/>
      <point x="409" y="308" type="curve" smooth="yes"/>
      <point x="409" y="1116" type="line"/>
      <point x="599" y="1266" type="line"/>
    </contour>
  </outline>
</glyph>
<glyph name="uni01AB" format="2">
  <advance width="770"/>
  <unicode hex="01AB"/>
  <outline>
    <contour>
      <point x="690" y="0" type="line"/>
      <point x="690" y="-181"/>
      <point x="538" y="-323"/>
      <point x="360" y="-323" type="curve" smooth="yes"/>
      <point x="345" y="-323"/>
      <point x="330" y="-322"/>
      <point x="316" y="-320" type="curve"/>
      <point x="316" y="-157" type="line"/>
      <point x="329" y="-161"/>
      <point x="344" y="-163"/>
      <point x="360" y="-163" type="curve" smooth="yes"/>
      <point x="450" y="-163"/>
      <point x="510" y="-93"/>
      <point x="510" y="0" type="curve"/>
    </contour>
    <contour>
      <point x="122" y="1028" type="line"/>
      <point x="212" y="1028"/>
      <point x="272" y="1092"/>
      <point x="272" y="1182" type="curve"/>
      <point x="272" y="1320" type="line"/>
      <point x="440" y="1320" type="line"/>
      <point x="440" y="1040" type="line"/>
      <point x="720" y="1040" type="line"/>
      <point x="720" y="880" type="line"/>
      <point x="440" y="880" type="line"/>
      <point x="440" y="300" type="line" smooth="yes"/>
      <point x="440" y="198"/>
      <point x="498" y="140"/>
      <point x="600" y="140" type="curve" smooth="yes"/>
      <point x="643" y="140"/>
      <point x="694" y="156"/>
      <point x="720" y="175" type="curve"/>
      <point x="765" y="12" type="line"/>
      <point x="720" y="-6"/>
      <point x="656" y="-20"/>
      <point x="600" y="-20" type="curve" smooth="yes"/>
      <point x="400" y="-20"/>
      <point x="260" y="101"/>
      <point x="260" y="300" type="curve" smooth="yes"/>
      <point x="260" y="880" type="line"/>
      <point x="50" y="880" type="line"/>
      <point x="50" y="1028" type="line"/>
    </contour>
  </outline>
</glyph>
<glyph name="uni01AC" format="2">
  <advance width="1398"/>
  <unicode hex="01AC"/>
  <outline>
    <contour>
      <point x="196" y="1110" type="curve"/>
      <point x="4" y="1110" type="line"/>
      <point x="1" y="1126"/>
      <point x="0" y="1143"/>
      <point x="0" y="1160" type="curve" smooth="yes"/>
      <point x="0" y="1338"/>
      <point x="152" y="1480"/>
      <point x="330" y="1480" type="curve"/>
      <point x="330" y="1312" type="line"/>
      <point x="240" y="1312"/>
      <point x="190" y="1250"/>
      <point x="190" y="1160" type="curve" smooth="yes"/>
      <point x="190" y="1142"/>
      <point x="191" y="1125"/>
    </contour>
    <contour>
      <point x="794" y="0" type="line"/>
      <point x="604" y="0" type="line"/>
      <point x="604" y="1312" type="line"/>
      <point x="330" y="1312" type="line"/>
      <point x="330" y="1480" type="line"/>
      <point x="1258" y="1480" type="line"/>
      <point x="1258" y="1312" type="line"/>
      <point x="794" y="1312" type="line"/>
    </contour>
  </outline>
</glyph>
<glyph name="uni01AE" format="2">
  <advance width="1398"/>
  <unicode hex="01AE"/>
  <outline>
    <contour>
      <point x="822" y="-146" type="line"/>
      <point x="808" y="-150"/>
      <point x="793" y="-152"/>
      <point x="777" y="-152" type="curve" smooth="yes"/>
      <point x="700" y="-152"/>
      <point x="660" y="-107"/>
      <point x="660" y="-38" type="curve" smooth="yes"/>
      <point x="660" y="-26"/>
      <point x="662" y="-13"/>
      <point x="664" y="0" type="curve"/>
      <point x="474" y="0" type="line"/>
      <point x="471" y="-18"/>
      <point x="469" y="-36"/>
      <point x="469" y="-53" type="curve" smooth="yes"/>
      <point x="469" y="-205"/>
      <point x="588" y="-320"/>
      <point x="748" y="-320" type="curve" smooth="yes"/>
      <point x="763" y="-320"/>
      <point x="778" y="-319"/>
      <point x="792" y="-317" type="curve"/>
    </contour>
    <contour>
      <point x="705" y="1312" type="line"/>
      <point x="241" y="1312" type="line"/>
      <point x="271" y="1480" type="line"/>
      <point x="1389" y="1480" type="line"/>
      <point x="1359" y="1312" type="line"/>
      <point x="895" y="1312" type="line"/>
      <point x="664" y="0" type="line"/>
      <point x="474" y="0" type="line"/>
    </contour>
  </outline>
</glyph>
<glyph name="uni01B2" format="2">
  <advance width="1398"/>
  <unicode hex="01B2"/>
  <anchor x="812" y="1380" name="top_center"/>
  <anchor x="569" y="0" name="bottom_center"/>
  <outline>
    <contour>
      <point x="1146" y="1180" type="curve"/>
      <point x="1044" y="600" type="line"/>
      <point x="1000" y="350"/>
      <point x="845" y="148"/>
      <point x="595" y="148" type="curve" smooth="yes"/>
      <point x="387" y="148"/>
      <point x="295" y="287"/>
      <point x="295" y="478" type="curve" smooth="yes"/>
      <point x="295" y="517"/>
      <point x="299" y="558"/>
      <point x="306" y="600" type="curve"/>
      <point x="461" y="1480" type="line"/>
      <point x="271" y="1480" type="line"/>
      <point x="116" y="600" type="line"/>
      <point x="107" y="547"/>
      <point x="102" y="496"/>
      <point x="102" y="448" type="curve" smooth="yes"/>
      <point x="102" y="169"/>
      <point x="258" y="-20"/>
      <point x="565" y="-20" type="curve" smooth="yes"/>
      <point x="925" y="-20"/>
      <point x="1171" y="240"/>
      <point x="1234" y="600" type="curve"/>
      <point x="1336" y="1180" type="line"/>
      <point x="1339" y="1198"/>
      <point x="1341" y="1216"/>
      <point x="1341" y="1233" type="curve" smooth="yes"/>
      <point x="1341" y="1385"/>
      <point x="1222" y="1500"/>
      <point x="1062" y="1500" type="curve" smooth="yes"/>
      <point x="1047" y="1500"/>
      <point x="1032" y="1499"/>
      <point x="1018" y="1497" type="curve"/>
      <point x="988" y="1326" type="line"/>
      <point x="1002" y="1330"/>
      <point x="1017" y="1332"/>
      <point x="1033" y="1332" type="curve" smooth="yes"/>
      <point x="1110" y="1332"/>
      <point x="1150" y="1287"/>
      <point x="1150" y="1218" type="curve" smooth="yes"/>
      <point x="1150" y="1206"/>
      <point x="1148" y="1193"/>
    </contour>
  </outline>
</glyph>
<glyph name="uni01B4" format="2">
  <advance width="1184"/>
  <unicode hex="01B4"/>
  <outline>
    <contour>
      <point x="1142" y="877" type="line"/>
      <point x="1130" y="884"/>
      <point x="1116" y="890"/>
      <point x="1101" y="894" type="curve" smooth="yes"/>
      <point x="1087" y="898"/>
      <point x="1073" y="900"/>
      <point x="1060" y="900" type="curve" smooth="yes"/>
      <point x="991" y="900"/>
      <point x="934" y="850"/>
      <point x="914" y="775" type="curve"/>
      <point x="747" y="822" type="line"/>
      <point x="786" y="968"/>
      <point x="913" y="1060"/>
      <point x="1056" y="1060" type="curve" smooth="yes"/>
      <point x="1085" y="1060"/>
      <point x="1113" y="1057"/>
      <point x="1142" y="1049" type="curve" smooth="yes"/>
      <point x="1156" y="1045"/>
      <point x="1171" y="1040"/>
      <point x="1184" y="1034" type="curve"/>
    </contour>
    <contour>
      <point x="552" y="-255" type="line"/>
      <point x="507" y="-385"/>
      <point x="393" y="-460"/>
      <point x="235" y="-460" type="curve" smooth="yes"/>
      <point x="179" y="-460"/>
      <point x="115" y="-446"/>
      <point x="70" y="-428" type="curve"/>
      <point x="115" y="-265" type="line"/>
      <point x="141" y="-284"/>
      <point x="192" y="-300"/>
      <point x="235" y="-300" type="curve" smooth="yes"/>
      <point x="312" y="-300"/>
      <point x="364" y="-267"/>
      <point x="385" y="-206" type="curve"/>
      <point x="458" y="0" type="line"/>
      <point x="93" y="1040" type="line"/>
      <point x="282" y="1040" type="line"/>
      <point x="550" y="224" type="line"/>
      <point x="747" y="822" type="line"/>
      <point x="914" y="775" type="line"/>
      <point x="642" y="0" type="line"/>
    </contour>
  </outline>
</glyph>
<glyph name="uni01B5" format="2">
  <advance width="1308"/>
  <unicode hex="01B5"/>
  <outline>
    <contour>
      <point x="986" y="656" type="line"/>
      <point x="286" y="656" type="line"/>
      <point x="294" y="702"/>
      <point x="307" y="778"/>
      <point x="315" y="824" type="curve"/>
      <point x="1015" y="824" type="line"/>
    </contour>
    <contour>
      <point x="112" y="0" type="line"/>
      <point x="37" y="152" type="line"/>
      <point x="1169" y="1480" type="line"/>
      <point x="1244" y="1328" type="line"/>
    </contour>
    <contour>
      <point x="225" y="168" type="line"/>
      <point x="1060" y="168" type="line"/>
      <point x="1030" y="0" type="line"/>
      <point x="660" y="0"/>
      <point x="380" y="0"/>
      <point x="10" y="0" type="curve"/>
      <point x="37" y="152" type="line"/>
    </contour>
    <contour>
      <point x="1055" y="1312" type="line"/>
      <point x="261" y="1312" type="line"/>
      <point x="291" y="1480" type="line"/>
      <point x="661" y="1480"/>
      <point x="901" y="1480"/>
      <point x="1271" y="1480" type="curve"/>
      <point x="1244" y="1328" type="line"/>
    </contour>
  </outline>
</glyph>
<glyph name="uni01B6" format="2">
  <advance width="1020"/>
  <unicode hex="01B6"/>
  <outline>
    <contour>
      <point x="193" y="1040" type="line"/>
      <point x="165" y="880" type="line"/>
      <point x="791" y="880" type="line"/>
      <point x="908" y="896" type="line"/>
      <point x="933" y="1040" type="line"/>
    </contour>
    <contour>
      <point x="778" y="160" type="line"/>
      <point x="162" y="160" type="line"/>
      <point x="35" y="144" type="line"/>
      <point x="10" y="0" type="line"/>
      <point x="750" y="0" type="line"/>
    </contour>
    <contour>
      <point x="242" y="160" type="line"/>
      <point x="908" y="896" type="line"/>
      <point x="701" y="880" type="line"/>
      <point x="35" y="144" type="line"/>
    </contour>
    <contour>
      <point x="123" y="440" type="curve"/>
      <point x="793" y="440" type="line"/>
      <point x="821" y="600" type="line"/>
      <point x="151" y="600" type="line"/>
      <point x="143" y="554"/>
      <point x="131" y="486"/>
    </contour>
  </outline>
</glyph>
<glyph name="uni01B9" format="2">
  <advance width="1222"/>
  <unicode hex="01B9"/>
  <outline>
    <contour>
      <point x="505" y="300" type="line"/>
      <point x="648" y="400" type="line"/>
      <point x="383" y="872" type="line"/>
      <point x="172" y="888" type="line"/>
    </contour>
    <contour>
      <point x="555" y="416" type="curve" smooth="yes"/>
      <point x="251" y="416"/>
      <point x="-39" y="190"/>
      <point x="-39" y="-89" type="curve" smooth="yes"/>
      <point x="-39" y="-298"/>
      <point x="131" y="-460"/>
      <point x="401" y="-460" type="curve" smooth="yes"/>
      <point x="682" y="-460"/>
      <point x="915" y="-282"/>
      <point x="984" y="-44" type="curve"/>
      <point x="806" y="6" type="line"/>
      <point x="778" y="-150"/>
      <point x="631" y="-292"/>
      <point x="431" y="-292" type="curve" smooth="yes"/>
      <point x="253" y="-292"/>
      <point x="152" y="-199"/>
      <point x="152" y="-68" type="curve" smooth="yes"/>
      <point x="152" y="92"/>
      <point x="289" y="256"/>
      <point x="527" y="256" type="curve" smooth="yes"/>
      <point x="622" y="256" type="line"/>
      <point x="648" y="400" type="line"/>
      <point x="648" y="400"/>
      <point x="625" y="416"/>
    </contour>
    <contour>
      <point x="1103" y="1040" type="line"/>
      <point x="198" y="1040" type="line"/>
      <point x="172" y="888" type="line"/>
      <point x="343" y="872" type="line"/>
      <point x="1074" y="872" type="line"/>
    </contour>
  </outline>
</glyph>
